{
.appName = FontCreator;
.appVersion = "15.0.0.2992";
.formatVersion = 3;
customParameters = (
{
name = fsType;
value = (
);
},
{
name = "Use Typo Metrics";
value = 1;
},
{
name = "Variable Font Origin";
value = m000;
}
);
date = "2020-07-18 09:19:49";
familyName = "Estedad Mad FD";
featurePrefixes = (
{
automatic = 1;
code = "languagesystem DFLT dflt;
languagesystem latn dflt; # Latin default
languagesystem arab dflt; # Arabic default
languagesystem arab FAR;  # Arabic Persian
languagesystem arab KUR;  # Arabic Kurdish
languagesystem arab URD;  # Arabic Urdu
";
name = Languagesystems;
},
{
code = "
#
# Global glyph class definitions
#

@CG_1 = [arabicindiczero-arab arabicindicone-arab arabicindictwo-arab arabicindicthree-arab arabicindicfour-arab arabicindicfive-arab arabicindicsix-arab arabicindicseven-arab arabicindiceight-arab arabicindicnine-arab extendedarabicindiczero-arab extendedarabicindicone-arab extendedarabicindictwo-arab extendedarabicindicthree-arab extendedarabicindicfour-arab extendedarabicindicfour-arab.urdu extendedarabicindicfive-arab extendedarabicindicsix-arab extendedarabicindicseven-arab extendedarabicindicseven-arab.urdu extendedarabicindiceight-arab extendedarabicindicnine-arab];
@CG_2 = [arabicindiczero-arab.EoA arabicindicone-arab.EoA arabicindictwo-arab.EoA arabicindicthree-arab.EoA arabicindicfour-arab.EoA arabicindicfour-arab.urdu.EoA arabicindicfive-arab.EoA arabicindicsix-arab.EoA arabicindicseven-arab.EoA arabicindicseven-arab.urdu.EoA arabicindiceight-arab.EoA arabicindicnine-arab.EoA extendedarabicindiczero-arab.EoA extendedarabicindicfour-arab.EoA extendedarabicindicfive-arab.EoA extendedarabicindicsix-arab.EoA];
@CG__i = [i j];
@CG_3 = [acutecomb gravecomb hookcomb tildecomb circumflexcomb macroncomb overlinecomb brevecomb dotaccentcomb dieresiscomb ringcomb doubleacutecomb caroncomb verticallinecomb doubleverticallinecomb doublegravecomb invertedbrevecomb horncomb];
@CG__L = [L d l];
@CG__G = [G K L N R d k l n r];

glyphs = (
{
glyphname = .notdef;
layers = (
{
layerId = m000;
shapes = (
{
closed = 1;
nodes = (
(102,-410,l),
(102,1638,l),
(922,1638,l),
(922,-410,l)
);
},
{
closed = 1;
nodes = (
(204,-308,l),
(820,-308,l),
(820,1536,l),
(204,1536,l)
);
}
);
width = 1024;
}
);
},
{
glyphname = A;
layers = (
{
anchors = (
{
name = top;
pos = (636,1396);
},
{
name = bottom;
pos = (636,0);
},
{
name = ogonek;
pos = (1202,0);
}
);
layerId = m000;
shapes = (
{
closed = 1;
nodes = (
(601,288,l),
(1077,288,l),
(1155,0,l),
(1693,0,l),
(1143,1564,l),
(531,1564,l),
(-20,0,l),
(517,0,l)
);
},
{
closed = 1;
nodes = (
(795,974,l),
(885,974,l),
(958,660,l),
(719,660,l)
);
}
);
width = 1673;
}
);
unicode = 65;
},
{
glyphname = Arabic_Double_Dot_H;
layers = (
{
layerId = m000;
shapes = (
{
closed = 1;
nodes = (
(159,384,l),
(161,35,l),
(861,94,l),
(862,446,l)
);
}
);
width = 1021;
}
);
},
{
glyphname = Arabic_Single_Dot;
layers = (
{
layerId = m000;
shapes = (
{
closed = 1;
nodes = (
(166,40,l),
(513,80,l),
(514,429,l),
(165,397,l)
);
}
);
width = 675;
}
);
},
{
glyphname = Arabic_Triple_Dot_Down;
layers = (
{
layerId = m000;
shapes = (
{
closed = 1;
nodes = (
(611.809,67.668,l),
(404,-102,l),
(633,-297,l),
(982,93,l),
(960.199,92.516,l),
(984,94,l),
(861,446,l),
(160,384,l),
(159,35,l)
);
}
);
width = 1021;
}
);
},
{
glyphname = Arabic_Triple_Dot_Down.alt;
layers = (
{
layerId = m000;
shapes = (
{
closed = 1;
nodes = (
(544,499,l),
(70,447,l),
(71,196,l),
(336.026,238.657,l),
(160,52,l),
(336,-47,l),
(575,248,l)
);
}
);
width = 622;
}
);
},
{
glyphname = Arabic_Triple_Dot_Up;
layers = (
{
layerId = m000;
shapes = (
{
closed = 1;
nodes = (
(861,94,l),
(983,447,l),
(982,447,l),
(632,776,l),
(403,581,l),
(622.505,420.263,l),
(158,385,l),
(160,36,l)
);
}
);
width = 1021;
}
);
},
{
glyphname = B;
layers = (
{
anchors = (
{
name = top;
pos = (593,1396);
},
{
name = bottom;
pos = (593,0);
}
);
layerId = m000;
shapes = (
{
closed = 1;
nodes = (
(1063,762,q),
(1063,792,l),
(1288,811,o),
(1391,987,o),
(1391,1086,qs),
(1391,1324,o),
(1116,1564,o),
(870,1564,qs),
(122,1564,l),
(122,0,l),
(889,0,l),
(1160,0,o),
(1427,174,o),
(1427,417,qs),
(1427,538,o),
(1291,750,o)
);
},
{
closed = 1;
nodes = (
(624,1148,l),
(800,1148,l),
(838,1148,o),
(882,1105,o),
(882,1053,qs),
(882,1003,o),
(837,958,o),
(800,958,qs),
(624,958,l)
);
},
{
closed = 1;
nodes = (
(624,601,l),
(846,601,l),
(883,601,o),
(927,558,o),
(927,508,qs),
(927,456,o),
(882,415,o),
(846,415,qs),
(624,415,l)
);
}
);
width = 1525;
}
);
unicode = 66;
},
{
glyphname = C;
layers = (
{
anchors = (
{
name = top;
pos = (717,1407);
},
{
name = bottom;
pos = (717,-11);
}
);
layerId = m000;
shapes = (
{
closed = 1;
nodes = (
(566,782,qs),
(566,908,o),
(614,1075,o),
(756,1129,o),
(819,1129,qs),
(876,1129,o),
(1034,1127,o),
(1260,1049,q),
(1362,1482,l),
(1175,1546,o),
(980,1574,o),
(821,1574,qs),
(604,1574,o),
(234,1371,o),
(63,1015,o),
(63,782,qs),
(63,551,o),
(234,192,o),
(604,-11,o),
(821,-11,qs),
(980,-11,o),
(1277,43,o),
(1390,94,q),
(1254,518,l),
(1071,447,o),
(876,435,o),
(819,435,qs),
(756,435,o),
(614,490,o),
(566,658,o)
);
}
);
width = 1453;
}
);
unicode = 67;
},
{
glyphname = E;
layers = (
{
anchors = (
{
name = top;
pos = (631,1396);
},
{
name = bottom;
pos = (631,0);
},
{
name = ogonek;
pos = (796,0);
}
);
layerId = m000;
shapes = (
{
closed = 1;
nodes = (
(1157,415,l),
(581,415,l),
(581,594,l),
(1101,594,l),
(1101,971,l),
(581,971,l),
(581,1148,l),
(1157,1148,l),
(1157,1564,l),
(80,1564,l),
(80,0,l),
(1157,0,l)
);
}
);
width = 1217;
}
);
unicode = 69;
},
{
glyphname = F;
layers = (
{
anchors = (
{
name = top;
pos = (631,1396);
},
{
name = bottom;
pos = (631,0);
}
);
layerId = m000;
shapes = (
{
closed = 1;
nodes = (
(581,0,l),
(581,553,l),
(973,553,l),
(973,932,l),
(581,932,l),
(581,1148,l),
(1157,1148,l),
(1157,1564,l),
(80,1564,l),
(80,0,l)
);
}
);
width = 1207;
}
);
unicode = 70;
},
{
glyphname = G;
layers = (
{
anchors = (
{
name = top;
pos = (729,1407);
},
{
name = bottom;
pos = (757,-11);
}
);
layerId = m000;
shapes = (
{
closed = 1;
nodes = (
(816,932,l),
(816,622,l),
(1016,622,l),
(1016,422,l),
(994,416,o),
(958,410,o),
(918,405,o),
(882,405,qs),
(734,405,o),
(585,591,o),
(583,785,q),
(80,785,l),
(80,558,o),
(284,197,o),
(643,-12,o),
(876,-12,qs),
(1048,-12,o),
(1244,67,o),
(1403,145,o),
(1470,175,q),
(1470,932,l)
);
},
{
closed = 1;
nodes = (
(583,785,l),
(583,908,o),
(631,1075,o),
(773,1129,o),
(836,1129,qs),
(893,1129,o),
(1051,1127,o),
(1277,1049,q),
(1379,1482,l),
(1192,1546,o),
(997,1574,o),
(838,1574,qs),
(621,1574,o),
(251,1371,o),
(80,1015,o),
(80,785,q)
);
}
);
width = 1641;
}
);
unicode = 71;
},
{
glyphname = GAFbar;
layers = (
{
layerId = m000;
shapes = (
{
closed = 1;
nodes = (
(802,1719,l),
(639,1689,o),
(224,1542,o),
(9,1440,q),
(116,1233,l),
(313,1325,o),
(689,1459,o),
(845,1490,q)
);
}
);
width = 853;
}
);
},
{
glyphname = H;
layers = (
{
anchors = (
{
name = top;
pos = (712,1396);
},
{
name = bottom;
pos = (712,0);
}
);
layerId = m000;
shapes = (
{
closed = 1;
nodes = (
(952,1564,l),
(952,971,l),
(582,971,l),
(582,1564,l),
(80,1564,l),
(80,0,l),
(582,0,l),
(582,594,l),
(952,594,l),
(952,0,l),
(1453,0,l),
(1453,1564,l)
);
}
);
width = 1532;
}
);
unicode = 72;
},
{
glyphname = I;
layers = (
{
anchors = (
{
name = top;
pos = (319,1396);
},
{
name = bottom;
pos = (319,0);
},
{
name = ogonek;
pos = (319,0);
}
);
layerId = m000;
shapes = (
{
closed = 1;
nodes = (
(606,0,l),
(606,1564,l),
(101,1564,l),
(101,0,l)
);
}
);
width = 706;
}
);
unicode = 73;
},
{
glyphname = J;
layers = (
{
anchors = (
{
name = top;
pos = (466,1396);
},
{
name = bottom;
pos = (262,-11);
}
);
layerId = m000;
shapes = (
{
closed = 1;
nodes = (
(-29,83,l),
(47,56,o),
(322,-11,o),
(410,-11,qs),
(521,-11,o),
(712,59,o),
(830,214,o),
(830,342,qs),
(830,1564,l),
(325,1564,l),
(325,452,l),
(325,404,o),
(272,346,o),
(206,358,q),
(165,364,o),
(62,389,o),
(33,393,q)
);
}
);
width = 903;
}
);
unicode = 74;
},
{
glyphname = K;
layers = (
{
anchors = (
{
name = top;
pos = (671,1396);
},
{
name = bottom;
pos = (671,0);
}
);
layerId = m000;
shapes = (
{
closed = 1;
nodes = (
(942,1564,l),
(563,978,l),
(581,978,l),
(581,1564,l),
(80,1564,l),
(80,0,l),
(581,0,l),
(581,642,l),
(560,642,l),
(942,0,l),
(1480,0,l),
(955,779,l),
(1480,1564,l)
);
}
);
width = 1510;
}
);
unicode = 75;
},
{
glyphname = L;
layers = (
{
anchors = (
{
name = top;
pos = (688,1396);
},
{
name = horn;
pos = (569,1396);
},
{
name = bottom;
pos = (638,0);
},
{
name = Anchor_4;
pos = (688,801);
},
{
name = ogonek;
pos = (954,0);
}
);
layerId = m000;
shapes = (
{
closed = 1;
nodes = (
(1201,415,l),
(602,415,l),
(602,1564,l),
(100,1564,l),
(100,0,l),
(1201,0,l)
);
}
);
width = 1232;
}
);
unicode = 76;
},
{
glyphname = M;
layers = (
{
anchors = (
{
name = top;
pos = (916,1396);
},
{
name = bottom;
pos = (916,0);
}
);
layerId = m000;
shapes = (
{
closed = 1;
nodes = (
(602,0,l),
(602,735,l),
(612,735,l),
(868,0,l),
(1310,0,l),
(1521,730,l),
(1531,730,l),
(1531,0,l),
(2035,0,l),
(2035,1564,l),
(1376,1564,l),
(1090,474,l),
(706,1564,l),
(100,1564,l),
(100,0,l)
);
}
);
width = 2135;
}
);
unicode = 77;
},
{
glyphname = N;
layers = (
{
anchors = (
{
name = top;
pos = (753,1396);
},
{
name = bottom;
pos = (696,0);
}
);
layerId = m000;
shapes = (
{
closed = 1;
nodes = (
(1026,1564,l),
(1026,875,l),
(1016,875,l),
(598,1564,l),
(100,1564,l),
(100,0,l),
(602,0,l),
(602,686,l),
(612,686,l),
(1030,0,l),
(1531,0,l),
(1531,1564,l)
);
}
);
width = 1630;
}
);
unicode = 78;
},
{
glyphname = O;
layers = (
{
anchors = (
{
name = top;
pos = (760,1407);
},
{
name = horn;
pos = (994,1259);
},
{
name = bottom;
pos = (760,-11);
},
{
name = ogonek;
pos = (760,-11);
}
);
layerId = m000;
shapes = (
{
closed = 1;
nodes = (
(756,1574,qs),
(555,1574,o),
(278,1441,o),
(103,1217,o),
(23,933,o),
(23,782,qs),
(23,632,o),
(105,349,o),
(279,123,o),
(557,-11,o),
(756,-11,qs),
(954,-11,o),
(1233,123,o),
(1407,349,o),
(1486,632,o),
(1486,782,qs),
(1486,933,o),
(1407,1217,o),
(1234,1441,o),
(956,1574,o)
);
},
{
closed = 1;
nodes = (
(756,1155,qs),
(803,1155,o),
(906,1095,o),
(981,933,o),
(981,782,qs),
(981,633,o),
(909,471,o),
(804,409,o),
(756,409,qs),
(707,409,o),
(604,471,o),
(534,632,o),
(534,782,qs),
(534,933,o),
(606,1095,o),
(710,1155,o)
);
}
);
width = 1508;
}
);
unicode = 79;
},
{
glyphname = P;
layers = (
{
anchors = (
{
name = top;
pos = (628,1396);
},
{
name = bottom;
pos = (628,0);
}
);
layerId = m000;
shapes = (
{
closed = 1;
nodes = (
(624,0,l),
(624,490,l),
(836,490,l),
(1144,490,o),
(1453,752,o),
(1453,1025,qs),
(1453,1296,o),
(1144,1564,o),
(836,1564,qs),
(122,1564,l),
(122,0,l)
);
},
{
closed = 1;
nodes = (
(624,1148,l),
(820,1148,l),
(887,1148,o),
(950,1090,o),
(950,1028,qs),
(950,963,o),
(886,907,o),
(820,907,qs),
(624,907,l)
);
}
);
width = 1526;
}
);
unicode = 80;
},
{
glyphname = R;
layers = (
{
anchors = (
{
name = top;
pos = (628,1396);
},
{
name = bottom;
pos = (628,0);
}
);
layerId = m000;
shapes = (
{
closed = 1;
nodes = (
(1022,655,q),
(601,655,l),
(954.069,421.986,o),
(1012,0,q),
(1489,0,l),
(1400.498,537.582,o)
);
},
{
closed = 1;
nodes = (
(624,0,l),
(624,490,l),
(836,490,l),
(1144,490,o),
(1453,752,o),
(1453,1025,qs),
(1453,1296,o),
(1144,1564,o),
(836,1564,qs),
(122,1564,l),
(122,0,l)
);
},
{
closed = 1;
nodes = (
(624,1148,l),
(820,1148,l),
(887,1148,o),
(950,1090,o),
(950,1028,qs),
(950,963,o),
(886,907,o),
(820,907,qs),
(624,907,l)
);
}
);
width = 1519;
}
);
unicode = 82;
},
{
glyphname = S;
layers = (
{
anchors = (
{
name = top;
pos = (599,1406);
},
{
name = bottom;
pos = (609,-10);
}
);
layerId = m000;
shapes = (
{
closed = 1;
nodes = (
(106.6,34.485,l),
(274.587,8.998,o),
(516.406,-20.795,o),
(713.153,-10.819,qs),
(901.911,-1.248,o),
(1183.313,136.179,o),
(1332.813,367.046,o),
(1325.167,517.852,qs),
(1319.141,636.699,o),
(1197.17,810.746,o),
(958.328,939.817,o),
(777.467,991.724,qs),
(715.533,1008.61,o),
(630.917,1038.363,o),
(586.895,1077.183,o),
(585.629,1102.151,qs),
(584.717,1120.128,o),
(603.628,1142.114,o),
(641.174,1152.028,o),
(671.136,1153.547,qs),
(716.078,1155.826,o),
(815.154,1156.845,o),
(1009.122,1142.649,o),
(1220.219,1096.318,q),
(1264.272,1511.081,l),
(1055.968,1561.559,o),
(852.607,1583.288,o),
(664.848,1573.768,qs),
(485.079,1564.653,o),
(222.349,1434.181,o),
(85.426,1211.962,o),
(92.769,1067.148,qs),
(99.049,943.307,o),
(229.616,757.681,o),
(482.998,618.333,o),
(672.253,558.841,q),
(725.047,544.496,o),
(797.425,519.129,o),
(832.951,489.89,o),
(833.913,470.915,qs),
(835.433,440.953,o),
(776.826,411.948,o),
(729.886,409.568,qs),
(673.958,406.732,o),
(375.328,411.616,o),
(177.213,458.605,q)
);
}
);
width = 1378;
}
);
unicode = 83;
},
{
glyphname = T;
layers = (
{
anchors = (
{
name = top;
pos = (664,1396);
},
{
name = bottom;
pos = (664,0);
}
);
layerId = m000;
shapes = (
{
closed = 1;
nodes = (
(919,0,l),
(919,1148,l),
(1350,1148,l),
(1350,1564,l),
(-15,1564,l),
(-15,1148,l),
(415,1148,l),
(415,0,l)
);
}
);
width = 1332;
}
);
unicode = 84;
},
{
glyphname = U;
layers = (
{
anchors = (
{
name = top;
pos = (696,1396);
},
{
name = horn;
pos = (1168,1259);
},
{
name = bottom;
pos = (696,-11);
},
{
name = ogonek;
pos = (696,-11);
}
);
layerId = m000;
shapes = (
{
closed = 1;
nodes = (
(991,1564,l),
(991,580,l),
(991,541,o),
(971,475,o),
(891,434,o),
(798,434,qs),
(706,434,o),
(623,475,o),
(602,541,o),
(602,580,qs),
(602,1564,l),
(100,1564,l),
(100,591,l),
(100,305,o),
(444,-11,o),
(798,-11,qs),
(1152,-11,o),
(1494,305,o),
(1494,591,qs),
(1494,1564,l)
);
}
);
width = 1594;
}
);
unicode = 85;
},
{
glyphname = V;
layers = (
{
anchors = (
{
name = top;
pos = (636,1396);
},
{
name = bottom;
pos = (635,0);
}
);
layerId = m000;
shapes = (
{
closed = 1;
nodes = (
(803,586,l),
(793,586,l),
(516,1564,l),
(-21,1564,l),
(534,0,l),
(1061,0,l),
(1618,1564,l),
(1077,1564,l)
);
}
);
width = 1593;
}
);
unicode = 86;
},
{
glyphname = W;
layers = (
{
anchors = (
{
name = top;
pos = (942,1396);
},
{
name = bottom;
pos = (942,0);
}
);
layerId = m000;
shapes = (
{
closed = 1;
nodes = (
(1398,769,l),
(1388,769,l),
(1243,1564,l),
(835,1564,l),
(687,769,l),
(677,769,l),
(531,1564,l),
(10,1564,l),
(429,0,l),
(879,0,l),
(1034,780,l),
(1044,780,l),
(1197,0,l),
(1647,0,l),
(2068,1564,l),
(1547,1564,l)
);
}
);
width = 2074;
}
);
unicode = 87;
},
{
glyphname = X;
layers = (
{
anchors = (
{
name = top;
pos = (646,1396);
},
{
name = bottom;
pos = (646,0);
}
);
layerId = m000;
shapes = (
{
closed = 1;
nodes = (
(1565,0,l),
(1043,779,l),
(1565,1564,l),
(979,1564,l),
(776,1160,l),
(572,1564,l),
(-15,1564,l),
(509,779,l),
(-15,0,l),
(572,0,l),
(776,401,l),
(979,0,l)
);
}
);
width = 1549;
}
);
unicode = 88;
},
{
glyphname = Y;
layers = (
{
anchors = (
{
name = top;
pos = (620,1396);
},
{
name = bottom;
pos = (620,0);
}
);
layerId = m000;
shapes = (
{
closed = 1;
nodes = (
(1060,1564,l),
(818,1074,l),
(569,1564,l),
(-16,1564,l),
(563,682,l),
(563,0,l),
(1070,0,l),
(1070,682,l),
(1643,1564,l)
);
}
);
width = 1624;
}
);
unicode = 89;
},
{
glyphname = Z;
layers = (
{
anchors = (
{
name = top;
pos = (608,1396);
},
{
name = bottom;
pos = (608,0);
}
);
layerId = m000;
shapes = (
{
closed = 1;
nodes = (
(31,1146,l),
(631,1146,l),
(31,312,l),
(31,0,l),
(1207,0,l),
(1207,415,l),
(611,415,l),
(1207,1248,l),
(1207,1564,l),
(31,1564,l)
);
}
);
width = 1235;
}
);
unicode = 90;
},
{
glyphname = "arabicdammacomb_smallhighmeemisolatedformcomb-arab.ccmp";
layers = (
{
anchors = (
{
name = "top-arab";
pos = (0,1519);
},
{
name = "_top-arab";
pos = (0,872);
}
);
layerId = m000;
shapes = (
{
closed = 1;
nodes = (
(-408,1418,qs),
(-408,1416,o),
(-425,1412,o),
(-424,1412,q),
(-438,1412,o),
(-468,1419,o),
(-479,1422,q),
(-475,1445,o),
(-459,1462,o),
(-444,1465,o),
(-440,1465,qs),
(-425,1465,o),
(-408,1445,o)
);
},
{
closed = 1;
nodes = (
(-588,1241,qs),
(-586,1241,o),
(-574,1240,o),
(-556,1236,qs),
(-496,1223,o),
(-430,1213,o),
(-406,1213,qs),
(-329,1213,o),
(-245,1318,o),
(-245,1414,qs),
(-245,1531,o),
(-353,1660,o),
(-434,1660,qs),
(-480,1660,o),
(-563,1617,o),
(-626,1524,o),
(-640,1450,q),
(-709,1449,o),
(-796,1341,o),
(-796,1258,qs),
(-796,1040,l),
(-612,1040,l),
(-612,1232,l),
(-612,1239,o),
(-590,1241,o)
);
},
{
closed = 1;
nodes = (
(51,1461,qs),
(53,1461,o),
(63,1458,o),
(63,1451,qs),
(63,1403,o),
(43,1386,q),
(16,1400,o),
(-2,1423,o),
(-5,1438,o),
(-5,1438,q),
(-5,1440,o),
(38,1461,o)
);
},
{
closed = 1;
nodes = (
(82,1655,qs),
(18,1655,o),
(-95,1599,o),
(-168,1503,o),
(-168,1442,qs),
(-168,1417,o),
(-165,1358,o),
(-146,1303,o),
(-121,1286,q),
(-176,1265,o),
(-250,1240,o),
(-266,1236,q),
(-215,1036,l),
(-75,1071,o),
(137,1212,o),
(256,1383,o),
(256,1461,qs),
(256,1554,o),
(160,1655,o)
);
}
);
}
);
},
{
glyphname = a;
layers = (
{
anchors = (
{
name = top;
pos = (526,1054);
},
{
name = bottom;
pos = (402,-11);
},
{
name = ogonek;
pos = (901,0);
}
);
layerId = m000;
shapes = (
{
closed = 1;
nodes = (
(626,1197,qs),
(420,1197,o),
(209,1127,o),
(129,1105,q),
(169,770,l),
(314,797,o),
(526,823,o),
(599,823,qs),
(661,823,o),
(702,788,o),
(702,753,qs),
(702,328,l),
(702,136,o),
(702,72,o),
(702,0,q),
(1206,0,l),
(1206,275,o),
(1206,305,o),
(1206,341,qs),
(1206,753,l),
(1206,890,o),
(1078,1091,o),
(818,1197,o)
);
},
{
closed = 1;
nodes = (
(868,0,q),
(730,332,l),
(702,332,o),
(607,332,o),
(551,332,o),
(530,332,qs),
(501,332,o),
(469,359,o),
(469,393,qs),
(469,426,o),
(549,457,o),
(598,457,qs),
(891,457,l),
(886,696,l),
(528,696,l),
(418,696,o),
(196,631,o),
(49,456,o),
(49,322,qs),
(49,165,o),
(231.5,0,o),
(383.5,0,qs),
(482.5,0,o),
(573,0,o),
(783,0,o)
);
}
);
width = 1268;
}
);
unicode = 97;
},
{
glyphname = acute;
layers = (
{
layerId = m000;
shapes = (
{
closed = 1;
nodes = (
(145,1497,l),
(43,1138,l),
(269,1138,l),
(418,1497,l)
);
}
);
width = 460;
}
);
unicode = 180;
},
{
glyphname = asciicircum;
layers = (
{
layerId = m000;
shapes = (
{
closed = 1;
nodes = (
(715,1138,l),
(617,1497,l),
(115,1497,l),
(16,1138,l),
(297,1138,l),
(366,1343,l),
(435,1138,l)
);
}
);
width = 727;
}
);
unicode = 94;
},
{
glyphname = asciitilde;
layers = (
{
layerId = m000;
shapes = (
{
closed = 1;
nodes = (
(61,668,q),
(365,555,l),
(391,639,o),
(436,696,o),
(481,696,qs),
(499,696,o),
(546,681,o),
(579,665,q),
(643,631,o),
(758,597,o),
(810,597,qs),
(957,597,o),
(1124,803,o),
(1165,1032,q),
(867,1104,l),
(851,1031,o),
(801,968,o),
(755,968,qs),
(721,968,o),
(650,994,o),
(596,1025,q),
(546,1057,o),
(469,1080,o),
(432,1080,qs),
(163,1080,o)
);
}
);
width = 1225;
}
);
unicode = 126;
},
{
glyphname = asterisk;
layers = (
{
layerId = m000;
shapes = (
{
closed = 1;
nodes = (
(422,1587,l),
(461,1289,l),
(453,1284,l),
(194,1420,l),
(87,1090,l),
(367,1019,l),
(370,1010,l),
(175,824,l),
(457,620,l),
(590,875,l),
(600,875,l),
(736,620,l),
(1018,824,l),
(823,1010,l),
(825,1020,l),
(1105,1090,l),
(996,1420,l),
(738,1283,l),
(731,1290,l),
(770,1587,l)
);
}
);
width = 1189;
}
);
unicode = 42;
},
{
glyphname = at;
layers = (
{
layerId = m000;
shapes = (
{
closed = 1;
nodes = (
(1033,690,qs),
(1074,690,o),
(1119,691,o),
(1138,685,q),
(1122,489,l),
(1116,427,o),
(1083,337,o),
(1022,288,o),
(976,288,qs),
(925,288,o),
(869,328,o),
(846,406,o),
(846,462,qs),
(846,538,o),
(882,639,o),
(964,690,o)
);
},
{
closed = 1;
nodes = (
(1033,974,qs),
(877,974,o),
(660,852,o),
(548,624,o),
(548,462,qs),
(548,326,o),
(654,111,o),
(846,-15,o),
(976,-15,qs),
(1032,-15,o),
(1129,7,o),
(1209,45,o),
(1240,69,q),
(1283,32,o),
(1392,-15,o),
(1448,-15,qs),
(1591,-15,o),
(1800,137,o),
(1913,423,o),
(1913,625,qs),
(1913,814,o),
(1795,1113,o),
(1572,1319,o),
(1257,1426,o),
(1059,1426,qs),
(838,1426,o),
(483,1287,o),
(232,1026,o),
(101,661,o),
(101,433,qs),
(101,156,o),
(307,-236,o),
(698,-440,o),
(974,-440,qs),
(1061,-440,o),
(1228,-408,o),
(1311,-376,q),
(1206,-106,l),
(1146,-128,o),
(1031,-150,o),
(973,-150,qs),
(780,-150,o),
(533,-26,o),
(416,234,o),
(416,439,qs),
(416,601,o),
(501,860,o),
(662,1045,o),
(894,1141,o),
(1043,1141,qs),
(1179,1141,o),
(1391,1077,o),
(1539,949,o),
(1617,763,o),
(1617,643,qs),
(1617,530,o),
(1578,378,o),
(1504,300,o),
(1450,300,qs),
(1429,300,o),
(1419,303,o),
(1419,316,qs),
(1419,320,o),
(1421,377,o),
(1425,410,q),
(1462,803,l),
(1339,895,o),
(1135,974,o)
);
}
);
width = 2011;
}
);
unicode = 64;
},
{
glyphname = b;
layers = (
{
anchors = (
{
name = top;
pos = (647,1423);
},
{
name = bottom;
pos = (647,-10);
}
);
layerId = m000;
shapes = (
{
closed = 1;
nodes = (
(552,0,l),
(552,1619,l),
(50,1619,l),
(50,0,l)
);
},
{
closed = 1;
nodes = (
(1294,592,qs),
(1294,745,o),
(1221,1020,o),
(1049,1194,o),
(901,1194,qs),
(749,1194,o),
(578,1151,o),
(506,1096,q),
(526,780,l),
(601,800,o),
(679,809,o),
(705,809,qs),
(736,809,o),
(792,703,o),
(792,592,qs),
(792,482,o),
(736,377,o),
(705,377,qs),
(679,377,o),
(601,377,o),
(538,377,q),
(506,0,l),
(578,0,o),
(749,0,o),
(901,0,qs),
(1049,0,o),
(1221,166,o),
(1294,442,o)
);
}
);
width = 1295;
}
);
unicode = 98;
},
{
glyphname = backslash;
layers = (
{
layerId = m000;
shapes = (
{
closed = 1;
nodes = (
(1191,0,l),
(509,1564,l),
(-33,1564,l),
(651,0,l)
);
}
);
width = 1155;
}
);
unicode = 92;
},
{
glyphname = bar;
layers = (
{
layerId = m000;
shapes = (
{
closed = 1;
nodes = (
(169,1641,l),
(169,-471,l),
(566,-471,l),
(566,1641,l)
);
}
);
width = 734;
}
);
unicode = 124;
},
{
glyphname = braceleft;
layers = (
{
layerId = m000;
shapes = (
{
closed = 1;
nodes = (
(907,1692,l),
(708,1692,l),
(601,1692,o),
(431,1592,o),
(330,1425,o),
(330,1323,qs),
(330,1093,l),
(330,1042,o),
(271,947,o),
(231,950,q),
(111,941,l),
(111,602,l),
(231,594,l),
(270,593,o),
(330,501,o),
(330,452,qs),
(330,221,l),
(330,119,o),
(431,-48,o),
(602,-147,o),
(708,-147,qs),
(907,-147,l),
(907,232,l),
(776,232,l),
(755,232,o),
(724,254,o),
(724,277,qs),
(724,452,l),
(724,513,o),
(662,652,o),
(556,758,o),
(491,767,q),
(491,777,l),
(557,786,o),
(662,890,o),
(724,1032,o),
(724,1093,qs),
(724,1270,l),
(724,1294,o),
(755,1313,o),
(776,1313,qs),
(907,1313,l)
);
}
);
width = 1045;
}
);
unicode = 123;
},
{
glyphname = braceright;
layers = (
{
layerId = m000;
shapes = (
{
closed = 1;
nodes = (
(141,-147,l),
(339,-147,l),
(446,-147,o),
(617,-48,o),
(717,119,o),
(717,221,qs),
(717,454,l),
(717,504,o),
(776,597,o),
(817,593,q),
(937,604,l),
(937,941,l),
(817,951,l),
(777,952,o),
(717,1042,o),
(717,1093,qs),
(717,1324,l),
(717,1426,o),
(617,1593,o),
(446,1692,o),
(339,1692,qs),
(141,1692,l),
(141,1316,l),
(269,1316,l),
(289,1316,o),
(321,1294,o),
(321,1271,qs),
(321,1093,l),
(321,1031,o),
(384,891,o),
(491,786,o),
(555,778,q),
(555,768,l),
(489,759,o),
(384,655,o),
(321,516,o),
(321,454,qs),
(321,276,l),
(321,254,o),
(289,233,o),
(269,233,qs),
(141,233,l)
);
}
);
width = 1045;
}
);
unicode = 125;
},
{
glyphname = bracketleft;
layers = (
{
layerId = m000;
shapes = (
{
closed = 1;
nodes = (
(696,232,l),
(431,232,l),
(431,1313,l),
(696,1313,l),
(696,1691,l),
(35,1691,l),
(35,-147,l),
(696,-147,l)
);
}
);
width = 714;
}
);
unicode = 91;
},
{
glyphname = bracketright;
layers = (
{
layerId = m000;
shapes = (
{
closed = 1;
nodes = (
(19,1316,l),
(284,1316,l),
(284,233,l),
(19,233,l),
(19,-147,l),
(680,-147,l),
(680,1692,l),
(19,1692,l)
);
}
);
width = 715;
}
);
unicode = 93;
},
{
glyphname = brevemod;
layers = (
{
layerId = m000;
shapes = (
{
closed = 1;
nodes = (
(651,1460,q),
(433,1460,l),
(433,1395,o),
(387,1348,o),
(341,1348,qs),
(294,1348,o),
(248,1395,o),
(248,1460,q),
(29,1460,l),
(29,1306,o),
(187,1138,o),
(341,1138,qs),
(494,1138,o),
(651,1306,o)
);
}
);
width = 680;
}
);
unicode = 728;
},
{
glyphname = brokenbar;
layers = (
{
layerId = m000;
shapes = (
{
closed = 1;
nodes = (
(485,888,l),
(485,1564,l),
(-15,1564,l),
(-15,888,l)
);
},
{
closed = 1;
nodes = (
(485,0,l),
(485,707,l),
(-15,707,l),
(-15,0,l)
);
}
);
width = 464;
}
);
unicode = 166;
},
{
glyphname = bullet;
layers = (
{
layerId = m000;
shapes = (
{
closed = 1;
nodes = (
(100,688,qs),
(100,585,o),
(247,440,o),
(347,440,qs),
(449,440,o),
(596,585,o),
(596,688,qs),
(596,791,o),
(449,936,o),
(347,936,qs),
(247,936,o),
(100,791,o)
);
}
);
width = 693;
}
);
unicode = 8226;
},
{
glyphname = c;
layers = (
{
anchors = (
{
name = top;
pos = (580,1054);
},
{
name = bottom;
pos = (580,-10);
}
);
layerId = m000;
shapes = (
{
closed = 1;
nodes = (
(673,1195,qs),
(346,1195,o),
(38,863,o),
(38,592,qs),
(38,323,o),
(346,-8,o),
(673,-8,qs),
(765,-8,o),
(912,1,o),
(1042,47,o),
(1087,100,q),
(1039,426,l),
(909,395,o),
(773,376,o),
(691,376,qs),
(626,376,o),
(566,438,o),
(545,550,o),
(545,597,qs),
(545,640,o),
(567,751,o),
(629,812,o),
(691,812,qs),
(773,812,o),
(913,797,o),
(1039,763,q),
(1087,1085,l),
(1040,1125,o),
(909,1175,o),
(784,1195,o)
);
}
);
width = 1157;
}
);
unicode = 99;
},
{
glyphname = caronmod;
layers = (
{
layerId = m000;
shapes = (
{
closed = 1;
nodes = (
(16,1497,l),
(115,1138,l),
(617,1138,l),
(715,1497,l),
(434,1497,l),
(366,1287,l),
(297,1497,l)
);
}
);
width = 727;
}
);
unicode = 711;
},
{
glyphname = caronmod.alt;
layers = (
{
anchors = (
{
name = _horn;
pos = (-347,1544);
}
);
layerId = m000;
shapes = (
{
closed = 1;
nodes = (
(-228,1638,l),
(-327,1121,l),
(-1,955,l),
(226,1638,l)
);
}
);
}
);
unicode = 57507;
},
{
glyphname = cedilla;
layers = (
{
layerId = m000;
shapes = (
{
closed = 1;
nodes = (
(583,-261,qs),
(583,-156,o),
(440,-48,o),
(304,-48,q),
(304,1,l),
(148,1,l),
(148,-227,l),
(166,-225,o),
(201,-222,o),
(219,-222,qs),
(285,-222,o),
(353,-247,o),
(353,-270,qs),
(353,-310,o),
(254,-310,qs),
(217,-310,o),
(135,-294,o),
(106,-283,q),
(29,-466,l),
(78,-493,o),
(188,-514,o),
(251,-514,qs),
(403,-514,o),
(583,-379,o)
);
}
);
width = 611;
}
);
unicode = 184;
},
{
glyphname = cedilla.rotated;
layers = (
{
layerId = m000;
shapes = (
{
closed = 1;
nodes = (
(508,-178,l),
(607,335,l),
(294,492,l),
(73,-178,l)
);
}
);
width = 752;
}
);
unicode = 57371;
},
{
glyphname = circumflexmod;
layers = (
{
layerId = m000;
shapes = (
{
closed = 1;
nodes = (
(715,1138,l),
(617,1497,l),
(115,1497,l),
(16,1138,l),
(297,1138,l),
(366,1343,l),
(435,1138,l)
);
}
);
width = 727;
}
);
unicode = 710;
},
{
glyphname = comma;
layers = (
{
layerId = m000;
shapes = (
{
closed = 1;
nodes = (
(172,492,l),
(73,-18,l),
(386,-178,l),
(607,492,l)
);
}
);
width = 752;
}
);
unicode = 44;
},
{
glyphname = copyright;
layers = (
{
layerId = m000;
shapes = (
{
closed = 1;
nodes = (
(439,709,qs),
(439,796,o),
(507,943,o),
(620,1050,o),
(758,1110,o),
(828,1110,qs),
(898,1110,o),
(1037,1050,o),
(1150,943,o),
(1218,796,o),
(1218,709,qs),
(1218,622,o),
(1150,474,o),
(1037,364,o),
(898,305,o),
(828,305,qs),
(758,305,o),
(620,364,o),
(507,474,o),
(439,622,o)
);
},
{
closed = 1;
nodes = (
(95,709,qs),
(95,565,o),
(211,304,o),
(414,103,o),
(678,-13,o),
(828,-13,qs),
(978,-13,o),
(1241,103,o),
(1445,304,o),
(1561,565,o),
(1561,709,qs),
(1561,854,o),
(1445,1112,o),
(1241,1311,o),
(976,1425,o),
(828,1425,qs),
(679,1425,o),
(414,1311,o),
(211,1112,o),
(95,854,o)
);
},
{
closed = 1;
nodes = (
(1082,911,l),
(1029,980,o),
(909,1051,o),
(819,1051,qs),
(719,1051,o),
(575,951,o),
(496,794,o),
(496,708,qs),
(496,622,o),
(575,463,o),
(719,364,o),
(819,364,qs),
(909,364,o),
(1029,434,o),
(1082,502,q),
(964,605,l),
(937,566,o),
(863,536,o),
(835,536,qs),
(797,536,o),
(733,577,o),
(695,654,o),
(695,708,qs),
(695,762,o),
(733,837,o),
(797,877,o),
(835,877,qs),
(863,877,o),
(937,847,o),
(964,807,q)
);
}
);
width = 1651;
}
);
unicode = 169;
},
{
glyphname = d;
layers = (
{
anchors = (
{
name = top;
pos = (475,1379);
},
{
name = horn;
pos = (968,1417);
},
{
name = bottom;
pos = (475,-10);
}
);
layerId = m000;
shapes = (
{
closed = 1;
nodes = (
(1251,1641,l),
(746,1641,l),
(746,348,l),
(746,136,o),
(747,62,o),
(747,0,q),
(1251,0,l),
(1252,275,o),
(1251,305,o),
(1251,341,qs)
);
},
{
closed = 1;
nodes = (
(31,592,qs),
(31,441,o),
(103,165,o),
(274,0,o),
(424,0,qs),
(576,0,o),
(777,0,o),
(841,-1,q),
(845,375,l),
(704,375,o),
(645,376,o),
(618,376,qs),
(589,376,o),
(532,482,o),
(532,592,qs),
(532,702,o),
(589,808,o),
(618,808,qs),
(645,808,o),
(704,806,o),
(781,789,q),
(898,1076,l),
(777,1171,o),
(576,1193,o),
(424,1193,qs),
(274,1193,o),
(103,1019,o),
(31,744,o)
);
}
);
width = 1333;
}
);
unicode = 100;
},
{
glyphname = degree;
layers = (
{
layerId = m000;
shapes = (
{
closed = 1;
nodes = (
(452,1438,qs),
(452,1388,o),
(381,1320,o),
(329,1320,qs),
(279,1320,o),
(215,1388,o),
(215,1438,qs),
(215,1491,o),
(279,1556,o),
(329,1556,qs),
(381,1556,o),
(452,1491,o)
);
},
{
closed = 1;
nodes = (
(634,1438,qs),
(634,1522,o),
(552,1658,o),
(413,1738,o),
(329,1738,qs),
(246,1738,o),
(109,1658,o),
(28,1522,o),
(28,1438,qs),
(28,1355,o),
(109,1219,o),
(246,1138,o),
(329,1138,qs),
(413,1138,o),
(552,1219,o),
(634,1355,o)
);
}
);
width = 659;
}
);
unicode = 176;
},
{
glyphname = dieresis;
layers = (
{
layerId = m000;
shapes = (
{
closed = 1;
nodes = (
(29,1315,qs),
(29,1242,o),
(139,1138,o),
(210,1138,qs),
(283,1138,o),
(390,1242,o),
(390,1315,qs),
(390,1387,o),
(283,1487,o),
(210,1487,qs),
(139,1487,o),
(29,1387,o)
);
},
{
closed = 1;
nodes = (
(467,1315,qs),
(467,1242,o),
(578,1138,o),
(650,1138,qs),
(721,1138,o),
(830,1242,o),
(830,1315,qs),
(830,1387,o),
(721,1487,o),
(650,1487,qs),
(578,1487,o),
(467,1387,o)
);
}
);
width = 856;
}
);
unicode = 168;
},
{
glyphname = dollar.alt;
layers = (
{
layerId = m000;
shapes = (
{
closed = 1;
nodes = (
(777,224,l),
(584,224,l),
(584,-165,l),
(777,-165,l)
);
},
{
closed = 1;
nodes = (
(584,1388,l),
(777,1388,l),
(777,1734,l),
(584,1734,l)
);
},
{
closed = 1;
nodes = (
(68,555,l),
(68,366,o),
(206,115,o),
(476,-11,o),
(673,-11,qs),
(862,-11,o),
(1150,112,o),
(1311,335,o),
(1311,486,qs),
(1311,605,o),
(1198,785,o),
(966,926,o),
(788,987,qs),
(727,1007,o),
(644,1041,o),
(602,1082,o),
(602,1107,qs),
(602,1125,o),
(622,1146,o),
(660,1154,o),
(690,1154,qs),
(735,1154,o),
(789,1139,o),
(811,1093,o),
(811,1051,q),
(1302,1051,l),
(1302,1218,o),
(1160,1452,o),
(893,1574,o),
(705,1574,qs),
(525,1574,o),
(256,1457,o),
(108,1242,o),
(108,1097,qs),
(108,973,o),
(229,781,o),
(475,629,o),
(661,560,q),
(713,543,o),
(784,514,o),
(818,483,o),
(818,464,qs),
(818,434,o),
(758,408,o),
(711,408,qs),
(655,408,o),
(588,430,o),
(560,494,o),
(560,555,q)
);
}
);
width = 1378;
}
);
},
{
glyphname = dotaccentmod;
layers = (
{
layerId = m000;
shapes = (
{
closed = 1;
nodes = (
(29,1297,qs),
(29,1233,o),
(130,1138,o),
(194,1138,qs),
(260,1138,o),
(355,1233,o),
(355,1297,qs),
(355,1364,o),
(260,1451,o),
(194,1451,qs),
(130,1451,o),
(29,1364,o)
);
}
);
width = 383;
}
);
unicode = 729;
},
{
glyphname = idotless;
layers = (
{
anchors = (
{
name = top;
pos = (256,1044);
},
{
name = bottom;
pos = (256,0);
},
{
name = ogonek;
pos = (256,0);
}
);
layerId = m000;
shapes = (
{
closed = 1;
nodes = (
(65,1184,l),
(65,0,l),
(572,0,l),
(572,1184,l)
);
}
);
width = 633;
}
);
unicode = 305;
},
{
glyphname = e;
layers = (
{
anchors = (
{
name = top;
pos = (553,1054);
},
{
name = bottom;
pos = (561,-11);
},
{
name = ogonek;
pos = (561,-11);
}
);
layerId = m000;
shapes = (
{
closed = 1;
nodes = (
(523,448,q),
(1292,448,l),
(1309,687,o),
(1192,1021,o),
(929,1195,o),
(661,1195,qs),
(355,1195,o),
(49,867,o),
(49,591,qs),
(49,314,o),
(346,-31,o),
(662,-31,qs),
(863,-31,o),
(1103,19,o),
(1223,92,o),
(1248,111,q),
(1160,396,l),
(801,339,o),
(719,336,o),
(672,336,qs),
(611,336,o),
(532,376,o)
);
},
{
closed = 1;
nodes = (
(529,687,l),
(524,758,o),
(596,838,o),
(665,838,qs),
(711,838,o),
(786,808,o),
(821,744,o),
(817,687,q)
);
}
);
width = 1337;
}
);
unicode = 101;
},
{
glyphname = eight;
layers = (
{
layerId = m000;
shapes = (
{
closed = 1;
nodes = (
(785,966,q),
(795,966,l),
(827,656,o),
(901,365,o),
(989,188,o),
(1097,19,o),
(1162,-69,q),
(1549,227,l),
(1422,393,o),
(1232,673,o),
(1108,963,o),
(1046,1327,o),
(1026,1578,q),
(554,1578,l),
(534,1327,o),
(471,963,o),
(347,673,o),
(156,393,o),
(30,227,q),
(418,-69,l),
(483,19,o),
(589,188,o),
(678,365,o),
(752,656,o)
);
}
);
width = 1579;
}
);
unicode = 56;
},
{
glyphname = emdash;
layers = (
{
layerId = m000;
shapes = (
{
closed = 1;
nodes = (
(2002,849,l),
(46,849,l),
(46,497,l),
(2002,497,l)
);
}
);
width = 2048;
}
);
unicode = 8212;
},
{
glyphname = eth;
layers = (
{
layerId = m000;
shapes = (
{
closed = 1;
nodes = (
(623,812,qs),
(643,812,o),
(682,777,o),
(706,682,o),
(706,591,qs),
(706,503,o),
(682,406,o),
(643,371,o),
(623,371,qs),
(602,371,o),
(571,406,o),
(552,503,o),
(552,591,qs),
(552,682,o),
(571,777,o),
(604,812,o)
);
},
{
closed = 1;
nodes = (
(570,1192,qs),
(442,1192,o),
(204,1065,o),
(49,799,o),
(49,591,qs),
(49,424,o),
(172,150,o),
(428,-11,o),
(629,-11,qs),
(933,-11,o),
(1210,342,o),
(1210,700,qs),
(1210,859,o),
(1150,1134,o),
(996,1399,o),
(853,1548,q),
(923,1599,l),
(784,1771,l),
(690,1690,l),
(621,1743,o),
(418,1843,o),
(327,1853,q),
(241,1535,l),
(288,1534,o),
(409,1502,o),
(444,1487,q),
(372,1434,l),
(514,1269,l),
(602,1348,l),
(616,1342,o),
(679,1285,o),
(745,1221,o),
(758,1203,q),
(751,1196,l),
(698,1187,o),
(608,1192,o)
);
}
);
width = 1256;
}
);
unicode = 240;
},
{
glyphname = exclam;
layers = (
{
layerId = m000;
shapes = (
{
closed = 1;
nodes = (
(560,600,l),
(621,1564,l),
(80,1564,l),
(145,600,l)
);
},
{
closed = 1;
nodes = (
(100,0,l),
(600,0,l),
(600,450,l),
(100,450,l)
);
}
);
width = 700;
}
);
unicode = 33;
},
{
glyphname = exclamdown;
layers = (
{
layerId = m000;
shapes = (
{
closed = 1;
nodes = (
(128,340,l),
(77,-662,l),
(578,-662,l),
(524,340,l)
);
},
{
closed = 1;
nodes = (
(550,691,qs),
(550,783,o),
(417,913,o),
(325,913,qs),
(236,913,o),
(98,783,o),
(98,691,qs),
(98,600,o),
(236,476,o),
(325,476,qs),
(417,476,o),
(550,600,o)
);
}
);
width = 656;
}
);
unicode = 161;
},
{
glyphname = f;
layers = (
{
anchors = (
{
name = top;
pos = (539,1467);
},
{
name = bottom;
pos = (329,0);
}
);
layerId = m000;
shapes = (
{
closed = 1;
nodes = (
(855,1557,l),
(777,1579,o),
(609,1611,o),
(529,1611,qs),
(419,1611,o),
(229,1542,o),
(113,1388,o),
(113,1260,qs),
(113,0,l),
(619,0,l),
(619,1198,l),
(619,1226,o),
(660,1252,o),
(690,1252,qs),
(706,1252,o),
(771,1248,o),
(798,1247,q)
);
},
{
closed = 1;
nodes = (
(-25,710,l),
(812,710,l),
(812,992,l),
(-25,992,l)
);
}
);
width = 830;
}
);
unicode = 102;
},
{
glyphname = figuredash;
layers = (
{
layerId = m000;
shapes = (
{
closed = 1;
nodes = (
(1541,849,l),
(29,849,l),
(29,497,l),
(1541,497,l)
);
}
);
width = 1570;
}
);
unicode = 8210;
},
{
glyphname = blacksquare;
layers = (
{
layerId = m000;
shapes = (
{
closed = 1;
nodes = (
(133,866,l),
(133,0,l),
(996,0,l),
(996,866,l)
);
}
);
width = 1124;
}
);
unicode = 9632;
},
{
glyphname = five;
layers = (
{
layerId = m000;
shapes = (
{
closed = 1;
nodes = (
(535,617,l),
(536,624,l),
(537,526,o),
(494,444,o),
(465,444,qs),
(434,444,o),
(330,466,o),
(330,498,qs),
(330,565,o),
(437,690,o),
(594,819,o),
(698,886,q),
(800,779,o),
(997,542,o),
(997,467,q),
(974,444,o),
(868,444,qs),
(788,444,o),
(791,624,q),
(791,617,l)
);
},
{
closed = 1;
nodes = (
(689,245,q),
(699,245,l),
(739,106,o),
(851,-14,o),
(950,-14,qs),
(1125,-14,o),
(1316,287,o),
(1316,560,qs),
(1316,719,o),
(1127,1081,o),
(786,1436,o),
(561,1582,q),
(297,1212,l),
(361,1159,o),
(409,1118,o),
(413,1110,q),
(303,1024,o),
(134,790,o),
(40,533,o),
(40,410,qs),
(40,222,o),
(246,-14,o),
(412,-14,qs),
(524,-14,o),
(639,101,o)
);
}
);
width = 1356;
}
);
unicode = 53;
},
{
glyphname = fiveeighths;
layers = (
{
layerId = m000;
shapes = (
{
closed = 1;
nodes = (
(145,1645,l),
(100,1117,l),
(415,1117,l),
(417,1130,o),
(430,1147,o),
(445,1147,qs),
(458,1147,o),
(482,1126,o),
(482,1101,qs),
(482,1074,o),
(461,1055,o),
(453,1055,qs),
(439,1055,o),
(425,1067,o),
(417,1069,q),
(100,1069,l),
(100,930,o),
(271,793,o),
(436,793,qs),
(614,793,o),
(803,943,o),
(803,1091,qs),
(803,1224,o),
(648,1400,o),
(536,1400,qs),
(482,1400,o),
(424,1379,o),
(384,1342,q),
(372,1342,l),
(380,1412,l),
(773,1412,l),
(773,1645,l)
);
},
{
closed = 1;
nodes = (
(1426,799,qs),
(1282,799,o),
(1107,665,o),
(1107,562,qs),
(1107,497,o),
(1159,411,o),
(1218,399,q),
(1218,388,l),
(1151,362,o),
(1090,265,o),
(1090,187,qs),
(1090,83,o),
(1257,-59,o),
(1426,-59,qs),
(1600,-59,o),
(1763,80,o),
(1763,187,qs),
(1763,266,o),
(1701,365,o),
(1635,390,q),
(1635,400,l),
(1696,413,o),
(1747,498,o),
(1747,563,qs),
(1747,663,o),
(1570,799,o)
);
},
{
closed = 1;
nodes = (
(1425,565,qs),
(1437,565,o),
(1456,551,o),
(1456,533,qs),
(1456,516,o),
(1437,502,o),
(1425,502,qs),
(1415,502,o),
(1395,516,o),
(1395,533,qs),
(1395,551,o),
(1414,565,o)
);
},
{
closed = 1;
nodes = (
(1424,268,qs),
(1439,268,o),
(1460,253,o),
(1460,233,qs),
(1460,213,o),
(1436,194,o),
(1424,194,qs),
(1412,194,o),
(1388,213,o),
(1388,233,qs),
(1388,253,o),
(1410,268,o)
);
},
{
closed = 1;
nodes = (
(590,200,l),
(1454,1364,l),
(1239,1364,l),
(376,200,l)
);
}
);
width = 1864;
}
);
unicode = 8541;
},
{
glyphname = fontamin.com;
layers = (
{
layerId = m000;
shapes = (
{
closed = 1;
nodes = (
(1696,766,qs),
(1696,563,o),
(1621,310,o),
(1536,238,qs),
(1451,166,o),
(1161,107,o),
(940,107,qs),
(797,107,o),
(552,145,o),
(368,245,o),
(265,428,o),
(265,572,q),
(200,572,l),
(200,414,o),
(314,208,o),
(517,90,o),
(786,41,o),
(940,41,qs),
(1164,41,o),
(1478,104,o),
(1578,189,qs),
(1679,274,o),
(1761,557,o),
(1761,766,qs),
(1761,1065,o),
(1596,1495,o),
(1396,1614,q),
(1363,1559,l),
(1548,1449,o),
(1696,1045,o)
);
},
{
closed = 1;
nodes = (
(1097,1549,q),
(1073,1597,l),
(1024,1602,o),
(931,1607,o),
(889,1607,qs),
(635,1607,o),
(350,1450,o),
(234,1170,o),
(234,984,qs),
(234,976,l),
(463,925,l),
(450,871,o),
(435,762,o),
(435,702,qs),
(435,629,o),
(524,537,o),
(670,489,o),
(842,471,o),
(926,471,qs),
(1086,471,o),
(1363,492,o),
(1489,517,q),
(1474,665,l),
(1423,643,o),
(1258,616,o),
(1193,616,qs),
(1097,616,o),
(952,682,o),
(871,841,o),
(871,979,qs),
(871,1159,o),
(984,1467,o)
);
},
{
closed = 1;
nodes = (
(1218,1255,qs),
(1154,1255,o),
(1090,1143,o),
(1090,1066,qs),
(1090,968,o),
(1233,968,qs),
(1312,968,o),
(1421,995,q),
(1421,1060,o),
(1367,1179,o),
(1276,1255,o)
);
}
);
width = 1961;
}
);
unicode = 63743;
},
{
glyphname = four;
layers = (
{
layerId = m000;
shapes = (
{
closed = 1;
nodes = (
(567,1227,q),
(557,1227,l),
(547,1384,o),
(539,1465,o),
(528,1531,o),
(512,1584,q),
(40,1439,l),
(123,1190,o),
(228,726,o),
(280,258,o),
(282,0,q),
(760,0,l),
(760,76,o),
(761,173,o),
(763,267,o),
(759,398,o),
(753,506,q),
(762,510,l),
(852,495,o),
(981,495,o),
(1059,495,qs),
(1110,495,o),
(1251,513,o),
(1333,528,q),
(1241,970,l),
(1189,965,o),
(1087,960,o),
(1037,960,qs),
(927,960,o),
(695,1035,o),
(712,1096,qs),
(717,1114,o),
(952,1156,o),
(1028,1156,qs),
(1130,1156,o),
(1240,1115,q),
(1370,1538,l),
(1202,1601,o),
(1077,1601,qs),
(900,1601,o),
(666,1474,o)
);
}
);
width = 1370;
}
);
unicode = 52;
},
{
glyphname = four.SC;
layers = (
{
layerId = m000;
shapes = (
{
closed = 1;
nodes = (
(522,548,l),
(364,548,l),
(522,734,l)
);
},
{
closed = 1;
nodes = (
(522,198,l),
(522,0,l),
(911,0,l),
(911,198,l),
(1090,198,l),
(1090,548,l),
(911,548,l),
(911,1184,l),
(581,1184,l),
(59,527,l),
(59,198,l)
);
}
);
width = 1180;
}
);
},
{
glyphname = fraction;
layers = (
{
layerId = m000;
shapes = (
{
closed = 1;
nodes = (
(96,-174,l),
(1102,1141,l),
(870,1318,l),
(-136,1,l)
);
}
);
width = 1182;
}
);
unicode = 8260;
},
{
glyphname = g;
layers = (
{
anchors = (
{
name = top;
pos = (475,1054);
},
{
name = bottom;
pos = (540,-481);
}
);
layerId = m000;
shapes = (
{
closed = 1;
nodes = (
(667,-466,qs),
(874,-466,o),
(1138,-360,o),
(1264,-167,o),
(1264,-36,qs),
(1264,1184,l),
(760,1184,l),
(760,-36,l),
(760,-67,o),
(721,-91,o),
(640,-91,qs),
(556,-91,o),
(405,-77,o),
(170,-41,q),
(93,-366,l),
(181,-417,o),
(322,-462,o),
(487,-466,o)
);
},
{
closed = 1;
nodes = (
(30,592,qs),
(30,441,o),
(103,165,o),
(274,-10,o),
(424,-10,qs),
(576,-10,o),
(777,0,o),
(898,-1,q),
(781,375,l),
(704,375,o),
(645,376,o),
(618,376,qs),
(588,376,o),
(532,482,o),
(532,592,qs),
(532,702,o),
(588,808,o),
(618,808,qs),
(645,808,o),
(704,806,o),
(781,789,q),
(898,1076,l),
(777,1151,o),
(576,1193,o),
(424,1193,qs),
(274,1193,o),
(103,1019,o),
(30,744,o)
);
}
);
width = 1361;
}
);
unicode = 103;
},
{
glyphname = grave;
layers = (
{
layerId = m000;
shapes = (
{
closed = 1;
nodes = (
(418,1138,l),
(317,1497,l),
(43,1497,l),
(193,1138,l)
);
}
);
width = 460;
}
);
unicode = 96;
},
{
glyphname = greater;
layers = (
{
layerId = m000;
shapes = (
{
closed = 1;
nodes = (
(209,255,l),
(786,799,l),
(209,1344,l),
(21,1149,l),
(405,799,l),
(21,449,l)
);
}
);
width = 803;
}
);
unicode = 62;
},
{
glyphname = guillemetleft;
layers = (
{
layerId = m000;
shapes = (
{
closed = 1;
nodes = (
(474,810,qs),
(474,645,o),
(638,378,o),
(771,269,q),
(975,509,l),
(921,557,o),
(842,648,o),
(798,747,o),
(798,810,qs),
(798,871,o),
(842,973,o),
(921,1064,o),
(975,1112,q),
(771,1349,l),
(638,1241,o),
(474,975,o)
);
},
{
closed = 1;
nodes = (
(21,810,qs),
(21,635,o),
(131,331,o),
(248,186,q),
(513,394,l),
(452,482,o),
(372,692,o),
(372,810,qs),
(372,927,o),
(452,1139,o),
(513,1227,q),
(248,1434,l),
(131,1289,o),
(21,985,o)
);
}
);
width = 991;
}
);
unicode = 171;
},
{
glyphname = guillemetleft.alt;
layers = (
{
layerId = m000;
shapes = (
{
closed = 1;
nodes = (
(597,1344,l),
(21,799,l),
(597,253,l),
(786,449,l),
(400,799,l),
(786,1149,l)
);
},
{
closed = 1;
nodes = (
(1078,1344,l),
(502,799,l),
(1078,253,l),
(1267,449,l),
(881,799,l),
(1267,1149,l)
);
}
);
width = 1284;
}
);
},
{
glyphname = guillemetright;
layers = (
{
layerId = m000;
shapes = (
{
closed = 1;
nodes = (
(520,810,qs),
(520,975,o),
(356,1241,o),
(221,1349,q),
(21,1112,l),
(75,1064,o),
(153,973,o),
(195,871,o),
(195,810,qs),
(195,747,o),
(153,648,o),
(75,557,o),
(21,509,q),
(221,269,l),
(356,378,o),
(520,645,o)
);
},
{
closed = 1;
nodes = (
(975,810,qs),
(975,985,o),
(862,1289,o),
(746,1434,q),
(482,1227,l),
(543,1139,o),
(622,927,o),
(622,810,qs),
(622,692,o),
(543,482,o),
(482,394,q),
(746,186,l),
(862,331,o),
(975,635,o)
);
}
);
width = 991;
}
);
unicode = 187;
},
{
glyphname = guilsinglleft;
layers = (
{
layerId = m000;
shapes = (
{
closed = 1;
nodes = (
(400,799,l),
(599,618,l),
(418,427,l),
(21,799,l),
(418,1173,l),
(599,980,l)
);
}
);
width = 618;
}
);
unicode = 8249;
},
{
glyphname = guilsinglright;
layers = (
{
layerId = m000;
shapes = (
{
closed = 1;
nodes = (
(218,799,l),
(21,980,l),
(201,1173,l),
(599,799,l),
(201,427,l),
(21,618,l)
);
}
);
width = 618;
}
);
unicode = 8250;
},
{
glyphname = h;
layers = (
{
anchors = (
{
name = top;
pos = (702,1191);
},
{
name = bottom;
pos = (582,0);
}
);
layerId = m000;
shapes = (
{
closed = 1;
nodes = (
(579,0,l),
(579,1619,l),
(76,1619,l),
(76,0,l)
);
},
{
closed = 1;
nodes = (
(1313,592,l),
(1319,914,o),
(1068,1194,o),
(920,1194,qs),
(768,1194,o),
(566,1171,o),
(445,1076,q),
(562,789,l),
(639,805,o),
(698,808,o),
(724,808,qs),
(755,808,o),
(811,703,o),
(811,592,qs),
(811,0,l),
(1313,0,l)
);
}
);
width = 1363;
}
);
unicode = 104;
},
{
glyphname = hookcomb;
layers = (
{
anchors = (
{
name = _top;
pos = (0,926);
},
{
name = top;
pos = (0,1559);
}
);
layerId = m000;
shapes = (
{
closed = 1;
nodes = (
(-160,1388,l),
(-89,1408,o),
(-35,1408,qs),
(0,1408,o),
(32,1393,o),
(32,1373,qs),
(32,1358,o),
(15,1313,o),
(-9,1267,qs),
(-79,1132,l),
(-77,1130,l),
(182,1132,l),
(182,1132,l),
(194,1166,l),
(238,1256,o),
(268,1354,o),
(268,1395,qs),
(268,1494,o),
(124,1611,o),
(5,1611,qs),
(-97,1611,o),
(-220,1575,q)
);
}
);
}
);
unicode = 777;
},
{
glyphname = doubleacutemod;
layers = (
{
layerId = m000;
shapes = (
{
closed = 1;
nodes = (
(134,1497,l),
(32,1138,l),
(258,1138,l),
(408,1497,l)
);
},
{
closed = 1;
nodes = (
(517,1497,l),
(416,1138,l),
(643,1138,l),
(791,1497,l)
);
}
);
width = 812;
}
);
unicode = 733;
},
{
glyphname = hyphenminus;
layers = (
{
layerId = m000;
shapes = (
{
closed = 1;
nodes = (
(1048,873,l),
(73,873,l),
(73,521,l),
(1048,521,l)
);
}
);
width = 1119;
}
);
unicode = 45;
},
{
glyphname = i;
layers = (
{
anchors = (
{
name = bottom;
pos = (256,0);
},
{
name = ogonek;
pos = (256,0);
}
);
layerId = m000;
shapes = (
{
closed = 1;
nodes = (
(66,1211,l),
(572,1211,l),
(572,1631,l),
(66,1631,l)
);
},
{
closed = 1;
nodes = (
(65,1084,l),
(65,0,l),
(572,0,l),
(572,1084,l)
);
}
);
width = 633;
}
);
unicode = 105;
},
{
glyphname = j;
layers = (
{
layerId = m000;
shapes = (
{
closed = 1;
nodes = (
(-186,-356,l),
(-110,-383,o),
(65,-421,o),
(153,-421,qs),
(265,-421,o),
(455,-352,o),
(570,-197,o),
(570,-69,qs),
(570,1084,l),
(66,1084,l),
(66,-8,l),
(66,-36,o),
(24,-64,o),
(-7,-64,qs),
(-30,-64,o),
(-93,-55,o),
(-121,-48,q)
);
},
{
closed = 1;
nodes = (
(66,1211,l),
(572,1211,l),
(572,1631,l),
(66,1631,l)
);
}
);
width = 634;
}
);
unicode = 106;
},
{
glyphname = k;
layers = (
{
anchors = (
{
name = top;
pos = (663,1457);
},
{
name = bottom;
pos = (581,0);
}
);
layerId = m000;
shapes = (
{
closed = 1;
nodes = (
(791,1184,l),
(575,761,l),
(598,761,l),
(598,1619,l),
(98,1619,l),
(98,0,l),
(598,0,l),
(598,500,l),
(574,500,l),
(827,0,l),
(1452,0,l),
(1011,657,l),
(1413,1184,l)
);
}
);
width = 1450;
}
);
unicode = 107;
},
{
glyphname = l;
layers = (
{
anchors = (
{
name = top;
pos = (250,1457);
},
{
name = horn;
pos = (342,1457);
},
{
name = bottom;
pos = (250,0);
},
{
name = Anchor_4;
pos = (482,801);
}
);
layerId = m000;
shapes = (
{
closed = 1;
nodes = (
(619,0,l),
(619,1619,l),
(115,1619,l),
(115,0,l)
);
}
);
width = 730;
}
);
unicode = 108;
},
{
glyphname = macron;
layers = (
{
layerId = m000;
shapes = (
{
closed = 1;
nodes = (
(874,1419,l),
(29,1419,l),
(29,1138,l),
(874,1138,l)
);
}
);
width = 901;
}
);
unicode = 175;
},
{
glyphname = minute;
layers = (
{
layerId = m000;
shapes = (
{
closed = 1;
nodes = (
(188,1764,l),
(62,1211,l),
(257,1211,l),
(427,1764,l)
);
}
);
width = 487;
}
);
unicode = 8242;
},
{
glyphname = multiply;
layers = (
{
layerId = m000;
shapes = (
{
closed = 1;
nodes = (
(858,1201,l),
(603,946,l),
(349,1200,l),
(100,949,l),
(355,700,l),
(100,444,l),
(347,195,l),
(603,452,l),
(861,195,l),
(1107,443,l),
(853,700,l),
(1107,953,l)
);
}
);
width = 1205;
}
);
unicode = 215;
},
{
glyphname = n;
layers = (
{
anchors = (
{
name = top;
pos = (702,1054);
},
{
name = bottom;
pos = (579,0);
}
);
layerId = m000;
shapes = (
{
closed = 1;
nodes = (
(579,0,l),
(579,956,l),
(552,1184,l),
(76,1184,l),
(76,0,l)
);
},
{
closed = 1;
nodes = (
(1313,592,l),
(1319,914,o),
(1068,1194,o),
(920,1194,qs),
(768,1194,o),
(566,1151,o),
(445,1076,q),
(562,789,l),
(639,805,o),
(698,808,o),
(724,808,qs),
(755,808,o),
(811,703,o),
(811,592,qs),
(811,0,l),
(1313,0,l)
);
}
);
width = 1383;
}
);
unicode = 110;
},
{
glyphname = nine;
layers = (
{
layerId = m000;
shapes = (
{
closed = 1;
nodes = (
(622,645,q),
(648,390,o),
(669,226,o),
(692,79,o),
(707,-30,q),
(1098,126,l),
(1082,266,o),
(1057,435,o),
(1037,708,o),
(1016,882,qs),
(989,1144,o),
(869,1456,o),
(659,1592,o),
(497,1592,qs),
(369,1592,o),
(167,1439,o),
(50,1149,o),
(50,945,qs),
(50,821,o),
(143,623,o),
(320,509,o),
(446,509,qs),
(535,510,o),
(597,585,o)
);
},
{
closed = 1;
nodes = (
(711,959,l),
(563,963,o),
(501,971,o),
(480,971,qs),
(439,971,o),
(278,984,o),
(278,1008,qs),
(278,1044,o),
(330,1102,o),
(398,1138,o),
(464,1138,qs),
(523,1138,o),
(612,1124,o),
(696,1072,o),
(705,1018,q)
);
}
);
width = 1188;
}
);
unicode = 57;
},
{
glyphname = numbersign;
layers = (
{
layerId = m000;
shapes = (
{
closed = 1;
nodes = (
(1014,878,l),
(962,678,l),
(758,678,l),
(813,878,l)
);
},
{
closed = 1;
nodes = (
(569,5,l),
(665,349,l),
(869,349,l),
(777,5,l),
(1072,5,l),
(1165,349,l),
(1542,349,l),
(1542,678,l),
(1257,678,l),
(1310,878,l),
(1623,878,l),
(1623,1209,l),
(1401,1209,l),
(1492,1528,l),
(1198,1528,l),
(1108,1209,l),
(902,1209,l),
(991,1528,l),
(697,1528,l),
(608,1209,l),
(243,1209,l),
(243,878,l),
(517,878,l),
(462,678,l),
(159,678,l),
(159,349,l),
(370,349,l),
(274,5,l)
);
}
);
width = 1780;
}
);
unicode = 35;
},
{
glyphname = o;
layers = (
{
anchors = (
{
name = top;
pos = (563,1054);
},
{
name = horn;
pos = (711,912);
},
{
name = bottom;
pos = (563,-11);
},
{
name = ogonek;
pos = (563,-11);
}
);
layerId = m000;
shapes = (
{
closed = 1;
nodes = (
(681,812,qs),
(745,812,o),
(809,695,o),
(809,590,qs),
(809,486,o),
(747,371,o),
(681,371,qs),
(615,371,o),
(554,486,o),
(554,590,qs),
(554,695,o),
(618,812,o)
);
},
{
closed = 1;
nodes = (
(681,1195,qs),
(367,1195,o),
(50,876,o),
(50,593,qs),
(50,308,o),
(370,-11,o),
(681,-11,qs),
(992,-11,o),
(1310,308,o),
(1310,593,qs),
(1310,876,o),
(994,1195,o)
);
}
);
width = 1360;
}
);
unicode = 111;
},
{
glyphname = ogonekmod;
layers = (
{
layerId = m000;
shapes = (
{
closed = 1;
nodes = (
(481,-256,l),
(410,-276,o),
(357,-276,qs),
(322,-276,o),
(289,-259,o),
(289,-241,qs),
(289,-226,o),
(306,-181,o),
(329,-135,qs),
(399,0,l),
(397,2,l),
(140,0,l),
(140,0,l),
(128,-34,l),
(85,-124,o),
(54,-221,o),
(54,-262,qs),
(54,-361,o),
(197,-479,o),
(316,-479,qs),
(420,-479,o),
(542,-443,q)
);
}
);
width = 640;
}
);
unicode = 731;
},
{
glyphname = one;
layers = (
{
layerId = m000;
shapes = (
{
closed = 1;
nodes = (
(768,0,l),
(765,241,o),
(725,650,o),
(651,1022,o),
(547,1387,o),
(481,1583,q),
(30,1425,l),
(91,1243,o),
(186,917,o),
(250,587,o),
(288,222,o),
(290,0,q)
);
}
);
width = 798;
}
);
unicode = 49;
},
{
glyphname = one.SC;
layers = (
{
layerId = m000;
shapes = (
{
closed = 1;
nodes = (
(410,671,l),
(410,0,l),
(799,0,l),
(799,1184,l),
(410,1184,l),
(410,1081,o),
(359,971,o),
(216,931,o),
(78,931,q),
(78,596,l),
(195,596,o),
(367,634,o),
(400,671,q)
);
}
);
width = 880;
}
);
},
{
glyphname = oneeighth;
layers = (
{
layerId = m000;
shapes = (
{
closed = 1;
nodes = (
(1352,799,qs),
(1207,799,o),
(1032,665,o),
(1032,562,qs),
(1032,497,o),
(1084,411,o),
(1144,399,q),
(1144,388,l),
(1076,362,o),
(1016,265,o),
(1016,187,qs),
(1016,83,o),
(1183,-59,o),
(1352,-59,qs),
(1526,-59,o),
(1688,80,o),
(1688,187,qs),
(1688,266,o),
(1626,365,o),
(1561,390,q),
(1561,400,l),
(1621,413,o),
(1672,498,o),
(1672,563,qs),
(1672,663,o),
(1495,799,o)
);
},
{
closed = 1;
nodes = (
(1351,565,qs),
(1362,565,o),
(1381,551,o),
(1381,533,qs),
(1381,516,o),
(1362,502,o),
(1351,502,qs),
(1340,502,o),
(1320,516,o),
(1320,533,qs),
(1320,551,o),
(1339,565,o)
);
},
{
closed = 1;
nodes = (
(1350,268,qs),
(1364,268,o),
(1385,253,o),
(1385,233,qs),
(1385,213,o),
(1361,194,o),
(1350,194,qs),
(1337,194,o),
(1313,213,o),
(1313,233,qs),
(1313,253,o),
(1336,268,o)
);
},
{
closed = 1;
nodes = (
(113,1257,l),
(339,1257,l),
(339,797,l),
(612,797,l),
(612,1645,l),
(339,1645,l),
(339,1484,l),
(113,1484,l)
);
},
{
closed = 1;
nodes = (
(516,200,l),
(1382,1364,l),
(1166,1364,l),
(303,200,l)
);
}
);
width = 1789;
}
);
unicode = 8539;
},
{
glyphname = onehalf;
layers = (
{
layerId = m000;
shapes = (
{
closed = 1;
nodes = (
(1062,-48,l),
(1698,-48,l),
(1698,192,l),
(1433,192,l),
(1433,202,l),
(1518,248,l),
(1613,311,o),
(1710,449,o),
(1710,519,qs),
(1710,599,o),
(1619,729,o),
(1467,806,o),
(1374,806,qs),
(1228,806,o),
(1047,617,o),
(1047,466,q),
(1305,466,l),
(1305,509,o),
(1340,550,o),
(1378,550,qs),
(1411,550,o),
(1451,508,o),
(1451,476,qs),
(1451,463,o),
(1429,441,o),
(1396,417,qs),
(1062,189,l)
);
},
{
closed = 1;
nodes = (
(113,1257,l),
(339,1257,l),
(339,797,l),
(612,797,l),
(612,1645,l),
(339,1645,l),
(339,1484,l),
(113,1484,l)
);
},
{
closed = 1;
nodes = (
(518,200,l),
(1383,1364,l),
(1167,1364,l),
(305,200,l)
);
}
);
width = 1803;
}
);
unicode = 189;
},
{
glyphname = onequarter;
layers = (
{
layerId = m000;
shapes = (
{
closed = 1;
nodes = (
(1262,306,l),
(1148,306,l),
(1262,412,l)
);
},
{
closed = 1;
nodes = (
(1262,87,l),
(1262,-49,l),
(1562,-49,l),
(1562,87,l),
(1647,87,l),
(1647,306,l),
(1562,306,l),
(1562,798,l),
(1300,798,l),
(902,303,l),
(902,87,l)
);
},
{
closed = 1;
nodes = (
(113,1257,l),
(339,1257,l),
(339,797,l),
(612,797,l),
(612,1645,l),
(339,1645,l),
(339,1484,l),
(113,1484,l)
);
},
{
closed = 1;
nodes = (
(518,200,l),
(1383,1364,l),
(1167,1364,l),
(305,200,l)
);
}
);
width = 1746;
}
);
unicode = 188;
},
{
glyphname = onethird;
layers = (
{
layerId = m000;
shapes = (
{
closed = 1;
nodes = (
(1356,799,qs),
(1219,799,o),
(1045,639,o),
(1045,493,q),
(1296,493,l),
(1296,512,o),
(1315,536,o),
(1333,536,qs),
(1354,536,o),
(1375,513,o),
(1375,495,qs),
(1375,477,o),
(1350,468,o),
(1316,468,qs),
(1248,468,l),
(1248,270,l),
(1316,270,l),
(1407,270,o),
(1407,226,qs),
(1407,189,o),
(1362,189,qs),
(1337,189,o),
(1310,218,o),
(1310,241,q),
(1026,241,l),
(1026,94,o),
(1193,-59,o),
(1354,-59,qs),
(1508,-59,o),
(1685,78,o),
(1685,190,qs),
(1685,258,o),
(1608,353,o),
(1552,369,q),
(1552,380,l),
(1603,396,o),
(1671,471,o),
(1671,535,qs),
(1671,644,o),
(1498,799,o)
);
},
{
closed = 1;
nodes = (
(113,1257,l),
(339,1257,l),
(339,797,l),
(612,797,l),
(612,1645,l),
(339,1645,l),
(339,1484,l),
(113,1484,l)
);
},
{
closed = 1;
nodes = (
(515,200,l),
(1381,1364,l),
(1165,1364,l),
(302,200,l)
);
}
);
width = 1783;
}
);
unicode = 8531;
},
{
glyphname = ordfeminine;
layers = (
{
layerId = m000;
shapes = (
{
closed = 1;
nodes = (
(418,1565,l),
(349,1565,l),
(280,1565,o),
(146,1512,o),
(58,1403,o),
(58,1322,qs),
(58,1230,o),
(166,1128,o),
(255,1128,qs),
(324,1128,o),
(415,1172,o),
(445,1221,q),
(483,1149,o),
(654,1110,o),
(752,1131,q),
(752,1302,l),
(734,1302,o),
(719,1320,o),
(719,1337,qs),
(719,1596,l),
(719,1705,o),
(571,1859,o),
(386,1859,qs),
(208,1859,o),
(58,1711,o),
(69,1596,q),
(320,1596,l),
(320,1615,o),
(336,1641,o),
(369,1641,qs),
(405,1641,o),
(418,1614,o),
(418,1596,qs)
);
},
{
closed = 1;
nodes = (
(418,1401,l),
(418,1350,l),
(407,1340,o),
(381,1334,o),
(357,1333,o),
(348,1333,qs),
(331,1333,o),
(318,1348,o),
(318,1353,qs),
(318,1374,o),
(370,1401,o),
(401,1401,qs)
);
}
);
width = 749;
}
);
unicode = 170;
},
{
glyphname = p;
layers = (
{
anchors = (
{
name = top;
pos = (647,1054);
},
{
name = bottom;
pos = (647,-10);
}
);
layerId = m000;
shapes = (
{
closed = 1;
nodes = (
(98,1184,l),
(98,-413,l),
(601,-413,l),
(601,1184,l)
);
},
{
closed = 1;
nodes = (
(1317,592,qs),
(1317,745,o),
(1244,1020,o),
(1072,1193,o),
(924,1193,qs),
(772,1193,o),
(570,1152,o),
(449,1076,q),
(565,789,l),
(644,806,o),
(702,809,o),
(728,809,qs),
(759,809,o),
(815,703,o),
(815,592,qs),
(815,482,o),
(759,376,o),
(728,376,qs),
(702,376,o),
(644,375,o),
(565,375,q),
(449,0,l),
(570,0,o),
(772,0,o),
(924,0,qs),
(1072,0,o),
(1244,165,o),
(1317,442,o)
);
}
);
width = 1367;
}
);
unicode = 112;
},
{
glyphname = paragraph;
layers = (
{
layerId = m000;
shapes = (
{
closed = 1;
nodes = (
(1450,-456,l),
(1450,1565,l),
(666,1565,l),
(479,1565,o),
(225,1381,o),
(96,1083,o),
(96,912,qs),
(96,742,o),
(226,450,o),
(479,269,o),
(666,269,qs),
(669,269,l),
(669,-456,l),
(1021,-456,l),
(1021,1136,l),
(1100,1136,l),
(1100,-456,l)
);
}
);
width = 1537;
}
);
unicode = 182;
},
{
glyphname = parenleft;
layers = (
{
layerId = m000;
shapes = (
{
closed = 1;
nodes = (
(387,1696,l),
(220,1394,o),
(46,851,o),
(46,553,qs),
(46,252,o),
(220,-289,o),
(387,-593,q),
(702,-419,l),
(611,-238,o),
(505,272,o),
(505,553,qs),
(505,834,o),
(611,1343,o),
(702,1524,q)
);
}
);
width = 706;
}
);
unicode = 40;
},
{
glyphname = parenright;
layers = (
{
layerId = m000;
shapes = (
{
closed = 1;
nodes = (
(323,-593,l),
(489,-290,o),
(666,253,o),
(666,551,qs),
(666,851,o),
(489,1393,o),
(323,1696,q),
(9,1523,l),
(99,1343,o),
(205,832,o),
(205,551,qs),
(205,269,o),
(99,-239,o),
(9,-420,q)
);
}
);
width = 706;
}
);
unicode = 41;
},
{
glyphname = period;
layers = (
{
layerId = m000;
shapes = (
{
closed = 1;
nodes = (
(140,0,l),
(540,0,l),
(540,400,l),
(140,400,l)
);
}
);
width = 680;
}
);
unicode = 46;
},
{
glyphname = periodcentered;
layers = (
{
layerId = m000;
shapes = (
{
closed = 1;
nodes = (
(78,786,qs),
(78,695,o),
(217,564,o),
(305,564,qs),
(394,564,o),
(530,695,o),
(530,786,qs),
(530,878,o),
(394,1002,o),
(305,1002,qs),
(217,1002,o),
(78,878,o)
);
}
);
width = 607;
}
);
unicode = 183;
},
{
glyphname = periodcentered.combining;
layers = (
{
anchors = (
{
name = _Anchor_4;
pos = (0,573);
}
);
layerId = m000;
shapes = (
{
closed = 1;
nodes = (
(-233,793,qs),
(-233,700,o),
(-93,563,o),
(0,563,qs),
(93,563,o),
(233,700,o),
(233,793,qs),
(233,887,o),
(93,1014,o),
(0,1014,qs),
(-93,1014,o),
(-233,887,o)
);
}
);
}
);
unicode = 57508;
},
{
glyphname = plus;
layers = (
{
layerId = m000;
shapes = (
{
closed = 1;
nodes = (
(1048,873,l),
(736,873,l),
(736,1188,l),
(385,1188,l),
(385,873,l),
(73,873,l),
(73,521,l),
(385,521,l),
(385,211,l),
(736,211,l),
(736,521,l),
(1048,521,l)
);
}
);
width = 1119;
}
);
unicode = 43;
},
{
glyphname = q;
layers = (
{
anchors = (
{
name = top;
pos = (475,1054);
},
{
name = bottom;
pos = (475,-10);
}
);
layerId = m000;
shapes = (
{
closed = 1;
nodes = (
(766,1184,l),
(766,-425,l),
(1271,-425,l),
(1271,1184,l)
);
},
{
closed = 1;
nodes = (
(50,593,qs),
(50,441,o),
(123,165,o),
(294,0,o),
(444,0,qs),
(596,0,o),
(797,0,o),
(918,0,q),
(801,375,l),
(724,375,o),
(665,376,o),
(638,376,qs),
(608,376,o),
(552,483,o),
(552,593,qs),
(552,703,o),
(608,808,o),
(638,808,qs),
(665,808,o),
(724,806,o),
(801,789,q),
(918,1076,l),
(797,1152,o),
(596,1194,o),
(444,1194,qs),
(294,1194,o),
(123,1020,o),
(50,745,o)
);
}
);
width = 1365;
}
);
unicode = 113;
},
{
glyphname = question;
layers = (
{
layerId = m000;
shapes = (
{
closed = 1;
nodes = (
(370,548,q),
(823,548,l),
(823,654,o),
(909,775,o),
(965,827,q),
(1003,865,o),
(1075,950,o),
(1122,1069,o),
(1122,1156,qs),
(1122,1260,o),
(1003,1467,o),
(772,1603,o),
(608,1603,qs),
(469,1603,o),
(230,1488,o),
(87,1279,o),
(87,1142,qs),
(87,1121,o),
(90,1079,o),
(94,1057,q),
(516,1057,l),
(514,1069,o),
(510,1094,o),
(510,1105,qs),
(510,1152,o),
(544,1209,o),
(584,1209,qs),
(634,1209,o),
(668,1154,o),
(668,1119,qs),
(668,1078,o),
(607,994,o),
(563,946,qs),
(520,900,o),
(430,786,o),
(370,643,o)
);
},
{
closed = 1;
nodes = (
(371,0,l),
(819,0,l),
(819,377,l),
(371,377,l)
);
}
);
width = 1204;
}
);
unicode = 63;
},
{
glyphname = questiondown;
layers = (
{
layerId = m000;
shapes = (
{
closed = 1;
nodes = (
(834,375,q),
(381,375,l),
(381,270,o),
(296,148,o),
(240,97,qs),
(202,60,o),
(130,-26,o),
(82,-143,o),
(82,-232,qs),
(82,-337,o),
(201,-543,o),
(433,-680,o),
(596,-680,qs),
(736,-680,o),
(974,-564,o),
(1118,-356,o),
(1118,-218,qs),
(1118,-197,o),
(1116,-154,o),
(1110,-133,q),
(688,-133,l),
(690,-144,o),
(695,-168,o),
(695,-181,qs),
(695,-228,o),
(660,-286,o),
(621,-286,qs),
(571,-286,o),
(537,-231,o),
(537,-195,qs),
(537,-154,o),
(599,-70,o),
(642,-22,qs),
(685,26,o),
(775,137,o),
(834,282,o)
);
},
{
closed = 1;
nodes = (
(839,713,qs),
(839,804,o),
(700,935,o),
(612,935,qs),
(523,935,o),
(386,804,o),
(386,713,qs),
(386,623,o),
(523,498,o),
(612,498,qs),
(700,498,o),
(839,623,o)
);
}
);
width = 1202;
}
);
unicode = 191;
},
{
glyphname = quoteleft;
layers = (
{
layerId = m000;
shapes = (
{
closed = 1;
nodes = (
(520,1632,l),
(88,1632,l),
(308,962,l),
(621,1121,l)
);
}
);
width = 704;
}
);
unicode = 8216;
},
{
glyphname = quoteright;
layers = (
{
layerId = m000;
shapes = (
{
closed = 1;
nodes = (
(186,1632,l),
(88,1121,l),
(401,962,l),
(621,1632,l)
);
}
);
width = 704;
}
);
unicode = 8217;
},
{
glyphname = quotesingle;
layers = (
{
layerId = m000;
shapes = (
{
closed = 1;
nodes = (
(71,1564,l),
(71,1288,l),
(95,1011,l),
(291,1011,l),
(315,1288,l),
(315,1564,l)
);
}
);
width = 384;
}
);
unicode = 39;
},
{
glyphname = r;
layers = (
{
anchors = (
{
name = top;
pos = (508,1050);
},
{
name = bottom;
pos = (244,0);
}
);
layerId = m000;
shapes = (
{
closed = 1;
nodes = (
(98,1184,l),
(98,0,l),
(601,0,l),
(601,1003,l),
(574,1184,l)
);
},
{
closed = 1;
nodes = (
(983,737,q),
(977,1203,l),
(969,1201,o),
(953,1199,o),
(947,1199,qs),
(793,1199,o),
(605,1064,o),
(508,837,o),
(478,555,o),
(482,405,q),
(601,422,l),
(595,533,o),
(677,676,o),
(822,742,o),
(915,742,qs),
(947,742,o)
);
}
);
width = 1000;
}
);
unicode = 114;
},
{
glyphname = registered;
layers = (
{
layerId = m000;
shapes = (
{
closed = 1;
nodes = (
(439,709,qs),
(439,796,o),
(507,943,o),
(620,1050,o),
(758,1110,o),
(828,1110,qs),
(898,1110,o),
(1037,1050,o),
(1150,943,o),
(1218,796,o),
(1218,709,qs),
(1218,622,o),
(1150,474,o),
(1037,364,o),
(898,305,o),
(828,305,qs),
(758,305,o),
(620,364,o),
(507,474,o),
(439,622,o)
);
},
{
closed = 1;
nodes = (
(95,709,qs),
(95,565,o),
(211,304,o),
(414,103,o),
(678,-13,o),
(828,-13,qs),
(978,-13,o),
(1241,103,o),
(1445,304,o),
(1561,565,o),
(1561,709,qs),
(1561,854,o),
(1445,1112,o),
(1241,1311,o),
(976,1425,o),
(828,1425,qs),
(679,1425,o),
(414,1311,o),
(211,1112,o),
(95,854,o)
);
},
{
closed = 1;
nodes = (
(1131,405,l),
(984,585,l),
(1045,618,o),
(1130,729,o),
(1130,802,qs),
(1130,875,o),
(1047,988,o),
(914,1052,o),
(838,1052,qs),
(588,1052,l),
(588,403,l),
(765,403,l),
(765,552,l),
(760,552,l),
(763,552,o),
(765,552,o),
(766,551,q),
(884,405,l)
);
},
{
closed = 1;
nodes = (
(765,725,l),
(765,879,l),
(838,879,l),
(876,879,o),
(928,839,o),
(928,802,qs),
(928,767,o),
(876,725,o),
(838,725,qs)
);
}
);
width = 1651;
}
);
unicode = 174;
},
{
glyphname = ringmod;
layers = (
{
layerId = m000;
shapes = (
{
closed = 1;
nodes = (
(321,1555,qs),
(372,1555,o),
(440,1490,o),
(440,1437,qs),
(440,1387,o),
(372,1320,o),
(321,1320,qs),
(269,1320,o),
(204,1387,o),
(204,1437,qs),
(204,1490,o),
(269,1555,o)
);
},
{
closed = 1;
nodes = (
(320,1737,qs),
(237,1737,o),
(100,1657,o),
(19,1521,o),
(19,1437,qs),
(19,1355,o),
(100,1219,o),
(237,1138,o),
(320,1138,qs),
(403,1138,o),
(541,1219,o),
(623,1355,o),
(623,1437,qs),
(623,1521,o),
(541,1657,o),
(403,1737,o)
);
}
);
width = 637;
}
);
unicode = 730;
},
{
glyphname = s;
layers = (
{
anchors = (
{
name = top;
pos = (506,1054);
},
{
name = bottom;
pos = (498,-10);
}
);
layerId = m000;
shapes = (
{
closed = 1;
nodes = (
(552.215,1195.987,qs),
(313.343,1188.147,o),
(31.387,968.78,o),
(37.128,793.874,qs),
(41.72,653.95,o),
(255.382,484.867,o),
(477.805,445.142,qs),
(576.441,427.368,o),
(652.45,397.846,o),
(653.172,375.857,qs),
(653.762,357.867,o),
(614.145,345.561,o),
(577.164,344.347,qs),
(510.2,342.149,o),
(277.177,369.52,o),
(83.772,409.197,q),
(46.902,38.789,l),
(156.288,8.355,o),
(335.924,-18.417,o),
(572.785,-9.987,qs),
(732.699,-4.739,o),
(973.386,100.213,o),
(1106.735,274.681,o),
(1103.061,386.621,qs),
(1098.6,522.548,o),
(859.722,697.806,o),
(620.21,739.972,qs),
(538.729,753.307,o),
(484.036,773.523,o),
(483.478,790.514,qs),
(482.691,814.501,o),
(527.879,839.997,o),
(566.858,841.277,qs),
(609.835,842.687,o),
(811.448,827.292,o),
(1015.57,765.955,q),
(1061.074,1147.653,l),
(949.347,1167.999,o),
(808.077,1204.385,o)
);
}
);
width = 1145;
}
);
unicode = 115;
},
{
glyphname = section;
layers = (
{
layerId = m000;
shapes = (
{
closed = 1;
nodes = (
(896,583,q),
(896,593,l),
(951,635,o),
(1006,762,o),
(1006,826,qs),
(1006,902,o),
(928,1027,o),
(746,1123,o),
(592,1153,q),
(536,1166,o),
(518,1179,o),
(518,1182,qs),
(518,1187,o),
(526,1192,o),
(555,1195,o),
(588,1195,qs),
(614,1195,o),
(738,1177,o),
(818,1157,q),
(945,1471,l),
(842,1518,o),
(656,1558,o),
(563,1558,qs),
(417,1558,o),
(202,1460,o),
(87,1289,o),
(87,1183,qs),
(87,1119,o),
(148,1004,o),
(217,963,q),
(217,953,l),
(155,916,o),
(109,792,o),
(109,707,qs),
(109,636,o),
(191,516,o),
(366,429,o),
(506,403,q),
(552,396,o),
(590,382,o),
(599,373,o),
(599,371,q),
(599,374,o),
(596,376,o),
(574,377,o),
(546,377,qs),
(473,377,o),
(313,421,o),
(193,479,q),
(30,100,l),
(150,39,o),
(388,-13,o),
(526,-13,qs),
(676,-13,o),
(901,84,o),
(1026,249,o),
(1026,350,qs),
(1026,436,o),
(971,546,o)
);
},
{
closed = 1;
nodes = (
(544,738,q),
(533,736,o),
(521,742,o),
(514,755,o),
(514,758,qs),
(514,766,o),
(525,786,o),
(549,802,o),
(568,801,q),
(578,804,o),
(587,793,o),
(588,777,o),
(588,772,qs),
(588,764,o),
(569,737,o)
);
}
);
width = 1082;
}
);
unicode = 167;
},
{
glyphname = seven;
layers = (
{
layerId = m000;
shapes = (
{
closed = 1;
nodes = (
(793,614,q),
(783,614,l),
(750,923,o),
(678,1214,o),
(589,1390,o),
(483,1561,o),
(417,1648,q),
(30,1350,l),
(156,1185,o),
(347,906,o),
(471,615,o),
(534,252,o),
(554,0,q),
(1026,0,l),
(1046,252,o),
(1108,615,o),
(1232,906,o),
(1422,1185,o),
(1549,1350,q),
(1162,1648,l),
(1097,1561,o),
(990,1390,o),
(900,1214,o),
(826,923,o)
);
}
);
width = 1579;
}
);
unicode = 55;
},
{
glyphname = six;
layers = (
{
layerId = m000;
shapes = (
{
closed = 1;
nodes = (
(454,656,q),
(458,646,l),
(253,470,o),
(143,312,o),
(62,207,q),
(449,-90,l),
(588,102,o),
(776,338,o),
(917,464,o),
(1050,514,o),
(1132,520,qs),
(1154,522,l),
(1114,995,l),
(1093,991,l),
(938,967,o),
(733,949,o),
(675,949,qs),
(535,949,o),
(397,986,o),
(397,1021,qs),
(397,1048,o),
(482,1086,o),
(594,1108,o),
(655,1108,qs),
(727,1108,o),
(870,1070,q),
(1064,1436,l),
(958,1505,o),
(747,1574,o),
(648,1574,qs),
(495,1574,o),
(242,1419,o),
(94,1157,o),
(94,996,qs),
(94,916,o),
(127,777,o),
(223,680,o)
);
}
);
width = 1214;
}
);
unicode = 54;
},
{
glyphname = slash;
layers = (
{
layerId = m000;
shapes = (
{
closed = 1;
nodes = (
(758,1564,l),
(-29,0,l),
(318,0,l),
(1109,1564,l)
);
}
);
width = 1078;
}
);
unicode = 47;
},
{
glyphname = slash.sc;
layers = (
{
layerId = m000;
shapes = (
{
closed = 1;
nodes = (
(473,1184,l),
(-32,0,l),
(581,0,l),
(1087,1184,l)
);
}
);
width = 1052;
}
);
},
{
glyphname = tildemod;
layers = (
{
layerId = m000;
shapes = (
{
closed = 1;
nodes = (
(82,1223,q),
(245,1139,l),
(285,1227,o),
(345,1256,o),
(364,1256,qs),
(381,1256,o),
(427,1232,o),
(447,1218,q),
(521,1173,o),
(609,1138,o),
(670,1138,qs),
(757,1138,o),
(905,1250,o),
(954,1383,q),
(792,1475,l),
(758,1395,o),
(691,1356,o),
(665,1356,qs),
(629,1356,o),
(573,1388,o),
(549,1406,qs),
(506,1437,o),
(428,1475,o),
(363,1475,qs),
(281,1475,o),
(130,1347,o)
);
}
);
width = 1035;
}
);
unicode = 732;
},
{
glyphname = tildecomb;
layers = (
{
anchors = (
{
name = _top;
pos = (0,926);
},
{
name = top;
pos = (0,1358);
}
);
layerId = m000;
shapes = (
{
closed = 1;
nodes = (
(-438,1223,q),
(-274,1139,l),
(-234,1227,o),
(-174,1256,o),
(-155,1256,qs),
(-138,1256,o),
(-92,1232,o),
(-72,1218,q),
(2,1173,o),
(90,1138,o),
(151,1138,qs),
(238,1138,o),
(386,1250,o),
(434,1383,q),
(273,1475,l),
(239,1395,o),
(172,1356,o),
(145,1356,qs),
(110,1356,o),
(54,1388,o),
(29,1406,qs),
(-14,1437,o),
(-91,1475,o),
(-156,1475,qs),
(-238,1475,o),
(-389,1347,o)
);
}
);
}
);
unicode = 771;
},
{
glyphname = u;
layers = (
{
anchors = (
{
name = top;
pos = (583,1044);
},
{
name = horn;
pos = (939,912);
},
{
name = bottom;
pos = (461,-9);
},
{
name = ogonek;
pos = (930,0);
}
);
layerId = m000;
shapes = (
{
closed = 1;
nodes = (
(1260,1184,l),
(755,1184,l),
(755,348,l),
(755,136,o),
(755,27,o),
(755,0,q),
(1259,0,l),
(1259,275,o),
(1260,305,o),
(1260,341,qs)
);
},
{
closed = 1;
nodes = (
(37,512,l),
(37,281,o),
(202,1,o),
(431,1,qs),
(582,1,o),
(784,-1,o),
(905,0,q),
(789,375,l),
(711,375,o),
(652,376,o),
(626,376,qs),
(595,376,o),
(539,483,o),
(539,592,qs),
(539,1184,l),
(37,1184,l)
);
}
);
width = 1341;
}
);
unicode = 117;
},
{
glyphname = leftarrowheadmod;
layers = (
{
layerId = m000;
shapes = (
{
closed = 1;
nodes = (
(372,717,l),
(656,1001,l),
(464,1193,l),
(16,717,l),
(464,241,l),
(656,433,l)
);
}
);
width = 672;
}
);
unicode = 706;
},
{
glyphname = rightarrowheadmod;
layers = (
{
layerId = m000;
shapes = (
{
closed = 1;
nodes = (
(300,717,l),
(16,433,l),
(208,241,l),
(656,717,l),
(208,1193,l),
(16,1001,l)
);
}
);
width = 672;
}
);
unicode = 707;
},
{
glyphname = uparrowheadmod;
layers = (
{
layerId = m000;
shapes = (
{
closed = 1;
nodes = (
(478,681,l),
(762,397,l),
(953,588,l),
(478,1037,l),
(3,588,l),
(194,397,l)
);
}
);
width = 956;
}
);
unicode = 708;
},
{
glyphname = downarrowheadmod;
layers = (
{
layerId = m000;
shapes = (
{
closed = 1;
nodes = (
(478,753,l),
(194,1037,l),
(3,846,l),
(478,397,l),
(953,846,l),
(762,1037,l)
);
}
);
width = 956;
}
);
unicode = 709;
},
{
glyphname = centredrighthalfringmod;
layers = (
{
layerId = m000;
shapes = (
{
closed = 1;
nodes = (
(57,1335,q),
(29,1131,l),
(54,1126,o),
(104,1119,o),
(125,1119,qs),
(247,1119,o),
(408,1286,o),
(408,1428,qs),
(408,1570,o),
(248,1735,o),
(126,1735,qs),
(105,1735,o),
(55,1730,o),
(30,1725,q),
(58,1521,l),
(69,1523,o),
(80,1523,o),
(84,1523,qs),
(137,1523,o),
(202,1477,o),
(202,1428,qs),
(202,1378,o),
(136,1333,o),
(83,1333,qs),
(79,1333,o),
(68,1334,o)
);
}
);
width = 401;
}
);
unicode = 722;
},
{
glyphname = centredlefthalfringmod;
layers = (
{
layerId = m000;
shapes = (
{
closed = 1;
nodes = (
(495,1588,q),
(495,1798,l),
(341,1798,o),
(150,1634,o),
(150,1465,qs),
(150,1295,o),
(339,1131,o),
(496,1131,q),
(496,1340,l),
(424,1340,o),
(358,1399,o),
(358,1465,qs),
(358,1529,o),
(424,1588,o)
);
}
);
width = 644;
}
);
unicode = 723;
},
{
glyphname = overlinecomb;
layers = (
{
anchors = (
{
name = _top;
pos = (0,926);
},
{
name = top;
pos = (0,1254);
}
);
layerId = m000;
shapes = (
{
closed = 1;
nodes = (
(540,1416,l),
(-540,1416,l),
(-540,1131,l),
(540,1131,l)
);
}
);
}
);
unicode = 773;
},
{
glyphname = doublegravecomb;
layers = (
{
anchors = (
{
name = _top;
pos = (0,926);
},
{
name = top;
pos = (0,1467);
}
);
layerId = m000;
shapes = (
{
closed = 1;
nodes = (
(6,1138,l),
(-96,1497,l),
(-369,1497,l),
(-219,1138,l)
);
},
{
closed = 1;
nodes = (
(367,1138,l),
(265,1497,l),
(-8,1497,l),
(142,1138,l)
);
}
);
}
);
unicode = 783;
},
{
glyphname = invertedbrevecomb;
layers = (
{
anchors = (
{
name = _top;
pos = (0,926);
},
{
name = top;
pos = (0,1446);
}
);
layerId = m000;
shapes = (
{
closed = 1;
nodes = (
(-311,1138,q),
(-92,1138,l),
(-92,1203,o),
(-47,1262,o),
(0,1262,qs),
(46,1262,o),
(92,1203,o),
(92,1138,q),
(311,1138,l),
(311,1292,o),
(154,1460,o),
(0,1460,qs),
(-154,1460,o),
(-311,1292,o)
);
}
);
}
);
unicode = 785;
},
{
glyphname = horncomb;
layers = (
{
anchors = (
{
name = _horn;
pos = (-186,1133);
}
);
layerId = m000;
shapes = (
{
closed = 1;
nodes = (
(177,1687,q),
(-27,1611,l),
(-13,1564,o),
(27,1416,o),
(27,1383,qs),
(27,1354,o),
(4,1338,o),
(-30,1338,qs),
(-243,1338,l),
(-243,1138,l),
(-40,1138,l),
(84,1138,o),
(243,1263,o),
(243,1382,qs),
(243,1456,o),
(198,1623,o)
);
}
);
}
);
unicode = 795;
},
{
glyphname = cedillacomb;
layers = (
{
anchors = (
{
name = _bottom;
pos = (0,0);
}
);
layerId = m000;
shapes = (
{
closed = 1;
nodes = (
(355,-261,qs),
(355,-156,o),
(212,-48,o),
(76,-48,q),
(76,1,l),
(-77,1,l),
(-77,-227,l),
(-59,-225,o),
(-27,-222,o),
(-8,-222,qs),
(57,-222,o),
(129,-247,o),
(129,-270,qs),
(129,-310,o),
(27,-310,qs),
(-9,-310,o),
(-91,-294,o),
(-120,-283,q),
(-197,-466,l),
(-146,-493,o),
(-38,-514,o),
(24,-514,qs),
(177,-514,o),
(355,-379,o)
);
}
);
}
);
unicode = 807;
},
{
glyphname = arabiccomma;
layers = (
{
layerId = m000;
shapes = (
{
closed = 1;
nodes = (
(221,832,l),
(162,772,o),
(90,611,o),
(90,500,qs),
(90,0,l),
(590,0,l),
(590,500,l),
(223,500,l),
(388,556,o),
(450,624,qs),
(556,745,l),
(337,942,l)
);
}
);
width = 680;
}
);
unicode = 1548;
},
{
glyphname = arabiccomma.alt;
layers = (
{
layerId = m000;
shapes = (
{
closed = 1;
nodes = (
(279,376,l),
(300,435,o),
(375,547,o),
(435,602,q),
(297,732,l),
(196,644,o),
(74,394,o),
(74,271,qs),
(74,150,o),
(207,3,o),
(319,3,qs),
(410,3,o),
(525,119,o),
(525,213,qs),
(525,288,o),
(436,389,o),
(382,389,qs),
(347,389,o),
(301,370,q)
);
}
);
width = 577;
}
);
},
{
glyphname = "dateseparator-arab";
layers = (
{
layerId = m000;
shapes = (
{
closed = 1;
nodes = (
(272,-596,l),
(809,791,l),
(304,791,l),
(-235,-596,l)
);
}
);
width = 891;
}
);
unicode = 1549;
},
{
glyphname = "lettermark-arab";
layers = (
{
layerId = m000;
shapes = (
{
closed = 1;
nodes = (
(1054,1177,l),
(1054,1048,l),
(1286,1048,l),
(1286,1177,l)
);
},
{
closed = 1;
nodes = (
(1520,1177,l),
(1520,1048,l),
(1752,1048,l),
(1752,1177,l)
);
},
{
closed = 1;
nodes = (
(2465,1048,l),
(2465,867,l),
(2597,867,l),
(2597,1177,l),
(1986,1177,l),
(1986,1048,l)
);
},
{
closed = 1;
nodes = (
(200,1177,l),
(200,869,l),
(331,869,l),
(331,1048,l),
(820,1048,l),
(820,1177,l)
);
},
{
closed = 1;
nodes = (
(1752,-280,l),
(1752,-149,l),
(1520,-149,l),
(1520,-280,l)
);
},
{
closed = 1;
nodes = (
(200,-280,l),
(200,30,l),
(331,30,l),
(331,-149,l),
(820,-149,l),
(820,-280,l)
);
},
{
closed = 1;
nodes = (
(2465,-149,l),
(2465,28,l),
(2597,28,l),
(2597,-280,l),
(1986,-280,l),
(1986,-149,l)
);
},
{
closed = 1;
nodes = (
(1286,-280,l),
(1286,-149,l),
(1054,-149,l),
(1054,-280,l)
);
},
{
closed = 1;
nodes = (
(2465,261,l),
(2597,261,l),
(2597,634,l),
(2465,634,l)
);
},
{
closed = 1;
nodes = (
(331,636,l),
(200,636,l),
(200,263,l),
(331,263,l)
);
},
{
closed = 1;
nodes = (
(1844,146,l),
(1844,344,l),
(1849,344,l),
(1908,146,l),
(2048,146,l),
(2101,341,l),
(2106,341,l),
(2106,146,l),
(2356,146,l),
(2356,739,l),
(2079,739,l),
(1976,397,l),
(1870,739,l),
(1593,739,l),
(1593,146,l)
);
},
{
closed = 1;
nodes = (
(632,146,l),
(649,243,l),
(761,243,l),
(778,146,l),
(1035,146,l),
(845,739,l),
(561,739,l),
(375,146,l)
);
},
{
closed = 1;
nodes = (
(701,498,l),
(706,498,l),
(726,379,l),
(683,379,l)
);
},
{
closed = 1;
nodes = (
(1059,739,l),
(1059,146,l),
(1517,146,l),
(1517,340,l),
(1309,340,l),
(1309,739,l)
);
}
);
width = 2792;
}
);
unicode = 1564;
},
{
glyphname = arabicquestionmark;
layers = (
{
layerId = m000;
shapes = (
{
closed = 1;
nodes = (
(885,610,l),
(885,705,o),
(817,899,o),
(732,996,qs),
(656,1084,o),
(469,1156,o),
(320,1164,q),
(411,1217,o),
(523,1239,o),
(610,1239,qs),
(688,1239,o),
(863,1210,o),
(1015,1159,q),
(1108,1559,l),
(1051,1591,o),
(908,1629,o),
(772,1653,o),
(634,1653,qs),
(496,1653,o),
(223,1536,o),
(80,1333,o),
(80,1226,qs),
(80,1084,o),
(142,966,o),
(240,877,qs),
(309,812,o),
(352,779,o),
(408,681,o),
(408,610,q)
);
},
{
closed = 1;
nodes = (
(398,0,l),
(898,0,l),
(898,450,l),
(398,450,l)
);
}
);
width = 1189;
}
);
unicode = 1567;
},
{
glyphname = arabicsukuncomb;
layers = (
{
anchors = (
{
name = "top-arab";
pos = (0,1440);
},
{
name = "_top-arab";
pos = (0,661);
}
);
layerId = m000;
shapes = (
{
closed = 1;
nodes = (
(0,1292,qs),
(19,1292,o),
(55,1269,o),
(55,1256,qs),
(55,1243,o),
(18,1218,o),
(0,1218,qs),
(-18,1218,o),
(-55,1242,o),
(-55,1256,qs),
(-55,1270,o),
(-21,1292,o)
);
},
{
closed = 1;
nodes = (
(0,1449,qs),
(-82,1449,o),
(-197,1339,o),
(-197,1256,qs),
(-197,1175,o),
(-82,1061,o),
(0,1061,qs),
(83,1061,o),
(197,1175,o),
(197,1256,qs),
(197,1338,o),
(82,1449,o)
);
}
);
}
);
unicode = 1618;
},
{
glyphname = "inverteddammacomb-arab";
layers = (
{
anchors = (
{
name = "top-arab";
pos = (0,1583);
},
{
name = "_top-arab";
pos = (0,772);
}
);
layerId = m000;
shapes = (
{
closed = 1;
nodes = (
(-29,1279,qs),
(-31,1279,o),
(-41,1281,o),
(-41,1288,qs),
(-41,1336,o),
(-21,1353,q),
(6,1339,o),
(24,1316,o),
(26,1302,o),
(26,1302,q),
(26,1300,o),
(-17,1279,o)
);
},
{
closed = 1;
nodes = (
(-60,1084,qs),
(3,1084,o),
(119,1140,o),
(190,1238,o),
(190,1297,qs),
(190,1324,o),
(187,1381,o),
(168,1436,o),
(143,1454,q),
(197,1475,o),
(271,1501,o),
(288,1503,q),
(236,1704,l),
(97,1669,o),
(-115,1528,o),
(-234,1358,o),
(-234,1278,qs),
(-234,1185,o),
(-139,1084,o)
);
}
);
}
);
unicode = 1623;
},
{
glyphname = "vowelsigninvertedsmallvcomb-arab";
layers = (
{
anchors = (
{
name = "top-arab";
pos = (0,1440);
},
{
name = "_top-arab";
pos = (0,715);
}
);
layerId = m000;
shapes = (
{
closed = 1;
nodes = (
(-101,1496,l),
(-308,1202,l),
(-128,1070,l),
(-1,1275,l),
(128,1070,l),
(307,1202,l),
(101,1496,l)
);
}
);
width = -2;
}
);
unicode = 1627;
},
{
glyphname = "fathatwodotscomb-arab";
layers = (
{
anchors = (
{
name = "top-arab";
pos = (0,1654);
},
{
name = "_top-arab";
pos = (0,779);
}
);
layerId = m000;
shapes = (
{
closed = 1;
nodes = (
(-56,1219,l),
(97,1065,l),
(254,1219,l),
(97,1376,l)
);
},
{
closed = 1;
nodes = (
(205,1631,l),
(-269,1476,l),
(-205,1262,l),
(269,1416,l)
);
},
{
closed = 1;
nodes = (
(-251,1666,l),
(-98,1512,l),
(60,1666,l),
(-98,1822,l)
);
}
);
}
);
unicode = 1630;
},
{
glyphname = "wavyhamzabelowcomb-arab";
layers = (
{
anchors = (
{
name = "bottom-arab";
pos = (0,-515);
},
{
name = "_bottom-arab";
pos = (0,115);
}
);
layerId = m000;
shapes = (
{
closed = 1;
nodes = (
(147,-299,q),
(209,-311,l),
(256,-122,l),
(197,-107,l),
(169,-99,o),
(126,-98,o),
(104,-98,qs),
(2,-98,o),
(-143,-215,o),
(-143,-290,qs),
(-143,-315,o),
(-144,-362,o),
(-140,-392,q),
(-148,-396,l),
(-139,-384,o),
(-146,-383,o),
(-160,-388,o),
(-165,-388,qs),
(-214,-388,o),
(-294,-467,o),
(-350,-580,q),
(-159,-667,l),
(-139,-623,o),
(-121,-603,o),
(-111,-603,qs),
(-105,-603,o),
(-88,-603,o),
(-75,-607,qs),
(-46,-616,o),
(-5,-621,o),
(12,-621,qs),
(39,-621,o),
(66,-613,qs),
(311,-537,l),
(250,-337,l),
(175,-357,l),
(141,-366,o),
(110,-373,o),
(101,-373,qs),
(79,-373,o),
(58,-360,o),
(58,-338,qs),
(58,-315,o),
(89,-296,o),
(118,-296,qs),
(129,-296,o)
);
}
);
}
);
unicode = 1631;
},
{
glyphname = "arabicindiczero-arab";
layers = (
{
layerId = m000;
shapes = (
{
closed = 1;
nodes = (
(432,789,l),
(92,449,l),
(432,108,l),
(771,449,l)
);
}
);
width = 860;
}
);
unicode = 1632;
},
{
glyphname = "arabicindiczero-arab.EoA";
layers = (
{
layerId = m000;
shapes = (
{
closed = 1;
nodes = (
(274,908,l),
(146,781,l),
(274,648,l),
(404,781,l)
);
}
);
width = 550;
}
);
},
{
glyphname = "arabicindicone-arab";
layers = (
{
layerId = m000;
shapes = (
{
closed = 1;
nodes = (
(768,0,l),
(765,241,o),
(725,650,o),
(651,1022,o),
(547,1387,o),
(481,1583,q),
(30,1425,l),
(91,1243,o),
(186,917,o),
(250,587,o),
(288,222,o),
(290,0,q)
);
}
);
width = 798;
}
);
unicode = 1633;
},
{
glyphname = "arabicindicone-arab.EoA";
layers = (
{
layerId = m000;
shapes = (
{
closed = 1;
nodes = (
(382,503,l),
(382,637,o),
(351,862,o),
(297,1070,o),
(257,1182,q),
(108,1128,l),
(147,1022,o),
(197,831,o),
(223,630,o),
(223,503,q)
);
}
);
width = 550;
}
);
},
{
glyphname = "arabicindictwo-arab";
layers = (
{
layerId = m000;
shapes = (
{
closed = 1;
nodes = (
(696,1174,qs),
(667,1174,o),
(622,1204,o),
(578,1295,o),
(546,1389,qs),
(479,1583,l),
(30,1425,l),
(100,1211,o),
(198,854,o),
(258,526,o),
(290,191,o),
(291,0,q),
(766,0,l),
(765,177,o),
(748,502,o),
(689,764,q),
(694,774,l),
(754,679,o),
(819,679,qs),
(886,679,o),
(1036,759,o),
(1165,949,o),
(1262,1269,o),
(1294,1508,q),
(828,1583,l),
(797,1385,l),
(781,1287,o),
(754,1198,o),
(722,1174,o)
);
}
);
width = 1324;
}
);
unicode = 1634;
},
{
glyphname = "arabicindictwo-arab.EoA";
layers = (
{
layerId = m000;
shapes = (
{
closed = 1;
nodes = (
(267,985,qs),
(237,985,o),
(205,1036,o),
(177,1107,qs),
(147,1182,l),
(1,1128,l),
(42,1008,o),
(91,809,o),
(113,615,o),
(113,503,q),
(273,503,l),
(272,592,o),
(259,749,o),
(244,825,q),
(253,830,l),
(280,819,o),
(300,819,qs),
(363,819,o),
(445,890,o),
(495,1039,o),
(509,1157,q),
(356,1180,l),
(343,1106,l),
(332,1034,o),
(304,985,o)
);
}
);
width = 550;
}
);
},
{
glyphname = "arabicindicthree-arab";
layers = (
{
layerId = m000;
shapes = (
{
closed = 1;
nodes = (
(946,910,q),
(956,910,l),
(993,786,o),
(1132,682,o),
(1209,682,qs),
(1420,682,o),
(1673,993,o),
(1673,1265,qs),
(1673,1333,o),
(1654,1495,o),
(1636,1585,q),
(1210,1504,l),
(1237,1354,o),
(1237,1259,qs),
(1237,1207,o),
(1206,1186,o),
(1170,1186,qs),
(1136,1186,o),
(1100,1218,o),
(1100,1262,qs),
(1100,1319,o),
(1099,1379,o),
(1099,1437,o),
(1100,1491,q),
(768,1488,l),
(771,1452,o),
(777,1378,o),
(780,1306,qs),
(784,1237,o),
(744,1165,o),
(690,1156,qs),
(635,1147,o),
(595,1198,o),
(576,1252,o),
(572,1266,qs),
(490,1583,l),
(40,1431,l),
(120,1181,o),
(227,721,o),
(282,257,o),
(284,0,q),
(761,0,l),
(759,176,o),
(746,480,o),
(696,719,q),
(703,726,l),
(708,706,o),
(785,671,o),
(855,682,qs),
(888,688,o),
(948,782,o)
);
}
);
width = 1713;
}
);
unicode = 1635;
},
{
glyphname = "arabicindicthree-arab.EoA";
layers = (
{
layerId = m000;
shapes = (
{
closed = 1;
nodes = (
(191,992,qs),
(170,992,o),
(147,1018,o),
(140,1054,q),
(108,1182,l),
(-17,1131,l),
(35,971,o),
(79,679,o),
(80,503,q),
(216,503,l),
(214,612,o),
(205,761,o),
(194,829,q),
(204,831,l),
(212,827,o),
(233,827,qs),
(267,827,o),
(280,892,q),
(290,892,l),
(307,857,o),
(357,827,o),
(391,827,qs),
(465,827,o),
(528,938,o),
(528,1059,qs),
(528,1079,o),
(524,1133,o),
(516,1175,q),
(398,1157,l),
(408,1097,o),
(408,1049,qs),
(408,992,o),
(375,992,qs),
(355,992,o),
(331,1012,o),
(331,1049,qs),
(331,1081,o),
(330,1135,o),
(328,1155,q),
(223,1155,l),
(224,1105,o),
(226,1074,o),
(227,1058,q),
(228,1014,o),
(209,992,o)
);
}
);
width = 550;
}
);
},
{
glyphname = "arabicindicfour-arab";
layers = (
{
layerId = m000;
shapes = (
{
closed = 1;
nodes = (
(567,1227,q),
(557,1227,l),
(547,1384,o),
(539,1465,o),
(528,1531,o),
(512,1584,q),
(40,1439,l),
(123,1190,o),
(228,726,o),
(280,258,o),
(282,0,q),
(760,0,l),
(760,76,o),
(761,173,o),
(763,267,o),
(759,398,o),
(753,506,q),
(762,510,l),
(852,495,o),
(981,495,o),
(1059,495,qs),
(1110,495,o),
(1251,513,o),
(1333,528,q),
(1241,970,l),
(1189,965,o),
(1087,960,o),
(1037,960,qs),
(927,960,o),
(695,1035,o),
(712,1096,qs),
(717,1114,o),
(952,1156,o),
(1028,1156,qs),
(1130,1156,o),
(1240,1115,q),
(1370,1538,l),
(1202,1601,o),
(1077,1601,qs),
(900,1601,o),
(666,1474,o)
);
}
);
width = 1370;
}
);
unicode = 1636;
},
{
glyphname = "arabicindicfour-arab.EoA";
layers = (
{
layerId = m000;
shapes = (
{
closed = 1;
nodes = (
(185,842,q),
(185,832,l),
(138,814,o),
(81,728,o),
(81,675,qs),
(81,620,o),
(145,542,o),
(260,503,o),
(340,503,qs),
(469,503,l),
(469,662,l),
(337,662,l),
(307,662,o),
(263,670,o),
(238,689,o),
(238,703,qs),
(238,725,o),
(286,756,o),
(377,774,o),
(443,774,q),
(443,908,l),
(346,908,o),
(268,932,o),
(268,956,qs),
(268,983,o),
(356,1016,o),
(443,1024,q),
(428,1183,l),
(323,1168,o),
(181,1104,o),
(109,1010,o),
(109,949,qs),
(109,908,o),
(149,851,o)
);
}
);
width = 550;
}
);
},
{
glyphname = "arabicindicfour-arab.urdu.EoA";
layers = (
{
layerId = m000;
shapes = (
{
closed = 1;
nodes = (
(533,1016,q),
(451,1161,l),
(423,1145,o),
(357,1103,o),
(332,1082,q),
(323,1092,l),
(299,1120,o),
(231,1159,o),
(189,1159,qs),
(119,1159,o),
(17,1057,o),
(17,985,qs),
(17,935,o),
(49,879,qs),
(173,661,l),
(183,646,o),
(195,610,o),
(195,595,qs),
(195,573,o),
(178,532,o),
(165,510,q),
(319,446,l),
(359,521,o),
(359,603,qs),
(359,642,o),
(341,713,o),
(317,746,qs),
(176,948,l),
(172,955,o),
(172,966,qs),
(172,976,o),
(185,990,o),
(196,990,qs),
(203,990,o),
(219,983,o),
(226,975,q),
(298,878,l),
(363,877,l),
(399,918,o),
(479,983,o)
);
}
);
width = 550;
}
);
},
{
glyphname = "arabicindicfive-arab";
layers = (
{
layerId = m000;
shapes = (
{
closed = 1;
nodes = (
(535,617,l),
(536,624,l),
(537,526,o),
(494,444,o),
(465,444,qs),
(434,444,o),
(330,466,o),
(330,498,qs),
(330,565,o),
(437,690,o),
(594,819,o),
(698,886,q),
(800,779,o),
(997,542,o),
(997,467,q),
(974,444,o),
(868,444,qs),
(788,444,o),
(791,624,q),
(791,617,l)
);
},
{
closed = 1;
nodes = (
(689,245,q),
(699,245,l),
(739,106,o),
(851,-14,o),
(950,-14,qs),
(1125,-14,o),
(1316,287,o),
(1316,560,qs),
(1316,719,o),
(1127,1081,o),
(786,1436,o),
(561,1582,q),
(297,1212,l),
(361,1159,o),
(409,1118,o),
(413,1110,q),
(303,1024,o),
(134,790,o),
(40,533,o),
(40,410,qs),
(40,222,o),
(246,-14,o),
(412,-14,qs),
(524,-14,o),
(639,101,o)
);
}
);
width = 1356;
}
);
unicode = 1637;
},
{
glyphname = "arabicindicfive-arab.EoA";
layers = (
{
layerId = m000;
shapes = (
{
closed = 1;
nodes = (
(231,1181,q),
(127,1056,l),
(141,1045,o),
(172,1018,o),
(183,1008,q),
(109,951,o),
(13,810,o),
(13,716,qs),
(13,598,o),
(172,495,o),
(273,495,qs),
(380,495,o),
(537,604,o),
(537,731,qs),
(537,834,o),
(446,995,o),
(305,1125,o)
);
},
{
closed = 1;
nodes = (
(272,913,q),
(329,856,o),
(377,768,o),
(377,738,qs),
(377,704,o),
(331,663,o),
(273,663,qs),
(219,663,o),
(173,706,o),
(173,737,qs),
(173,773,o),
(214,860,o)
);
}
);
width = 550;
}
);
},
{
glyphname = "arabicindicsix-arab";
layers = (
{
layerId = m000;
shapes = (
{
closed = 1;
nodes = (
(454,656,q),
(458,646,l),
(253,470,o),
(143,312,o),
(62,207,q),
(449,-90,l),
(588,102,o),
(776,338,o),
(917,464,o),
(1050,514,o),
(1132,520,qs),
(1154,522,l),
(1114,995,l),
(1093,991,l),
(938,967,o),
(733,949,o),
(675,949,qs),
(535,949,o),
(397,986,o),
(397,1021,qs),
(397,1048,o),
(482,1086,o),
(594,1108,o),
(655,1108,qs),
(727,1108,o),
(870,1070,q),
(1064,1436,l),
(958,1505,o),
(747,1574,o),
(648,1574,qs),
(495,1574,o),
(242,1419,o),
(94,1157,o),
(94,996,qs),
(94,916,o),
(127,777,o),
(223,680,o)
);
}
);
width = 1214;
}
);
unicode = 1638;
},
{
glyphname = "arabicindicsix-arab.EoA";
layers = (
{
layerId = m000;
shapes = (
{
closed = 1;
nodes = (
(43,1002,l),
(286,1002,l),
(285,990,o),
(286,969,o),
(286,958,qs),
(286,872,o),
(297,731,o),
(329,587,o),
(356,494,q),
(507,539,l),
(480,623,o),
(452,752,o),
(444,878,o),
(444,958,qs),
(444,997,o),
(446,1040,o),
(447,1067,q),
(354,1172,l),
(43,1172,l)
);
}
);
width = 550;
}
);
},
{
glyphname = "arabicindicseven-arab";
layers = (
{
layerId = m000;
shapes = (
{
closed = 1;
nodes = (
(793,614,q),
(783,614,l),
(750,923,o),
(678,1214,o),
(589,1390,o),
(483,1561,o),
(417,1648,q),
(30,1350,l),
(156,1185,o),
(347,906,o),
(471,615,o),
(534,252,o),
(554,0,q),
(1026,0,l),
(1046,252,o),
(1108,615,o),
(1232,906,o),
(1422,1185,o),
(1549,1350,q),
(1162,1648,l),
(1097,1561,o),
(990,1390,o),
(900,1214,o),
(826,923,o)
);
}
);
width = 1579;
}
);
unicode = 1639;
},
{
glyphname = "arabicindicseven-arab.EoA";
layers = (
{
layerId = m000;
shapes = (
{
closed = 1;
nodes = (
(437,1206,l),
(396,1148,o),
(337,1020,o),
(296,877,o),
(279,802,q),
(269,802,l),
(254,879,o),
(213,1020,o),
(154,1148,o),
(112,1206,q),
(-16,1108,l),
(53,1017,o),
(144,848,o),
(197,645,o),
(209,503,q),
(343,503,l),
(356,645,o),
(407,848,o),
(497,1017,o),
(566,1108,q)
);
}
);
width = 550;
}
);
},
{
glyphname = "arabicindicseven-arab.urdu.EoA";
layers = (
{
layerId = m000;
shapes = (
{
closed = 1;
nodes = (
(478,699,l),
(386,661,o),
(278,661,qs),
(260,661,o),
(226,665,o),
(207,667,q),
(258,781,o),
(322,1030,o),
(338,1159,q),
(172,1183,l),
(154,1042,o),
(72,764,o),
(10,656,q),
(57,531,l),
(113,514,o),
(217,494,o),
(274,494,qs),
(342,494,o),
(479,523,o),
(540,547,q)
);
}
);
width = 550;
}
);
},
{
glyphname = "arabicindiceight-arab";
layers = (
{
layerId = m000;
shapes = (
{
closed = 1;
nodes = (
(785,966,q),
(795,966,l),
(827,656,o),
(901,365,o),
(989,188,o),
(1097,19,o),
(1162,-69,q),
(1549,227,l),
(1422,393,o),
(1232,673,o),
(1108,963,o),
(1046,1327,o),
(1026,1578,q),
(554,1578,l),
(534,1327,o),
(471,963,o),
(347,673,o),
(156,393,o),
(30,227,q),
(418,-69,l),
(483,19,o),
(589,188,o),
(678,365,o),
(752,656,o)
);
}
);
width = 1579;
}
);
unicode = 1640;
},
{
glyphname = "arabicindiceight-arab.EoA";
layers = (
{
layerId = m000;
shapes = (
{
closed = 1;
nodes = (
(113,476,l),
(155,534,o),
(213,663,o),
(256,804,o),
(271,880,q),
(281,880,l),
(297,804,o),
(337,663,o),
(396,534,o),
(438,476,q),
(566,575,l),
(497,667,o),
(407,835,o),
(354,1036,o),
(341,1178,q),
(207,1178,l),
(196,1036,o),
(144,835,o),
(53,667,o),
(-16,575,q)
);
}
);
width = 550;
}
);
},
{
glyphname = "arabicindicnine-arab";
layers = (
{
layerId = m000;
shapes = (
{
closed = 1;
nodes = (
(622,645,q),
(648,390,o),
(669,226,o),
(692,79,o),
(707,-30,q),
(1098,126,l),
(1082,266,o),
(1057,435,o),
(1037,708,o),
(1016,882,qs),
(989,1144,o),
(869,1456,o),
(659,1592,o),
(497,1592,qs),
(369,1592,o),
(167,1439,o),
(50,1149,o),
(50,945,qs),
(50,821,o),
(143,623,o),
(320,509,o),
(446,509,qs),
(535,510,o),
(597,585,o)
);
},
{
closed = 1;
nodes = (
(711,959,l),
(563,963,o),
(501,971,o),
(480,971,qs),
(439,971,o),
(278,984,o),
(278,1008,qs),
(278,1044,o),
(330,1102,o),
(398,1138,o),
(464,1138,qs),
(523,1138,o),
(612,1124,o),
(696,1072,o),
(705,1018,q)
);
}
);
width = 1188;
}
);
unicode = 1641;
},
{
glyphname = "arabicindicnine-arab.EoA";
layers = (
{
layerId = m000;
shapes = (
{
closed = 1;
nodes = (
(302,758,q),
(313,670,o),
(334,563,o),
(354,493,q),
(501,546,l),
(480,606,o),
(452,761,o),
(443,883,qs),
(430,1043,o),
(339,1185,o),
(236,1185,qs),
(153,1185,o),
(49,1043,o),
(49,926,qs),
(49,844,o),
(145,748,o),
(224,748,qs),
(258,748,o)
);
},
{
closed = 1;
nodes = (
(287,917,l),
(277,915,o),
(249,912,o),
(236,912,qs),
(209,912,o),
(179,930,o),
(179,949,qs),
(179,980,o),
(207,1022,o),
(229,1022,qs),
(255,1022,o),
(282,982,o),
(286,934,qs)
);
}
);
width = 550;
}
);
},
{
glyphname = "decimalseparator-arab";
layers = (
{
layerId = m000;
shapes = (
{
closed = 1;
nodes = (
(322,-527,l),
(906,793,l),
(438,793,l),
(-149,-527,l)
);
}
);
width = 960;
}
);
unicode = 1643;
},
{
glyphname = "thousandsseparator-arab";
layers = (
{
layerId = m000;
shapes = (
{
closed = 1;
nodes = (
(309,0,q),
(276,-38,o),
(141,-164,o),
(80,-205,q),
(222,-369,l),
(395,-250,o),
(544,38,o),
(544,181,qs),
(544,314,o),
(402,434,o),
(316,434,qs),
(229,434,o),
(102,322,o),
(102,234,qs),
(102,154,o),
(199,34,o)
);
}
);
width = 611;
}
);
unicode = 1644;
},
{
glyphname = "fivepointedstar-arab";
layers = (
{
layerId = m000;
shapes = (
{
closed = 1;
nodes = (
(671,826,l),
(647,1032,l),
(660,1040,l),
(828,914,l),
(1001,1218,l),
(811,1300,l),
(811,1316,l),
(1001,1398,l),
(828,1703,l),
(660,1578,l),
(647,1584,l),
(671,1792,l),
(322,1792,l),
(346,1584,l),
(331,1578,l),
(166,1703,l),
(-10,1398,l),
(181,1316,l),
(181,1300,l),
(-10,1218,l),
(166,914,l),
(331,1040,l),
(346,1032,l),
(322,826,l)
);
}
);
width = 993;
}
);
unicode = 1645;
},
{
glyphname = "hehgoal-arab.init.1";
layers = (
{
anchors = (
{
name = "bottom-arab";
pos = (830,-700);
},
{
name = "top-arab";
pos = (1034,800);
}
);
layerId = m000;
shapes = (
{
closed = 1;
nodes = (
(642,633,qs),
(642,854,l),
(167,854,l),
(167,633,l),
(167,567,o),
(153,513,o),
(92,504,o),
(19,504,qs),
(0,504,l),
(-32,504,o),
(-61,390,o),
(-61,253,qs),
(-61,117,o),
(-32,0,o),
(0,0,qs),
(19,0,l),
(133,0,o),
(346,116,o),
(399,209,q),
(409,209,l),
(464,115,o),
(654,0,o),
(806,0,qs),
(1060,0,o),
(1353,270,o),
(1353,531,qs),
(1353,616,o),
(1317,854,o),
(1284,989,q),
(836,865,l),
(857,777,o),
(883,632,o),
(883,606,qs),
(883,553,o),
(828,504,o),
(768,504,qs),
(689,504,o),
(642,555,o)
);
},
{
closed = 1;
nodes = (
(878,-431,l),
(899,-373,o),
(974,-262,o),
(1034,-205,q),
(896,-76,l),
(795,-163,o),
(674,-414,o),
(674,-537,qs),
(674,-657,o),
(806,-804,o),
(919,-804,qs),
(1010,-804,o),
(1124,-688,o),
(1124,-596,qs),
(1124,-519,o),
(1035,-420,o),
(981,-420,qs),
(946,-420,o),
(900,-437,q)
);
}
);
width = 1359;
}
);
},
{
glyphname = "fullstop-arab";
layers = (
{
layerId = m000;
shapes = (
{
closed = 1;
nodes = (
(1212,0,l),
(75,0,l),
(75,-476,l),
(1212,-476,l)
);
}
);
width = 1308;
}
);
unicode = 1748;
},
{
glyphname = "smallhighsadlamalefmaksuracomb-arab";
layers = (
{
anchors = (
{
name = "top-arab";
pos = (1,1166);
},
{
name = "_top-arab";
pos = (1,679);
}
);
layerId = m000;
shapes = (
{
closed = 1;
nodes = (
(239,1326,qs),
(249,1326,o),
(261,1319,o),
(261,1312,qs),
(261,1310,o),
(236,1292,o),
(213,1292,qs),
(202,1292,o),
(176,1296,o),
(166,1301,q),
(171,1304,o),
(213,1326,o)
);
},
{
closed = 1;
nodes = (
(262,1485,qs),
(211,1485,o),
(119,1418,o),
(66,1348,q),
(65,1343,o),
(60,1335,o),
(60,1329,q),
(59,1401,l),
(-92,1401,l),
(-92,1327,l),
(-92,1307,o),
(-102,1292,o),
(-140,1292,qs),
(-160,1292,o),
(-177,1303,o),
(-177,1318,qs),
(-177,1555,l),
(-330,1555,l),
(-330,1312,l),
(-330,1293,o),
(-344,1292,o),
(-382,1292,q),
(-375,1292,l),
(-502,1292,o),
(-649,1173,o),
(-649,1074,qs),
(-649,995,o),
(-546,932,o),
(-479,932,qs),
(-13,932,l),
(-13,1090,l),
(-484,1090,l),
(-496,1090,o),
(-495,1104,o),
(-495,1102,qs),
(-495,1100,o),
(-470,1131,o),
(-377,1131,q),
(-382,1131,l),
(-333,1131,o),
(-262,1188,o),
(-260,1225,q),
(-250,1225,l),
(-248,1187,o),
(-176,1131,o),
(-117,1131,qs),
(-88,1131,o),
(-3,1184,o),
(5,1222,q),
(15,1222,l),
(79,1131,o),
(212,1131,qs),
(302,1131,o),
(401,1246,o),
(401,1311,qs),
(401,1381,o),
(323,1485,o)
);
}
);
width = 1;
}
);
unicode = 1750;
},
{
glyphname = "smallhighqaflamalefmaksuracomb-arab";
layers = (
{
anchors = (
{
name = "top-arab";
pos = (0,1166);
},
{
name = "_top-arab";
pos = (0,579);
}
);
layerId = m000;
shapes = (
{
closed = 1;
nodes = (
(53,1471,qs),
(56,1471,o),
(70,1476,o),
(75,1442,q),
(64,1442,o),
(55,1442,qs),
(44,1442,o),
(34,1450,o),
(34,1452,qs),
(34,1466,o),
(47,1471,o)
);
},
{
closed = 1;
nodes = (
(153,1715,l),
(87,1781,l),
(21,1715,l),
(87,1649,l)
);
},
{
closed = 1;
nodes = (
(72,1715,l),
(6,1781,l),
(-62,1715,l),
(6,1649,l)
);
},
{
closed = 1;
nodes = (
(61,1626,qs),
(-1,1626,o),
(-81,1527,o),
(-81,1425,qs),
(-81,1363,o),
(-30,1311,o),
(36,1311,qs),
(48,1311,o),
(82,1312,o),
(102,1320,q),
(110,1308,o),
(73,1293,o),
(13,1293,qs),
(-45,1293,l),
(-64,1293,o),
(-100,1301,o),
(-100,1317,qs),
(-100,1555,l),
(-248,1555,l),
(-248,1312,l),
(-248,1293,o),
(-265,1293,o),
(-302,1293,q),
(-298,1293,l),
(-425,1293,o),
(-568,1173,o),
(-568,1074,qs),
(-568,995,o),
(-467,932,o),
(-400,932,qs),
(66,932,l),
(66,1090,l),
(-402,1090,l),
(-415,1090,o),
(-416,1101,o),
(-416,1099,qs),
(-416,1098,o),
(-391,1130,o),
(-298,1130,q),
(-302,1130,l),
(-254,1130,o),
(-179,1186,o),
(-178,1223,q),
(-168,1223,l),
(-165,1187,o),
(-99,1130,o),
(-45,1130,qs),
(27,1130,l),
(149,1130,o),
(230,1242,o),
(230,1348,qs),
(230,1446,o),
(183,1568,o),
(106,1626,o)
);
}
);
}
);
unicode = 1751;
},
{
glyphname = "smallhighmeeminitialformcomb-arab";
layers = (
{
anchors = (
{
name = "top-arab";
pos = (0,1266);
},
{
name = "_top-arab";
pos = (0,679);
}
);
layerId = m000;
shapes = (
{
closed = 1;
nodes = (
(74,1279,q),
(71,1274,l),
(76,1288,o),
(88,1298,o),
(93,1298,qs),
(99,1298,o),
(101,1289,o),
(101,1283,qs),
(101,1281,o),
(103,1283,o),
(100,1283,qs),
(96,1283,o),
(79,1283,o)
);
},
{
closed = 1;
nodes = (
(-162,1284,qs),
(-209,1284,l),
(-209,1071,l),
(-162,1071,l),
(-113,1071,o),
(-57,1097,o),
(-27,1138,q),
(-16,1106,o),
(49,1068,o),
(100,1068,qs),
(183,1068,o),
(280,1180,o),
(280,1284,qs),
(280,1389,o),
(172,1507,o),
(97,1507,qs),
(51,1507,o),
(-30,1454,o),
(-77,1365,qs),
(-109,1307,o),
(-138,1284,o)
);
}
);
}
);
unicode = 1752;
},
{
glyphname = "smallhighlamalefcomb-arab";
layers = (
{
anchors = (
{
name = "top-arab";
pos = (0,1566);
},
{
name = "_top-arab";
pos = (0,779);
}
);
layerId = m000;
shapes = (
{
closed = 1;
nodes = (
(-215,1348,l),
(13,1409,l),
(-106,1757,l),
(-335,1686,l)
);
},
{
closed = 1;
nodes = (
(283,1747,l),
(43,1747,l),
(43,1549,l),
(43,1436,o),
(18,1324,o),
(-102,1289,o),
(-246,1289,qs),
(-287,1289,l),
(-287,1050,l),
(-276,1050,l),
(-76,1050,o),
(150,1109,o),
(256,1236,o),
(283,1436,o),
(283,1578,qs)
);
}
);
}
);
unicode = 1753;
},
{
glyphname = "smallhighjeemcomb-arab";
layers = (
{
anchors = (
{
name = "top-arab";
pos = (0,1466);
},
{
name = "_top-arab";
pos = (0,879);
}
);
layerId = m000;
shapes = (
{
closed = 1;
nodes = (
(-107,1856,qs),
(-180,1856,o),
(-273,1761,o),
(-302,1657,q),
(-305,1644,l),
(-175,1605,l),
(-171,1617,l),
(-160,1645,o),
(-133,1671,o),
(-108,1671,qs),
(-98,1671,o),
(-66,1664,o),
(-41,1655,q),
(-19,1648,o),
(9,1638,o),
(22,1635,q),
(22,1625,l),
(-140,1600,o),
(-314,1414,o),
(-314,1314,qs),
(-314,1196,o),
(-125,1052,o),
(30,1052,qs),
(100,1052,o),
(245,1083,o),
(316,1112,q),
(254,1281,l),
(147,1248,o),
(42,1248,qs),
(-42,1248,o),
(-137,1297,o),
(-137,1338,qs),
(-137,1391,o),
(-21,1469,o),
(156,1517,o),
(252,1528,q),
(276,1723,l),
(234,1731,o),
(125,1775,o),
(54,1807,qs),
(-11,1836,o),
(-82,1856,o)
);
},
{
closed = 1;
nodes = (
(42,1454,l),
(-45,1364,l),
(42,1279,l),
(131,1364,l)
);
}
);
}
);
unicode = 1754;
},
{
glyphname = "smallhighthreedotscomb-arab";
layers = (
{
anchors = (
{
name = "top-arab";
pos = (0,1266);
},
{
name = "_top-arab";
pos = (0,779);
}
);
layerId = m000;
shapes = (
{
closed = 1;
nodes = (
(-106,1296,l),
(-221,1179,l),
(-106,1065,l),
(10,1179,l)
);
},
{
closed = 1;
nodes = (
(106,1296,l),
(-10,1179,l),
(106,1065,l),
(222,1179,l)
);
},
{
closed = 1;
nodes = (
(0,1471,l),
(-115,1355,l),
(0,1240,l),
(117,1355,l)
);
}
);
}
);
unicode = 1755;
},
{
glyphname = "smallhighseencomb-arab";
layers = (
{
anchors = (
{
name = "top-arab";
pos = (0,1466);
},
{
name = "_top-arab";
pos = (0,779);
}
);
layerId = m000;
shapes = (
{
closed = 1;
nodes = (
(239,1386,q),
(249,1386,l),
(261,1327,o),
(326,1273,o),
(387,1273,qs),
(562,1273,o),
(562,1501,qs),
(562,1535,o),
(552,1616,o),
(542,1667,q),
(362,1627,l),
(367,1593,o),
(378,1511,o),
(378,1501,qs),
(378,1469,o),
(344,1469,qs),
(326,1469,o),
(310,1486,o),
(311,1504,qs),
(318,1595,l),
(164,1605,l),
(158,1508,l),
(157,1489,o),
(140,1469,o),
(122,1469,qs),
(113,1469,o),
(102,1478,o),
(94,1499,q),
(50,1647,l),
(-131,1592,l),
(-107,1517,o),
(-79,1401,o),
(-79,1372,qs),
(-79,1315,o),
(-170,1249,o),
(-246,1249,qs),
(-322,1249,o),
(-399,1321,o),
(-399,1394,qs),
(-399,1433,o),
(-393,1489,o),
(-382,1549,q),
(-562,1586,l),
(-576,1507,o),
(-588,1415,o),
(-588,1371,qs),
(-588,1052,o),
(-259,1052,qs),
(-112,1052,o),
(75,1182,o),
(85,1295,q),
(94,1299,l),
(106,1285,o),
(134,1273,o),
(151,1273,qs),
(188,1273,o),
(226,1326,o)
);
}
);
}
);
unicode = 1756;
},
{
glyphname = arabicendofayah;
layers = (
{
layerId = m000;
shapes = (
{
closed = 1;
nodes = (
(2284,-392,q),
(2119,-252,l),
(1993,-276,o),
(1766,-347,o),
(1625,-409,qs),
(1484,-471,o),
(1266,-526,o),
(1150,-526,qs),
(1034,-526,o),
(816,-471,o),
(675,-409,qs),
(534,-347,o),
(307,-276,o),
(181,-252,q),
(16,-392,l),
(114,-408,o),
(290,-454,o),
(475,-523,o),
(589,-573,qs),
(750,-646,o),
(1011,-710,o),
(1150,-710,qs),
(1286,-710,o),
(1545,-646,o),
(1711,-573,qs),
(1870,-501,o),
(2133,-420,o)
);
},
{
closed = 1;
nodes = (
(1150,1694,qs),
(1266,1694,o),
(1484,1641,o),
(1625,1579,qs),
(1766,1517,o),
(1993,1444,o),
(2119,1420,q),
(2106,1286,o),
(2090,1080,o),
(2083,896,o),
(2083,791,qs),
(2083,687,o),
(2090,503,o),
(2106,298,o),
(2119,163,q),
(1993,139,o),
(1766,66,o),
(1625,4,qs),
(1484,-58,o),
(1266,-111,o),
(1150,-111,qs),
(1034,-111,o),
(816,-58,o),
(675,4,qs),
(534,66,o),
(307,139,o),
(181,163,q),
(195,298,o),
(210,503,o),
(217,687,o),
(217,791,qs),
(217,896,o),
(210,1080,o),
(195,1286,o),
(181,1420,q),
(307,1444,o),
(534,1517,o),
(675,1579,qs),
(816,1641,o),
(1034,1694,o)
);
},
{
closed = 1;
nodes = (
(2266,791,qs),
(2266,918,o),
(2274,1144,o),
(2292,1385,o),
(2308,1531,q),
(2308,1532,o),
(2308,1531,o),
(2308,1532,qs),
(2308,1557,o),
(2284,1561,qs),
(2185,1577,o),
(2009,1625,o),
(1825,1695,o),
(1711,1744,qs),
(1553,1817,o),
(1289,1878,o),
(1150,1878,qs),
(1014,1878,o),
(755,1817,o),
(589,1744,qs),
(429,1672,o),
(167,1590,o),
(16,1561,qs),
(-8,1557,o),
(-8,1532,qs),
(-8,1531,o),
(-8,1532,o),
(-8,1531,q),
(9,1383,o),
(26,1141,o),
(35,916,o),
(35,791,qs),
(35,665,o),
(26,439,o),
(9,199,o),
(-8,54,q),
(-8,53,o),
(-8,50,o),
(-8,49,qs),
(-8,26,o),
(16,22,qs),
(114,6,o),
(290,-42,o),
(475,-111,o),
(589,-161,qs),
(750,-234,o),
(1011,-295,o),
(1150,-295,qs),
(1286,-295,o),
(1545,-234,o),
(1711,-161,qs),
(1870,-89,o),
(2133,-6,o),
(2284,22,qs),
(2308,26,o),
(2308,49,qs),
(2308,50,o),
(2308,53,o),
(2308,54,q),
(2293,203,o),
(2274,442,o),
(2266,667,o)
);
}
);
width = 2300;
}
);
unicode = 1757;
},
{
glyphname = "startofrubelhizb-arab";
layers = (
{
layerId = m000;
shapes = (
{
closed = 1;
nodes = (
(1316,1485,qs),
(1286,1485,o),
(1242,1441,o),
(1242,1411,qs),
(1242,1381,o),
(1286,1337,o),
(1316,1337,qs),
(1346,1337,o),
(1389,1381,o),
(1389,1411,qs),
(1389,1441,o),
(1346,1485,o)
);
},
{
closed = 1;
nodes = (
(1316,-117,qs),
(1286,-117,o),
(1243,-161,o),
(1243,-191,qs),
(1243,-221,o),
(1286,-265,o),
(1316,-265,qs),
(1346,-265,o),
(1390,-221,o),
(1390,-191,qs),
(1390,-161,o),
(1346,-117,o)
);
},
{
closed = 1;
nodes = (
(515,683,qs),
(485,683,o),
(441,640,o),
(441,610,qs),
(441,580,o),
(485,536,o),
(515,536,qs),
(545,536,o),
(589,580,o),
(589,610,qs),
(589,640,o),
(545,683,o)
);
},
{
closed = 1;
nodes = (
(2117,684,qs),
(2087,684,o),
(2043,640,o),
(2043,610,qs),
(2043,580,o),
(2087,537,o),
(2117,537,qs),
(2147,537,o),
(2191,580,o),
(2191,610,qs),
(2191,640,o),
(2147,684,o)
);
},
{
closed = 1;
nodes = (
(775,1224,qs),
(746,1224,o),
(702,1179,o),
(702,1150,qs),
(702,1121,o),
(746,1077,o),
(775,1077,qs),
(804,1077,o),
(849,1121,o),
(849,1150,qs),
(849,1179,o),
(804,1224,o)
);
},
{
closed = 1;
nodes = (
(1857,143,qs),
(1828,143,o),
(1783,99,o),
(1783,70,qs),
(1783,41,o),
(1828,-4,o),
(1857,-4,qs),
(1886,-4,o),
(1930,41,o),
(1930,70,qs),
(1930,99,o),
(1886,143,o)
);
},
{
closed = 1;
nodes = (
(776,143,qs),
(747,143,o),
(702,98,o),
(702,69,qs),
(702,40,o),
(747,-4,o),
(776,-4,qs),
(805,-4,o),
(849,40,o),
(849,69,qs),
(849,98,o),
(805,143,o)
);
},
{
closed = 1;
nodes = (
(1856,1224,qs),
(1827,1224,o),
(1783,1180,o),
(1783,1151,qs),
(1783,1122,o),
(1827,1077,o),
(1856,1077,qs),
(1885,1077,o),
(1930,1122,o),
(1930,1151,qs),
(1930,1180,o),
(1885,1224,o)
);
},
{
closed = 1;
nodes = (
(1317,1670,l),
(1627,1360,l),
(2066,1360,l),
(2066,921,l),
(2377,610,l),
(2066,299,l),
(2066,-140,l),
(1627,-140,l),
(1317,-450,l),
(1006,-140,l),
(566,-140,l),
(566,299,l),
(256,610,l),
(566,921,l),
(566,1360,l),
(1006,1360,l)
);
},
{
closed = 1;
nodes = (
(1316,1892,l),
(941,1517,l),
(409,1517,l),
(409,984,l),
(32,610,l),
(409,236,l),
(409,-297,l),
(941,-297,l),
(1316,-672,l),
(1691,-297,l),
(2222,-297,l),
(2222,235,l),
(2599,610,l),
(2222,985,l),
(2222,1517,l),
(1691,1517,l)
);
},
{
closed = 1;
nodes = (
(1316,498,qs),
(1284,498,o),
(1160,508,o),
(1160,523,qs),
(1160,535,o),
(1216,566,o),
(1316,603,q),
(1415,567,o),
(1468,538,o),
(1468,523,qs),
(1468,508,o),
(1346,498,o)
);
},
{
closed = 1;
nodes = (
(1316,-8,qs),
(1463,-8,o),
(1690,112,o),
(1820,317,o),
(1820,446,qs),
(1820,593,o),
(1699,860,o),
(1518,1087,o),
(1321,1265,o),
(1247,1326,q),
(953,976,l),
(979,954,o),
(1035,902,o),
(1056,883,q),
(988,807,o),
(886,658,o),
(831,495,o),
(831,400,qs),
(831,289,o),
(942,103,o),
(1159,-8,o)
);
}
);
width = 2630;
}
);
unicode = 1758;
},
{
glyphname = "smallhighroundedzerocomb-arab";
layers = (
{
anchors = (
{
name = "top-arab";
pos = (0,1170);
},
{
name = "_top-arab";
pos = (0,892);
}
);
layerId = m000;
shapes = (
{
closed = 1;
nodes = (
(-82,1177,qs),
(-82,1143,o),
(-34,1095,o),
(0,1095,qs),
(34,1095,o),
(82,1143,o),
(82,1177,qs),
(82,1211,o),
(34,1258,o),
(0,1258,qs),
(-34,1258,o),
(-82,1211,o)
);
}
);
}
);
unicode = 1759;
},
{
glyphname = "placeofsajdah-arab";
layers = (
{
layerId = m000;
shapes = (
{
closed = 1;
nodes = (
(322,93,l),
(139,93,l),
(139,0,l),
(1097,0,l),
(1097,93,l),
(914,93,l),
(914,661,l),
(1169,952,l),
(618,1458,l),
(67,952,l),
(322,661,l)
);
},
{
closed = 1;
nodes = (
(806,710,l),
(806,93,l),
(430,93,l),
(430,710,l),
(211,947,l),
(618,1316,l),
(1025,947,l)
);
},
{
closed = 1;
nodes = (
(664,931,l),
(573,931,l),
(573,196,l),
(664,196,l)
);
}
);
width = 1236;
}
);
unicode = 1769;
},
{
glyphname = "roundedhighstopfilledcentrecomb-arab";
layers = (
{
anchors = (
{
name = "top-arab";
pos = (0,1170);
},
{
name = "_top-arab";
pos = (0,792);
}
);
layerId = m000;
shapes = (
{
closed = 1;
nodes = (
(82,1139,qs),
(82,1214,l),
(82,1232,o),
(56,1258,o),
(38,1258,qs),
(-38,1258,l),
(-56,1258,o),
(-82,1232,o),
(-82,1214,qs),
(-82,1138,l),
(-82,1120,o),
(-56,1094,o),
(-38,1094,qs),
(38,1095,l),
(56,1095,o),
(82,1121,o)
);
}
);
}
);
unicode = 1772;
},
{
glyphname = "smalllowmeemcomb-arab";
layers = (
{
anchors = (
{
name = "bottom-arab";
pos = (0,-26);
},
{
name = "_bottom-arab";
pos = (0,221);
}
);
layerId = m000;
shapes = (
{
closed = 1;
nodes = (
(113,-216,qs),
(113,-219,o),
(96,-222,o),
(96,-222,q),
(82,-222,o),
(53,-215,o),
(42,-212,q),
(46,-191,o),
(60,-172,o),
(76,-169,o),
(81,-169,qs),
(96,-169,o),
(113,-189,o)
);
},
{
closed = 1;
nodes = (
(-68,-394,qs),
(-66,-394,o),
(-54,-394,o),
(-37,-398,qs),
(24,-412,o),
(90,-421,o),
(114,-421,qs),
(191,-421,o),
(276,-317,o),
(276,-220,qs),
(276,-103,o),
(166,26,o),
(86,26,qs),
(40,26,o),
(-43,-17,o),
(-106,-110,o),
(-120,-184,q),
(-189,-186,o),
(-276,-293,o),
(-276,-376,qs),
(-276,-594,l),
(-92,-594,l),
(-92,-402,l),
(-92,-395,o),
(-70,-394,o)
);
}
);
}
);
unicode = 1773;
},
{
glyphname = "extendedarabicindiczero-arab";
layers = (
{
layerId = m000;
shapes = (
{
closed = 1;
nodes = (
(511,630,qs),
(618,630,o),
(713,585,o),
(713,566,qs),
(713,549,o),
(619,498,o),
(511,498,qs),
(402,498,o),
(309,549,o),
(309,566,qs),
(309,585,o),
(402,630,o)
);
},
{
closed = 1;
nodes = (
(511,1002,qs),
(392,1002,o),
(200,890,o),
(88,693,o),
(88,566,qs),
(88,442,o),
(199,241,o),
(391,125,o),
(511,125,qs),
(631,125,o),
(823,241,o),
(935,442,o),
(935,566,qs),
(935,693,o),
(821,890,o),
(629,1002,o)
);
}
);
width = 1021;
}
);
unicode = 1776;
},
{
glyphname = "extendedarabicindiczero-arab.EoA";
layers = (
{
layerId = m000;
shapes = (
{
closed = 1;
nodes = (
(275,827,qs),
(304,827,o),
(326,797,o),
(326,781,qs),
(326,765,o),
(304,733,o),
(275,733,qs),
(247,733,o),
(224,765,o),
(224,781,qs),
(224,797,o),
(247,827,o)
);
},
{
closed = 1;
nodes = (
(275,951,qs),
(203,951,o),
(108,855,o),
(108,781,qs),
(108,708,o),
(203,606,o),
(275,606,qs),
(348,606,o),
(442,708,o),
(442,781,qs),
(442,856,o),
(346,951,o)
);
}
);
width = 550;
}
);
},
{
glyphname = "extendedarabicindicfour-arab";
layers = (
{
layerId = m000;
shapes = (
{
closed = 1;
nodes = (
(567,1227,q),
(557,1227,l),
(547,1384,o),
(539,1465,o),
(528,1531,o),
(512,1584,q),
(40,1439,l),
(123,1190,o),
(228,726,o),
(280,258,o),
(282,0,q),
(760,0,l),
(760,76,o),
(761,173,o),
(763,267,o),
(759,398,o),
(753,506,q),
(762,510,l),
(852,495,o),
(981,495,o),
(1059,495,qs),
(1110,495,o),
(1251,513,o),
(1333,528,q),
(1241,970,l),
(1189,965,o),
(1087,960,o),
(1037,960,qs),
(927,960,o),
(695,1035,o),
(712,1096,qs),
(717,1114,o),
(952,1156,o),
(1028,1156,qs),
(1130,1156,o),
(1240,1115,q),
(1370,1538,l),
(1202,1601,o),
(1077,1601,qs),
(900,1601,o),
(666,1474,o)
);
}
);
width = 1370;
}
);
unicode = 1780;
},
{
glyphname = "extendedarabicindicfour-arab.EoA";
layers = (
{
layerId = m000;
shapes = (
{
closed = 1;
nodes = (
(422,1170,qs),
(352,1170,o),
(256,1099,o),
(225,1020,q),
(215,1020,l),
(202,1082,o),
(189,1136,o),
(178,1165,q),
(32,1121,l),
(87,970,o),
(135,684,o),
(136,506,q),
(284,506,l),
(284,603,o),
(276,715,o),
(265,796,q),
(276,800,l),
(343,752,o),
(414,752,qs),
(471,752,o),
(531,771,q),
(504,905,l),
(452,893,o),
(408,893,qs),
(364,893,o),
(309,925,o),
(306,950,q),
(307,985,o),
(365,1030,o),
(407,1030,qs),
(430,1030,o),
(471,1023,o),
(492,1015,q),
(534,1145,l),
(504,1157,o),
(447,1170,o)
);
}
);
width = 550;
}
);
},
{
glyphname = "extendedarabicindicfour-arab.urdu";
layers = (
{
layerId = m000;
shapes = (
{
closed = 1;
nodes = (
(1290,1143,q),
(1037,1580,l),
(977,1544,o),
(846,1465,o),
(806,1440,q),
(813,1423,l),
(711,1504,o),
(555,1574,o),
(474,1574,qs),
(349,1574,o),
(143,1452,o),
(22,1249,o),
(22,1125,qs),
(22,1065,o),
(64,932,o),
(108,853,qs),
(351,433,l),
(368,404,o),
(381,345,o),
(381,315,qs),
(381,211,o),
(303,92,q),
(766,-104,l),
(822,2,o),
(879,225,o),
(879,335,qs),
(879,441,o),
(833,615,o),
(785,687,qs),
(513,1070,l),
(512,1071,o),
(511,1076,o),
(511,1080,qs),
(511,1083,o),
(513,1082,o),
(516,1082,qs),
(527,1082,o),
(537,1065,q),
(712,817,l),
(892,818,l),
(977,915,o),
(1167,1073,o)
);
}
);
width = 1291;
}
);
},
{
glyphname = "extendedarabicindicfive-arab";
layers = (
{
layerId = m000;
shapes = (
{
closed = 1;
nodes = (
(535,617,l),
(536,624,l),
(537,526,o),
(494,444,o),
(465,444,qs),
(434,444,o),
(330,466,o),
(330,498,qs),
(330,565,o),
(437,690,o),
(594,819,o),
(698,886,q),
(800,779,o),
(997,542,o),
(997,467,q),
(974,444,o),
(868,444,qs),
(788,444,o),
(791,624,q),
(791,617,l)
);
},
{
closed = 1;
nodes = (
(689,245,q),
(699,245,l),
(739,106,o),
(851,-14,o),
(950,-14,qs),
(1125,-14,o),
(1316,287,o),
(1316,560,qs),
(1316,719,o),
(1127,1081,o),
(786,1436,o),
(561,1582,q),
(297,1212,l),
(361,1159,o),
(409,1118,o),
(413,1110,q),
(303,1024,o),
(134,790,o),
(40,533,o),
(40,410,qs),
(40,222,o),
(246,-14,o),
(412,-14,qs),
(524,-14,o),
(639,101,o)
);
}
);
width = 1356;
}
);
unicode = 1781;
},
{
glyphname = "extendedarabicindicfive-arab.EoA";
layers = (
{
layerId = m000;
shapes = (
{
closed = 1;
nodes = (
(223,737,l),
(223,729,l),
(223,664,o),
(193,664,qs),
(168,664,o),
(151,685,o),
(151,705,qs),
(151,756,o),
(216,856,o),
(274,898,q),
(328,847,o),
(392,738,o),
(392,696,qs),
(392,685,o),
(378,664,o),
(356,664,qs),
(320,664,o),
(320,729,qs),
(320,737,l)
);
},
{
closed = 1;
nodes = (
(280,565,l),
(297,530,o),
(346,501,o),
(386,501,qs),
(458,501,o),
(536,601,o),
(536,689,qs),
(536,759,o),
(457,925,o),
(318,1084,o),
(225,1146,q),
(139,1028,l),
(156,1015,o),
(179,999,o),
(186,990,q),
(109,918,o),
(14,749,o),
(14,675,qs),
(14,596,o),
(97,501,o),
(168,501,qs),
(205,501,o),
(255,531,o),
(270,565,q)
);
}
);
width = 550;
}
);
},
{
glyphname = "extendedarabicindicsix-arab";
layers = (
{
layerId = m000;
shapes = (
{
closed = 1;
nodes = (
(454,656,q),
(458,646,l),
(253,470,o),
(143,312,o),
(62,207,q),
(449,-90,l),
(588,102,o),
(776,338,o),
(917,464,o),
(1050,514,o),
(1132,520,qs),
(1154,522,l),
(1114,995,l),
(1093,991,l),
(938,967,o),
(733,949,o),
(675,949,qs),
(535,949,o),
(397,986,o),
(397,1021,qs),
(397,1048,o),
(482,1086,o),
(594,1108,o),
(655,1108,qs),
(727,1108,o),
(870,1070,q),
(1064,1436,l),
(958,1505,o),
(747,1574,o),
(648,1574,qs),
(495,1574,o),
(242,1419,o),
(94,1157,o),
(94,996,qs),
(94,916,o),
(127,777,o),
(223,680,o)
);
}
);
width = 1214;
}
);
unicode = 1782;
},
{
glyphname = "extendedarabicindicsix-arab.EoA";
layers = (
{
layerId = m000;
shapes = (
{
closed = 1;
nodes = (
(211,738,q),
(215,729,l),
(179,704,o),
(105,620,o),
(48,545,q),
(176,447,l),
(263,568,o),
(367,693,o),
(444,733,o),
(493,730,q),
(502,729,l),
(488,889,l),
(478,888,l),
(396,882,o),
(323,877,o),
(304,877,qs),
(206,877,o),
(206,930,qs),
(206,962,o),
(254,1002,o),
(293,1002,qs),
(335,1002,o),
(393,971,q),
(461,1092,l),
(379,1154,o),
(293,1154,qs),
(197,1154,o),
(63,1017,o),
(63,920,qs),
(63,860,o),
(133,770,o)
);
}
);
width = 550;
}
);
},
{
glyphname = "extendedarabicindicseven-arab.urdu";
layers = (
{
layerId = m000;
shapes = (
{
closed = 1;
nodes = (
(1140,586,l),
(1028,540,o),
(791,495,o),
(655,495,qs),
(640,495,o),
(609,491,o),
(593,487,q),
(653,656,o),
(755,998,o),
(831,1349,o),
(853,1525,q),
(354,1593,l),
(328,1390,o),
(230,986,o),
(91,609,o),
(3,448,q),
(140,76,l),
(265,35,o),
(521,-10,o),
(649,-10,qs),
(825,-10,o),
(1166,58,o),
(1320,121,q)
);
}
);
width = 1330;
}
);
},
{
glyphname = divisionslash;
layers = (
{
layerId = m000;
shapes = (
{
closed = 1;
nodes = (
(96,-174,l),
(1102,1141,l),
(870,1318,l),
(-136,1,l)
);
}
);
width = 1182;
}
);
unicode = 8725;
},
{
glyphname = breveinvertedbrevemod;
layers = (
{
layerId = m000;
shapes = (
{
closed = 1;
nodes = (
(341,1459,qs),
(187,1459,o),
(29,1282,o),
(29,1138,q),
(239,1138,l),
(239,1195,o),
(292,1251,o),
(341,1251,qs),
(389,1251,o),
(443,1195,o),
(443,1138,q),
(651,1138,l),
(651,1282,o),
(494,1459,o)
);
}
);
width = 680;
}
);
unicode = 43867;
},
{
glyphname = uniE000;
layers = (
{
layerId = m000;
shapes = (
{
closed = 1;
nodes = (
(0,504,l),
(-26,504,o),
(-61,409,o),
(-61,253,qs),
(-61,99,o),
(-26,0,o),
(0,0,qs),
(82,0,l),
(82,504,l)
);
}
);
width = 79;
}
);
unicode = 57344;
},
{
glyphname = uniE001;
layers = (
{
layerId = m000;
shapes = (
{
closed = 1;
nodes = (
(0,504,l),
(-26,504,o),
(-61,409,o),
(-61,253,qs),
(-61,99,o),
(-26,0,o),
(0,0,qs),
(296,0,l),
(296,504,l)
);
}
);
width = 294;
}
);
unicode = 57345;
},
{
glyphname = uniE002;
layers = (
{
layerId = m000;
shapes = (
{
closed = 1;
nodes = (
(0,504,l),
(-26,504,o),
(-61,409,o),
(-61,253,qs),
(-61,99,o),
(-26,0,o),
(0,0,qs),
(431,0,l),
(431,504,l)
);
}
);
width = 426;
}
);
unicode = 57346;
},
{
glyphname = uniE003;
layers = (
{
layerId = m000;
shapes = (
{
closed = 1;
nodes = (
(1567,1565,l),
(1266,1300,l),
(1192,1181,l),
(443,613,l),
(306,545,l),
(-28,251,l),
(208,0,l),
(520,272,l),
(597,393,l),
(1350,966,l),
(1473,1019,l),
(1806,1312,l)
);
}
);
width = 1561;
}
);
unicode = 57347;
},
{
glyphname = uniE004;
layers = (
{
layerId = m000;
shapes = (
{
closed = 1;
nodes = (
(243,-174,l),
(540,211,l),
(575,326,l),
(929,788,l),
(1041,867,l),
(1249,1141,l),
(1017,1318,l),
(796,1028,l),
(750,902,l),
(402,448,l),
(308,388,l),
(11,1,l)
);
}
);
width = 1257;
}
);
unicode = 57348;
},
{
glyphname = uniE005;
layers = (
{
layerId = m000;
shapes = (
{
closed = 1;
nodes = (
(1306,19,l),
(1059,322,l),
(1039,424,l),
(743,247,l),
(829,183,l),
(965,-181,l)
);
}
);
width = 1507;
}
);
unicode = 57349;
},
{
glyphname = uniE006;
layers = (
{
layerId = m000;
shapes = (
{
closed = 1;
nodes = (
(403,116,l),
(1228,116,l),
(1228,388,l),
(403,388,l)
);
},
{
closed = 1;
nodes = (
(403,399,l),
(1228,399,l),
(1228,669,l),
(403,669,l)
);
}
);
width = 1627;
}
);
unicode = 57350;
},
{
glyphname = uniE007;
layers = (
{
layerId = m000;
shapes = (
{
closed = 1;
nodes = (
(300,1244,qs),
(407,1244,o),
(554,1309,o),
(631,1430,o),
(631,1508,qs),
(631,1546,o),
(613,1604,o),
(563,1644,o),
(516,1654,qs),
(431,1673,o),
(298,1701,o),
(298,1709,qs),
(298,1725,o),
(403,1751,o),
(442,1751,qs),
(480,1751,o),
(564,1736,q),
(629,1936,l),
(519,1954,o),
(461,1954,qs),
(332,1954,o),
(173,1786,o),
(173,1656,qs),
(173,1619,o),
(204,1559,o),
(308,1516,o),
(370,1503,qs),
(423,1492,o),
(505,1491,o),
(505,1479,qs),
(505,1478,o),
(463,1459,o),
(375,1453,o),
(336,1453,qs),
(307,1453,o),
(239,1461,o),
(205,1467,q),
(155,1259,l),
(250,1244,o)
);
}
);
width = 903;
}
);
unicode = 57351;
},
{
glyphname = uniE008;
layers = (
{
layerId = m000;
shapes = (
{
closed = 1;
nodes = (
(445,1361,qs),
(445,1331,o),
(432,1293,o),
(412,1293,qs),
(392,1293,o),
(380,1331,o),
(380,1361,qs),
(380,1392,o),
(394,1426,o),
(412,1426,qs),
(429,1426,o),
(445,1392,o)
);
},
{
closed = 1;
nodes = (
(741,1361,qs),
(741,1440,o),
(662,1579,o),
(515,1667,o),
(412,1667,qs),
(310,1667,o),
(164,1579,o),
(86,1440,o),
(86,1361,qs),
(86,1285,o),
(162,1141,o),
(307,1051,o),
(412,1051,qs),
(516,1051,o),
(663,1141,o),
(741,1285,o)
);
}
);
width = 567;
}
);
unicode = 57352;
},
{
glyphname = uniE009;
layers = (
{
layerId = m000;
shapes = (
{
closed = 1;
nodes = (
(520,1734,l),
(520,1535,l),
(710,1535,l),
(710,1734,l)
);
},
{
closed = 1;
nodes = (
(520,134,l),
(520,-165,l),
(710,-165,l),
(710,134,l)
);
}
);
width = 1197;
}
);
unicode = 57353;
},
{
glyphname = uniE00A;
layers = (
{
layerId = m000;
shapes = (
{
closed = 1;
nodes = (
(45,544,l),
(882,544,l),
(882,825,l),
(45,825,l)
);
}
);
width = 1270;
}
);
unicode = 57354;
},
{
glyphname = uniE010;
layers = (
{
layerId = m000;
shapes = (
{
closed = 1;
nodes = (
(1353,-37,l),
(1113,329,l),
(789,136,l),
(971,-255,l)
);
}
);
width = 1530;
}
);
unicode = 57360;
},
{
glyphname = uniE011;
layers = (
{
layerId = m000;
shapes = (
{
closed = 1;
nodes = (
(533,1564,l),
(533,1006,l),
(721,1006,l),
(721,1564,l)
);
},
{
closed = 1;
nodes = (
(533,190,l),
(533,-334,l),
(721,-334,l),
(721,190,l)
);
}
);
width = 1213;
}
);
unicode = 57361;
},
{
glyphname = uniE012;
layers = (
{
layerId = m000;
shapes = (
{
closed = 1;
nodes = (
(1181,1245,l),
(1274,862,l),
(1791,1312,l),
(1552,1565,l)
);
},
{
closed = 1;
nodes = (
(462,226,l),
(337,577,l),
(-46,252,l),
(192,0,l)
);
}
);
width = 1737;
}
);
unicode = 57362;
},
{
glyphname = uniE013;
layers = (
{
layerId = m000;
shapes = (
{
closed = 1;
nodes = (
(762,984,l),
(950,753,l),
(1251,1142,l),
(1016,1318,l)
);
},
{
closed = 1;
nodes = (
(505,169,l),
(336,427,l),
(9,1,l),
(242,-173,l)
);
}
);
width = 1251;
}
);
unicode = 57363;
},
{
glyphname = uniE014;
layers = (
{
layerId = m000;
shapes = (
{
closed = 1;
nodes = (
(403,256,l),
(1229,256,l),
(1229,529,l),
(403,529,l)
);
}
);
width = 1630;
}
);
unicode = 57364;
},
{
glyphname = uniE015;
layers = (
{
layerId = m000;
shapes = (
{
closed = 1;
nodes = (
(1631,1095,l),
(29,1095,l),
(29,969,l),
(1631,969,l)
);
}
);
width = 1654;
}
);
unicode = 57365;
},
{
glyphname = uniE016;
layers = (
{
layerId = m000;
shapes = (
{
closed = 1;
nodes = (
(49,864,l),
(377,864,l),
(377,1091,l),
(49,1091,l)
);
}
);
width = 421;
}
);
unicode = 57366;
},
{
glyphname = uniE017;
layers = (
{
layerId = m000;
shapes = (
{
closed = 1;
nodes = (
(776,1190,l),
(-10,930,l),
(67,736,l),
(854,997,l)
);
}
);
width = 844;
}
);
unicode = 57367;
},
{
glyphname = uniE018;
layers = (
{
layerId = m000;
shapes = (
{
closed = 1;
nodes = (
(398,-29,l),
(978,1400,l),
(744,1400,l),
(163,-29,l)
);
}
);
width = 1142;
}
);
unicode = 57368;
},
{
glyphname = uniE019;
layers = (
{
layerId = m000;
shapes = (
{
closed = 1;
nodes = (
(641,104,l),
(813,-69,l),
(984,104,l),
(813,276,l)
);
},
{
closed = 1;
nodes = (
(888,104,l),
(1059,-68,l),
(1230,104,l),
(1059,277,l)
);
},
{
closed = 1;
nodes = (
(778,-110,l),
(936,-270,l),
(1093,-110,l),
(936,47,l)
);
}
);
width = 1604;
}
);
unicode = 57369;
},
{
glyphname = uniE01D;
layers = (
{
layerId = m000;
shapes = (
{
closed = 1;
nodes = (
(377,562,l),
(100,280,l),
(377,0,l),
(660,280,l)
);
}
);
width = 755;
}
);
unicode = 57373;
},
{
glyphname = uniE01F;
layers = (
{
layerId = m000;
shapes = (
{
closed = 1;
nodes = (
(412,461,l),
(412,228,o),
(597,1,o),
(783,1,qs),
(957,1,o),
(1134,209,o),
(1181,450,q),
(1076,531,l),
(1054,466,o),
(1027,440,o),
(994,440,qs),
(950,440,o),
(914,506,o),
(914,582,qs),
(914,1196,l),
(412,1196,l)
);
}
);
width = 1043;
}
);
unicode = 57375;
},
{
glyphname = uniE020;
layers = (
{
layerId = m000;
shapes = (
{
closed = 1;
nodes = (
(138.557,631,qs),
(138.557,557.736,o),
(209.126,416.073,o),
(250.557,412.925,q),
(247.557,397.832,l),
(50,347.688,l),
(172.495,-37.092,l),
(1040.754,234.6,l),
(902.863,607.048,l),
(684.695,552,o),
(582.557,552,qs),
(475.932,552,o),
(414.557,601.732,o),
(414.557,624,qs),
(414.557,641.347,o),
(438.855,681.879,o),
(514.684,699,o),
(561.557,699,qs),
(612.855,699,o),
(711.821,689.677,o),
(814.407,654.617,q),
(942.955,923.878,l),
(830.392,1007.854,o),
(658.722,1087,o),
(559.557,1087,qs),
(458.624,1087,o),
(265.705,992.294,o),
(138.557,788.158,o)
);
}
);
width = 1091;
}
);
unicode = 57376;
},
{
glyphname = uniE022;
layers = (
{
layerId = m000;
shapes = (
{
closed = 1;
nodes = (
(539,0,l),
(591.745,789.754,o),
(566,1556,q),
(90,1536,l),
(110,763,o),
(90,0,q)
);
}
);
width = 664;
}
);
unicode = 57378;
},
{
glyphname = uniE023;
layers = (
{
layerId = m000;
shapes = (
{
closed = 1;
nodes = (
(1528,1021.5,l),
(1475,1031.5,o),
(1334,1077.5,o),
(1126,1163.5,o),
(972,1233.5,qs),
(830,1296.5,o),
(643,1354.5,o),
(570,1354.5,qs),
(383,1354.5,o),
(148,1111.5,o),
(75,843.5,qs),
(67,811.5,l),
(409,711.5,l),
(418,740.5,l),
(440,810.5,o),
(508,905.5,o),
(568,905.5,qs),
(610,905.5,o),
(689,871.5,o),
(752,853.5,qs),
(805,839.5,o),
(953,805.5,o),
(1050,800.5,q),
(1050,750.5,l),
(1055.382,749.809,l),
(688.336,746.488,o),
(569,696,qs),
(439,641,o),
(246,492,o),
(116,309,o),
(50,106,o),
(50,-1,qs),
(50,-196,o),
(258,-498,o),
(643,-669,o),
(908,-669,qs),
(1090,-669,o),
(1461,-567,o),
(1647,-468,q),
(1434,-37,l),
(1327,-94,o),
(1053,-158,o),
(904,-158,qs),
(778,-158,o),
(603,-103,o),
(512,-8,o),
(512,51,qs),
(512,129,o),
(627,269,o),
(822,386,o),
(1070,473,o),
(1337,524,o),
(1464,528,q)
);
}
);
width = 1647;
}
);
unicode = 57379;
},
{
glyphname = uniE024;
layers = (
{
layerId = m000;
shapes = (
{
closed = 1;
nodes = (
(1045,517,qs),
(1045,706,o),
(811,1091,o),
(561,1307,q),
(247,932,l),
(331,861,o),
(491,706,o),
(666,530,o),
(686,502,q),
(575,490,o),
(487,487,o),
(404,487,qs),
(342,487,o),
(196,502,o),
(111,528,q),
(0,56,l),
(114,28,o),
(331,-2,o),
(424,-2,qs),
(577,-2,o),
(810,73,o),
(966,213,o),
(1045,401,o)
);
}
);
width = 1095;
}
);
unicode = 57380;
},
{
glyphname = uniE025;
layers = (
{
layerId = m000;
shapes = (
{
closed = 1;
nodes = (
(93,790,l),
(122,706,o),
(174,511,o),
(207,332,o),
(207,269,qs),
(207,124,o),
(-40,-42,o),
(-281,-116,q),
(-61,-566,l),
(316,-432,o),
(674,-31,o),
(674,268,qs),
(674,419,o),
(595,768,o),
(542,943,q)
);
}
);
width = 724;
}
);
unicode = 57381;
},
{
glyphname = uniE026;
layers = (
{
layerId = m000;
shapes = (
{
closed = 1;
nodes = (
(1717,0,qs),
(1833,0,o),
(2005,157,o),
(2010,346,q),
(2020,346,l),
(2027,138,o),
(2191,0,o),
(2337,0,qs),
(2563,0,o),
(2780,333,o),
(2780,612,qs),
(2780,695,o),
(2755,863,o),
(2729,948,q),
(2302,854,l),
(2321,760,o),
(2348,640,o),
(2354,575,o),
(2354,566,qs),
(2354,504,l),
(2290,504,l),
(2231,504,o),
(2178,555,o),
(2179,592,q),
(2178,829,l),
(1813,828,l),
(1813,585,l),
(1813,541,o),
(1786,504,o),
(1732,504,qs),
(1673,504,o),
(1634,552,o),
(1617,598,qs),
(1491,933,l),
(1047,719,l),
(1107,589,o),
(1174,413,o),
(1204,289,o),
(1204,240,qs),
(1204,178,o),
(1131,88,o),
(971,40,o),
(843,40,qs),
(663,40,o),
(510,171,o),
(510,301,qs),
(510,360,o),
(534,516,o),
(569,674,q),
(120,778,l),
(84,647,o),
(50,384,o),
(50,267,qs),
(50,24,o),
(221,-301,o),
(579,-464,o),
(855,-464,qs),
(1053,-464,o),
(1365,-346,o),
(1586,-137,o),
(1575,78,q),
(1581,82,l),
(1585,44,o),
(1638,0,o)
);
}
);
width = 2830;
}
);
unicode = 57382;
},
{
glyphname = uniE027;
layers = (
{
layerId = m000;
shapes = (
{
closed = 1;
nodes = (
(2228,627,qs),
(2334,627,o),
(2414,594,o),
(2414,567,qs),
(2414,543,o),
(2247,480,o),
(2073,480,qs),
(1902,480,o),
(1809,500,q),
(1842,535,o),
(2077,627,o)
);
},
{
closed = 1;
nodes = (
(2265,1084,qs),
(2082,1084,o),
(1752,848,o),
(1621,635,q),
(1596,708,o),
(1536,867,o),
(1503,934,q),
(1059,719,l),
(1118,588,o),
(1188,409,o),
(1218,284,o),
(1218,233,qs),
(1218,136,o),
(1036,40,o),
(849,40,qs),
(673,40,o),
(510,164,o),
(510,301,qs),
(510,361,o),
(534,514,o),
(569,674,q),
(120,778,l),
(84,646,o),
(50,385,o),
(50,267,qs),
(50,-105,o),
(451,-464,o),
(863,-464,qs),
(1084,-464,o),
(1438,-326,o),
(1646,-37,o),
(1625,211,q),
(1817,0,o),
(2093,0,qs),
(2263,0,o),
(2528,149,o),
(2681,401,o),
(2681,554,qs),
(2681,710,o),
(2573,950,o),
(2385,1084,o)
);
}
);
width = 2731;
}
);
unicode = 57383;
},
{
glyphname = uniE028;
layers = (
{
layerId = m000;
shapes = (
{
closed = 1;
nodes = (
(731,472,l),
(785,520,o),
(928,590,o),
(1045,625,o),
(1142,625,qs),
(1224,625,o),
(1341,583,o),
(1341,557,qs),
(1341,543,o),
(1289,513,o),
(1209,488,o),
(1118,472,o),
(1015,472,qs)
);
},
{
closed = 1;
nodes = (
(252,504,q),
(50,504,l),
(50,0,l),
(888,0,l),
(1041,0,o),
(1302,71,o),
(1493,216,o),
(1599,436,o),
(1599,583,qs),
(1599,733,o),
(1493,959,o),
(1303,1084,o),
(1178,1084,qs),
(945,1084,o),
(699,827,q),
(690,835,l),
(766,943,o),
(773,1054,o),
(773,1133,qs),
(773,1556,l),
(315,1536,l),
(335,1048,o),
(315,559,q),
(305,542,o),
(280,521,o)
);
}
);
width = 1650;
}
);
unicode = 57384;
},
{
glyphname = uniE029;
layers = (
{
layerId = m000;
shapes = (
{
closed = 1;
nodes = (
(1198,1326,l),
(978,1474,o),
(761,1474,qs),
(595,1474,o),
(326,1311,o),
(167,1037,o),
(167,868,qs),
(167,760,o),
(240,592,o),
(333,506,q),
(334,496,l),
(238,414,o),
(112,239,o),
(50,52,o),
(50,-50,qs),
(50,-237,o),
(248,-513,o),
(609,-663,o),
(853,-663,qs),
(1155,-663,o),
(1454,-547,q),
(1295,-98,l),
(1192,-124,o),
(969,-151,o),
(873,-151,qs),
(699,-151,o),
(513,-61,o),
(513,26,qs),
(513,110,o),
(689,249,o),
(999,338,o),
(1199,348,q),
(1197,799,l),
(1122,793,o),
(982,786,o),
(923,786,qs),
(702,786,o),
(522,850,o),
(522,899,qs),
(522,935,o),
(580,983,o),
(680,1006,o),
(763,1006,qs),
(804,1006,o),
(920,980,o),
(993,958,q)
);
}
);
width = 1354;
}
);
unicode = 57385;
},
{
glyphname = uniE02A;
layers = (
{
layerId = m000;
shapes = (
{
closed = 1;
nodes = (
(0,504,l),
(-26,504,o),
(-61,410,o),
(-61,253,qs),
(-61,98,o),
(-26,0,o),
(0,0,qs),
(848,0,l),
(848,504,l)
);
}
);
width = 847;
}
);
unicode = 57386;
},
{
glyphname = uniE02B;
layers = (
{
layerId = m000;
shapes = (
{
closed = 1;
nodes = (
(857,504,qs),
(709,504,o),
(557,530,o),
(504,592,o),
(504,648,qs),
(504,681,o),
(523,824,o),
(532,886,q),
(99,980,l),
(79,891,o),
(50,698,o),
(50,615,qs),
(50,402,o),
(226,130,o),
(573,0,o),
(833,0,qs),
(1119,0,o),
(1528,158,o),
(1732,490,o),
(1746,753,qs),
(1766,1056,o),
(1726,1544,q),
(1250,1524,l),
(1290,1056,o),
(1270,753,qs),
(1260,642,o),
(1194,539,o),
(1014,504,o)
);
}
);
width = 1797;
}
);
unicode = 57387;
},
{
glyphname = uniE02C;
layers = (
{
layerId = m000;
shapes = (
{
closed = 1;
nodes = (
(753,9,qs),
(615,9,o),
(500,110,o),
(500,229,qs),
(500,273,o),
(514,402,o),
(529,505,q),
(100,607,l),
(70,425,o),
(50,250,o),
(50,191,qs),
(50,-143,o),
(390,-495,o),
(720,-495,qs),
(951,-495,o),
(1308,-310,o),
(1510,10,o),
(1510,215,qs),
(1530,1056,o),
(1510,1556,q),
(1030,1536,l),
(1050,1056,o),
(1030,256,qs),
(1030,130,o),
(895,9,o)
);
}
);
width = 1610;
}
);
unicode = 57388;
},
{
glyphname = uniE02D;
layers = (
{
layerId = m000;
shapes = (
{
closed = 1;
nodes = (
(903,605,qs),
(946,605,o),
(1034,578,o),
(1105,534,o),
(1105,502,qs),
(1105,478,o),
(1029,439,o),
(941,439,qs),
(934,439,o),
(934,440,o),
(927,440,q),
(874,447,o),
(776,471,o),
(697,490,q),
(726,527,o),
(779,573,o),
(827,596,o),
(867,605,o)
);
},
{
closed = 1;
nodes = (
(906,1064,qs),
(820,1064,o),
(662,1004,o),
(532,885,o),
(440,706,o),
(418,588,q),
(314,582,o),
(147,457,o),
(50,249,o),
(50,118,qs),
(50,-574,l),
(528,-574,l),
(528,20,l),
(528,32,o),
(554,48,o),
(562,48,qs),
(571,48,o),
(626,41,o),
(680,30,qs),
(775,9,o),
(917,-11,o),
(974,-11,qs),
(1169,-11,o),
(1376,237,o),
(1376,470,qs),
(1376,647,o),
(1255,914,o),
(1042,1064,o)
);
}
);
width = 1426;
}
);
unicode = 57389;
},
{
glyphname = uniE02E;
layers = (
{
layerId = m000;
shapes = (
{
closed = 1;
nodes = (
(536,479,qs),
(471,479,o),
(327,502,o),
(327,521,qs),
(327,529,o),
(455,590,o),
(536,627,q),
(616,590,o),
(738,533,o),
(738,521,qs),
(738,502,o),
(596,479,o)
);
},
{
closed = 1;
nodes = (
(535,-11,qs),
(682,-11,o),
(909,110,o),
(1038,315,o),
(1038,442,qs),
(1038,590,o),
(918,857,o),
(736,1084,o),
(540,1262,o),
(466,1322,q),
(172,974,l),
(198,952,o),
(255,900,o),
(296,862,q),
(237,855,o),
(105,734,o),
(50,572,o),
(50,396,qs),
(50,286,o),
(161,100,o),
(378,-11,o)
);
}
);
width = 1088;
}
);
unicode = 57390;
},
{
glyphname = uniE02F;
layers = (
{
layerId = m000;
shapes = (
{
closed = 1;
nodes = (
(600,-38,l),
(524,-67,o),
(297,-96,o),
(131,-111,o),
(53,-121,q),
(275,-569,l),
(648,-432,o),
(989,-30,o),
(989,267,qs),
(989,440,o),
(929,731,o),
(807,943,o),
(620,1061,o),
(493,1061,qs),
(344,1061,o),
(148,887,o),
(50,602,o),
(50,438,qs),
(50,237,o),
(246,3,o),
(439,3,qs),
(450,3,o),
(493,6,o),
(590,13,q)
);
},
{
closed = 1;
nodes = (
(660,455,q),
(542,454,o),
(474,455,o),
(447,455,qs),
(380,455,o),
(308,491,o),
(308,514,qs),
(308,540,o),
(363,569,o),
(431,584,o),
(474,584,qs),
(519,584,o),
(590,575,o),
(648,549,o),
(662,499,o)
);
}
);
width = 1039;
}
);
unicode = 57391;
},
{
glyphname = uniE030;
layers = (
{
layerId = m000;
shapes = (
{
closed = 1;
nodes = (
(42,1483,qs),
(54,1483,o),
(79,1469,o),
(79,1449,qs),
(79,1399,o),
(49,1373,q),
(9,1395,o),
(-18,1427,o),
(-21,1449,o),
(-21,1449,q),
(-21,1462,o),
(22,1483,o)
);
},
{
closed = 1;
nodes = (
(82,1660,qs),
(18,1660,o),
(-95,1614,o),
(-178,1507,o),
(-178,1447,qs),
(-178,1422,o),
(-165,1362,o),
(-146,1307,o),
(-121,1289,q),
(-124,1291,o),
(-159,1273,o),
(-155,1273,q),
(-186,1333,o),
(-254,1417,o),
(-300,1443,q),
(-410,1274,l),
(-343,1243,o),
(-263,1148,o),
(-219,1040,q),
(-77,1075,o),
(137,1214,o),
(256,1385,o),
(256,1465,qs),
(256,1558,o),
(160,1660,o)
);
}
);
}
);
unicode = 57392;
},
{
glyphname = uniE031;
layers = (
{
layerId = m000;
shapes = (
{
closed = 1;
nodes = (
(305,1423,l),
(-269,1268,l),
(-205,1054,l),
(369,1208,l)
);
}
);
}
);
unicode = 57393;
},
{
glyphname = uniE032;
layers = (
{
layerId = m000;
shapes = (
{
closed = 1;
nodes = (
(39,1483,qs),
(57,1483,o),
(79,1469,o),
(79,1449,qs),
(79,1399,o),
(49,1373,q),
(10,1395,o),
(-17,1427,o),
(-21,1449,o),
(-21,1449,q),
(-21,1466,o),
(12,1483,o)
);
},
{
closed = 1;
nodes = (
(82,1660,qs),
(18,1660,o),
(-105,1614,o),
(-188,1507,o),
(-188,1447,qs),
(-188,1421,o),
(-175,1362,o),
(-146,1308,o),
(-121,1290,q),
(-176,1270,o),
(-250,1244,o),
(-266,1240,q),
(-215,1040,l),
(-75,1075,o),
(137,1216,o),
(256,1387,o),
(256,1465,qs),
(256,1558,o),
(160,1660,o)
);
}
);
}
);
unicode = 57394;
},
{
glyphname = uniE033;
layers = (
{
layerId = m000;
shapes = (
{
closed = 1;
nodes = (
(-20,1130,q),
(-10,1130,l),
(6,1100,o),
(70,1061,o),
(104,1061,qs),
(181,1061,o),
(278,1162,o),
(278,1242,qs),
(278,1310,o),
(261,1391,o),
(243,1442,q),
(82,1390,l),
(88,1382,o),
(105,1322,o),
(105,1299,qs),
(105,1269,o),
(86,1269,qs),
(78,1269,o),
(58,1294,o),
(58,1314,qs),
(58,1371,l),
(-88,1371,l),
(-88,1314,l),
(-88,1294,o),
(-108,1269,o),
(-116,1269,qs),
(-137,1269,o),
(-137,1299,qs),
(-137,1322,o),
(-118,1382,o),
(-113,1390,q),
(-274,1442,l),
(-290,1391,o),
(-309,1310,o),
(-309,1242,qs),
(-309,1162,o),
(-212,1061,o),
(-134,1061,qs),
(-102,1061,o),
(-38,1100,o)
);
}
);
}
);
unicode = 57395;
},
{
glyphname = uniE034;
layers = (
{
layerId = m000;
shapes = (
{
closed = 1;
nodes = (
(0,1305,qs),
(26,1305,o),
(75,1275,o),
(75,1257,qs),
(75,1238,o),
(25,1205,o),
(0,1205,qs),
(-25,1205,o),
(-75,1237,o),
(-75,1257,qs),
(-75,1276,o),
(-29,1305,o)
);
},
{
closed = 1;
nodes = (
(0,1449,qs),
(-82,1449,o),
(-197,1339,o),
(-197,1256,qs),
(-197,1175,o),
(-82,1061,o),
(0,1061,qs),
(83,1061,o),
(197,1175,o),
(197,1256,qs),
(197,1338,o),
(82,1449,o)
);
}
);
}
);
unicode = 57396;
},
{
glyphname = uniE035;
layers = (
{
layerId = m000;
shapes = (
{
closed = 1;
nodes = (
(-226,1240,l),
(-226,1289,o),
(-159,1378,o),
(-91,1378,qs),
(-43,1378,o),
(242,1343,o),
(349,1383,q),
(322,1691,l),
(197,1629,o),
(-47,1675,o),
(-133,1675,qs),
(-311.52,1672,o),
(-470,1462,o),
(-470,1240,q)
);
}
);
}
);
unicode = 57397;
},
{
glyphname = uniE036;
layers = (
{
layerId = m000;
shapes = (
{
closed = 1;
nodes = (
(188.815,1677.566,l),
(132.521,1685.844,o),
(75.068,1692,o),
(53,1692,qs),
(-66.934,1692,o),
(-216,1551.639,o),
(-216,1442,qs),
(-216,1391.754,o),
(-190.955,1330.619,o),
(-158,1323.844,q),
(-155,1315.965,l),
(-290.82,1275.547,l),
(-220.401,1035.645,l),
(290.696,1200.968,l),
(220.353,1439.42,l),
(84.166,1394.807,l),
(72.148,1390,o),
(47,1386,qs),
(-8.845,1377,o),
(-53,1401.461,o),
(-53,1422,qs),
(-53,1446.357,o),
(2.107,1480,o),
(51,1480,qs),
(70.701,1480,o),
(116.062,1472.214,o),
(173.879,1467.244,q)
);
}
);
}
);
unicode = 57398;
},
{
glyphname = uniE037;
layers = (
{
layerId = m000;
shapes = (
{
closed = 1;
nodes = (
(102,1054,l),
(307,1348,l),
(128,1480,l),
(0,1275,l),
(-128,1480,l),
(-307,1348,l),
(-102,1054,l)
);
}
);
}
);
unicode = 57399;
},
{
glyphname = uniE038;
layers = (
{
layerId = m000;
shapes = (
{
closed = 1;
nodes = (
(1832,1023,q),
(1380,934,l),
(1387,872,o),
(1405,722,o),
(1474,555,q),
(1395,525,o),
(1280,505,o),
(1147,504,o),
(968,504,qs),
(786,504,o),
(582,519,o),
(499,594,o),
(499,684,qs),
(499,723,o),
(519,876,o),
(526,934,q),
(105,1023,l),
(83,925,o),
(50,706,o),
(50,621,qs),
(50,395,o),
(236,123,o),
(639,0,o),
(968,0,qs),
(1295,0,o),
(1698,122,o),
(1884,394,o),
(1884,618,qs),
(1884,699,o),
(1855,918,o)
);
}
);
width = 1934;
}
);
unicode = 57400;
},
{
glyphname = uniE039;
layers = (
{
layerId = m000;
shapes = (
{
closed = 1;
nodes = (
(1336,499,q),
(1304,495,o),
(1139,494,o),
(1102,494,qs),
(1036,494,o),
(924,530,o),
(924,552,qs),
(924,579,o),
(999,609,o),
(1086,624,o),
(1127,624,qs),
(1172,624,o),
(1265,616,o),
(1321,591,o),
(1338,542,o)
);
},
{
closed = 1;
nodes = (
(1148,1100,qs),
(1019,1100,o),
(818,947,o),
(706,666,o),
(706,476,qs),
(706,291,o),
(902,81,o),
(1086,81,qs),
(1106,81,o),
(1154,82,o),
(1266,91,q),
(1275,30,l),
(1172,21,o),
(933,11,o),
(841,11,qs),
(688,11,o),
(527,123,o),
(527,228,qs),
(527,309,o),
(552,506,o),
(579,651,q),
(115,742,l),
(81,534,o),
(50,272,o),
(50,180,qs),
(50,-150,o),
(445,-496,o),
(824,-496,qs),
(1073,-496,o),
(1442,-302,o),
(1645,55,o),
(1645,299,qs),
(1645,495,o),
(1575,793,o),
(1444,997,o),
(1261,1100,o)
);
}
);
width = 1695;
}
);
unicode = 57401;
},
{
glyphname = uniE03A;
layers = (
{
layerId = m000;
shapes = (
{
closed = 1;
nodes = (
(-105,1497,l),
(-105,1011,l),
(106,1011,l),
(106,1497,l)
);
}
);
}
);
unicode = 57402;
},
{
glyphname = uniE03B;
layers = (
{
layerId = m000;
shapes = (
{
closed = 1;
nodes = (
(1492,582,q),
(1492,533,o),
(1461,512,o),
(1365,505,o),
(1171,504,o),
(1009,504,qs),
(808,504,o),
(586,531,o),
(499,601,o),
(499,665,qs),
(499,688,o),
(515,814,o),
(526,891,q),
(95,984,l),
(77,888,o),
(50,682,o),
(50,611,qs),
(50,396,o),
(239,126,o),
(642,0,o),
(967,0,qs),
(1220,0,o),
(1577,72,o),
(1800,231,o),
(1903,482,o),
(1903,663,qs),
(1903,920,o),
(1775,1273,o),
(1540,1485,o),
(1379,1485,qs),
(1240,1485,o),
(1040,1335,o),
(932,1090,o),
(932,894,qs),
(932,738,o),
(1117,577,o),
(1314,577,qs),
(1358,577,o),
(1445,580,o)
);
},
{
closed = 1;
nodes = (
(1577,915,q),
(1542,914,o),
(1376,913,o),
(1348,913,qs),
(1143,913,o),
(1143,960,qs),
(1143,997,o),
(1203,1041,o),
(1294,1063,o),
(1353,1063,qs),
(1419,1063,o),
(1559,995,o)
);
}
);
width = 1953;
}
);
unicode = 57403;
},
{
glyphname = uniE03C;
layers = (
{
layerId = m000;
shapes = (
{
closed = 1;
nodes = (
(96,1008,l),
(50,743,o),
(50,592,qs),
(50,389,o),
(225,127,o),
(584,0,o),
(863,0,qs),
(1289,0,o),
(1754,278,o),
(1754,534,qs),
(1754,622,o),
(1695,778,o),
(1513,951,o),
(1205,1081,q),
(1203,1115,l),
(1425,1115,o),
(1735,1151,o),
(1810,1155,q),
(1747,1654,l),
(1583,1632,o),
(1114,1474,o),
(859,1343,q),
(827,958,l),
(1008,823,o),
(1204,670,o),
(1280,595,o),
(1280,577,qs),
(1280,546,o),
(1045,504,o),
(860,504,qs),
(728,504,o),
(571,532,o),
(501,597,o),
(501,651,qs),
(501,683,o),
(518,854,o),
(527,917,q)
);
}
);
width = 1810;
}
);
unicode = 57404;
},
{
glyphname = uniE03D;
layers = (
{
layerId = m000;
shapes = (
{
closed = 1;
nodes = (
(1040,759,l),
(1099,627,o),
(1168,447,o),
(1197,323,o),
(1197,273,qs),
(1197,202,o),
(1116,102,o),
(959,50,o),
(840,50,qs),
(660,50,o),
(510,193,o),
(510,341,qs),
(510,400,o),
(534,556,o),
(569,714,q),
(120,818,l),
(84,687,o),
(50,424,o),
(50,307,qs),
(50,54,o),
(231,-285,o),
(582,-456,o),
(852,-456,qs),
(1096,-456,o),
(1457,-259,o),
(1663,92,o),
(1663,322,qs),
(1663,443,o),
(1569,792,o),
(1484,974,q)
);
}
);
width = 1712;
}
);
unicode = 57405;
},
{
glyphname = uniE03E;
layers = (
{
layerId = m000;
shapes = (
{
closed = 1;
nodes = (
(1602,1121,l),
(1517,1156,o),
(1376,1185,o),
(1303,1185,qs),
(1164,1185,o),
(920,1090,o),
(748,933,o),
(634,706,o),
(634,576,qs),
(634,480,o),
(684,347,o),
(797,236,o),
(984,169,o),
(1121,158,qs),
(1159,155,o),
(1262,146,o),
(1359,139,o),
(1359,136,qs),
(1359,122,o),
(1187,83,o),
(951,54,o),
(852,54,qs),
(655,54,o),
(508,169,o),
(508,285,qs),
(508,338,o),
(533,530,o),
(558,676,q),
(103,759,l),
(91,673,o),
(66,460,o),
(50,277,o),
(50,232,qs),
(50,-86,o),
(449,-447,o),
(832,-447,qs),
(1089,-447,o),
(1467,-274,o),
(1673,40,o),
(1673,248,qs),
(1673,344,o),
(1616,468,o),
(1483,535,o),
(1367,547,qs),
(1220,561,o),
(1089,575,o),
(936,601,o),
(936,617,qs),
(936,637,o),
(1034,679,o),
(1164,718,o),
(1275,718,qs),
(1374,718,o),
(1486,682,q)
);
}
);
width = 1724;
}
);
unicode = 57406;
},
{
glyphname = uniE03F;
layers = (
{
layerId = m000;
shapes = (
{
closed = 1;
nodes = (
(1580,305,q),
(1590,305,l),
(1641,195,o),
(1764,45,o),
(1908,1,o),
(1995,0,qs),
(1996,0,l),
(1996,504,l),
(1995,504,l),
(1932,504,o),
(1830,553,o),
(1731,666,o),
(1654,761,q),
(1613,820,o),
(1543,902,o),
(1459,967,o),
(1302,1037,o),
(1205,1081,q),
(1203,1115,l),
(1463,1094,o),
(1721,1139,o),
(1810,1155,q),
(1747,1654,l),
(1580,1631,o),
(1112,1473,o),
(859,1343,q),
(827,958,l),
(1066,783,o),
(1265,611,o),
(1265,580,qs),
(1265,547,o),
(1048,504,o),
(859,504,qs),
(726,504,o),
(568,532,o),
(498,595,o),
(498,649,qs),
(498,674,o),
(515,833,o),
(526,917,q),
(95,1008,l),
(74,892,o),
(50,671,o),
(50,592,qs),
(50,388,o),
(226,125,o),
(591,0,o),
(877,0,qs),
(1127,0,o),
(1464,148,o)
);
}
);
width = 1995;
}
);
unicode = 57407;
},
{
glyphname = uniE040;
layers = (
{
layerId = m000;
shapes = (
{
closed = 1;
nodes = (
(120,778,l),
(84,644,o),
(50,384,o),
(50,267,qs),
(50,10,o),
(232,-329,o),
(575,-497,o),
(832,-497,qs),
(1033,-497,o),
(1366,-332,o),
(1571,-46,o),
(1533,164,q),
(1540,167,l),
(1569,77,o),
(1690,0,o),
(1750,0,qs),
(1791,0,l),
(1791,504,l),
(1765,504,l),
(1706,504,o),
(1634,518,o),
(1593,556,o),
(1579,592,qs),
(1447,934,l),
(1002,719,l),
(1061,590,o),
(1129,414,o),
(1159,290,o),
(1159,238,qs),
(1159,118,o),
(994,6,o),
(821,6,qs),
(652,6,o),
(510,149,o),
(510,302,qs),
(510,362,o),
(534,518,o),
(569,674,q)
);
}
);
width = 1791;
}
);
unicode = 57408;
},
{
glyphname = uniE041;
layers = (
{
layerId = m000;
shapes = (
{
closed = 1;
nodes = (
(-61,504,o),
(-61,253,qs),
(-61,0,o),
(0,0,qs),
(227,0,o),
(530,102,o),
(716,374,o),
(716,598,qs),
(716,679,o),
(687,898,o),
(664,1003,q),
(217,901,l),
(306,535,l),
(264,524,o),
(186,511,o),
(89,504,o),
(0,504,qs)
);
}
);
width = 769;
}
);
unicode = 57409;
},
{
glyphname = uniE042;
layers = (
{
layerId = m000;
shapes = (
{
closed = 1;
nodes = (
(732,633,qs),
(732,854,l),
(257,854,l),
(257,633,l),
(257,560,o),
(238,508,o),
(175,504,o),
(109,504,qs),
(0,504,l),
(-31,504,o),
(-61,388,o),
(-61,253,qs),
(-61,118,o),
(-31,0,o),
(0,0,qs),
(109,0,l),
(227,0,o),
(435,124,o),
(489,249,q),
(499,249,l),
(554,122,o),
(766,0,o),
(893,0,q),
(892,0,l),
(892,504,l),
(894,504,l),
(819,504,o),
(750,507,o),
(732,558,o)
);
}
);
width = 894;
}
);
unicode = 57410;
},
{
glyphname = uniE043;
layers = (
{
layerId = m000;
shapes = (
{
closed = 1;
nodes = (
(1431,-20,q),
(1431,0,l),
(1643,0,l),
(1643,504,l),
(839,504,l),
(765,-1,l),
(917,-24,o),
(1110,-48,o),
(1239,-73,o),
(1239,-90,qs),
(1239,-110,o),
(1103,-122,o),
(949,-130,o),
(864,-130,qs),
(666,-130,o),
(491,-35,o),
(491,91,qs),
(491,324,o),
(540,592,q),
(105,677,l),
(76,525,o),
(50,202,o),
(50,48,qs),
(50,-297,o),
(453,-607,o),
(857,-607,qs),
(992,-607,o),
(1244,-564,o),
(1443,-448,o),
(1559,-289,o),
(1559,-172,qs),
(1559,-64,o),
(1482,-23,o)
);
}
);
width = 1645;
}
);
unicode = 57411;
},
{
glyphname = uniE044;
layers = (
{
layerId = m000;
shapes = (
{
closed = 1;
nodes = (
(69,1536,l),
(69,702,l),
(69,355,o),
(385,0,o),
(642,0,qs),
(703,0,l),
(703,504,l),
(702,504,l),
(622,504,o),
(546,537,o),
(546,594,qs),
(546,1556,l)
);
}
);
width = 701;
}
);
unicode = 57412;
},
{
glyphname = uniE045;
layers = (
{
layerId = m000;
shapes = (
{
closed = 1;
nodes = (
(600.492,686.725,o),
(432,583.5,qs),
(250,472,o),
(50,152,o),
(50,-41,qs),
(50,-240,o),
(264,-542,o),
(650,-709,o),
(908,-709,qs),
(1273,-709,o),
(1647,-508,q),
(1434,-77,l),
(1326,-134,o),
(1052,-198,o),
(904,-198,qs),
(786,-198,o),
(609,-147,o),
(512,-52,o),
(512,11,qs),
(512,86,o),
(620,228,o),
(805,318,o),
(1041,374,o),
(1144,375,q),
(1169,203,o),
(1291,101.5,qs),
(1410.617,1.982,o),
(1629,0.034,q),
(1629,504,l),
(1557,504,l),
(1518,504,o),
(1452,509,o),
(1395,518,q),
(1395,565,l),
(1419,565,o),
(1448,565,o),
(1464,563,q),
(1528,981.5,l),
(1475,991.5,o),
(1334,1037.5,o),
(1126,1123.5,o),
(972,1193.5,qs),
(830,1256.5,o),
(643,1314.5,o),
(570,1314.5,qs),
(383,1314.5,o),
(148,1071.5,o),
(75,803.5,qs),
(67,771.5,l),
(409,671.5,l),
(418,700.5,l),
(440,770.5,o),
(508,865.5,o),
(568,865.5,qs),
(610,865.5,o),
(689,831.5,o),
(752,813.5,qs),
(805,799.5,o),
(953,765.5,o),
(1050,760.5,q),
(1050,707.393,l)
);
}
);
width = 1630;
}
);
unicode = 57413;
},
{
glyphname = uniE046;
layers = (
{
layerId = m000;
shapes = (
{
closed = 1;
nodes = (
(495,1243,qs),
(308,1243,o),
(66,1004,o),
(-1,733,q),
(-9,704,l),
(332,603,l),
(342,631,l),
(364,699,o),
(431,758,o),
(491,758,qs),
(516,758,o),
(589,741,o),
(648,723,qs),
(693,708,o),
(842,668,o),
(990,663,q),
(990,623,l),
(842,594,l),
(685,560,o),
(566,522,o),
(396,504,o),
(329,504,qs),
(0,504,l),
(-32,504,o),
(-61,390,o),
(-61,253,qs),
(-61,117,o),
(-32,0,o),
(0,0,qs),
(225,0,l),
(409,0,o),
(738,58,o),
(937,175,qs),
(1457,483,l),
(1457,928,l),
(1358,948,o),
(1127,1023,o),
(953,1095,qs),
(795,1162,o),
(643,1219,o),
(538,1243,o)
);
}
);
width = 1507;
}
);
unicode = 57414;
},
{
glyphname = uniE047;
layers = (
{
layerId = m000;
shapes = (
{
closed = 1;
nodes = (
(499,1239,qs),
(312,1239,o),
(70,1000,o),
(3,729,q),
(-5,700,l),
(336,599,l),
(346,627,l),
(368,695,o),
(435,754,o),
(495,754,qs),
(520,754,o),
(593,737,o),
(652,719,qs),
(699,704,o),
(842,668,o),
(990,663,q),
(990,623,l),
(842,594,l),
(685,559,o),
(566,522,o),
(396,504,o),
(329,504,qs),
(0,504,l),
(-32,504,o),
(-61,390,o),
(-61,253,qs),
(-61,117,o),
(-32,0,o),
(0,0,qs),
(225,0,l),
(409,0,o),
(766,61,o),
(925,233,qs),
(1008,325,l),
(1103,164,o),
(1368,0,o),
(1531,0,qs),
(1536,0,l),
(1536,504,l),
(1529,504,l),
(1495,504,o),
(1356,509,o),
(1320,510,q),
(1320,520,l),
(1457,593,l),
(1457,928,l),
(1358,948,o),
(1127,1023,o),
(953,1095,qs),
(799,1157,o),
(647,1215,o),
(542,1239,o)
);
}
);
width = 1535;
}
);
unicode = 57415;
},
{
glyphname = uniE048;
layers = (
{
layerId = m000;
shapes = (
{
closed = 1;
nodes = (
(839,1290,l),
(398,1076,l),
(642,528,l),
(592,511,o),
(469,495,o),
(398,495,qs),
(347,495,o),
(216,520,o),
(147,541,q),
(20,89,l),
(52,69,o),
(288,-10,o),
(408,-10,qs),
(589,-10,o),
(836,153,o),
(876,298,q),
(886,298,l),
(948,138,o),
(1130,0,o),
(1289,0,q),
(1287,0,l),
(1287,504,l),
(1289,504,l),
(1234,504,o),
(1173,529,o),
(1124,616,o),
(1084,709,qs)
);
}
);
width = 1285;
}
);
unicode = 57416;
},
{
glyphname = uniE049;
layers = (
{
layerId = m000;
shapes = (
{
closed = 1;
nodes = (
(93,790,l),
(143,633,o),
(207,347,o),
(207,269,qs),
(207,182,o),
(110,51,o),
(-104,-60,o),
(-281,-116,q),
(-61,-566,l),
(176,-481,o),
(485,-270,o),
(587,-13,o),
(580,177,q),
(590,180,l),
(614,94,o),
(705,0,o),
(779,0,qs),
(837,0,l),
(837,504,l),
(834,504,l),
(768,504,o),
(695,530,o),
(648,611,o),
(621,696,qs),
(542,943,l)
);
}
);
width = 836;
}
);
unicode = 57417;
},
{
glyphname = uniE04A;
layers = (
{
layerId = m000;
shapes = (
{
closed = 1;
nodes = (
(2564,324,q),
(2574,324,l),
(2595,126,o),
(2740,0,o),
(2855,0,qs),
(2925,0,l),
(2925,504,l),
(2925,504,l),
(2874,504,o),
(2802,518,o),
(2744,553,o),
(2717,611,o),
(2717,655,qs),
(2718,843,l),
(2313,842,l),
(2314,784,o),
(2314,652,o),
(2314,576,o),
(2314,567,qs),
(2314,503,o),
(2250,504,qs),
(2217,504,o),
(2178,544,o),
(2178,581,qs),
(2177,827,l),
(1812,826,l),
(1812,573,l),
(1812,539,o),
(1786,504,o),
(1732,504,qs),
(1683,504,o),
(1633,556,o),
(1617,598,qs),
(1491,933,l),
(1047,719,l),
(1107,589,o),
(1174,413,o),
(1204,289,o),
(1204,240,qs),
(1204,178,o),
(1131,88,o),
(971,40,o),
(843,40,qs),
(663,40,o),
(510,171,o),
(510,301,qs),
(510,360,o),
(534,516,o),
(569,674,q),
(120,778,l),
(84,647,o),
(50,384,o),
(50,267,qs),
(50,24,o),
(221,-301,o),
(579,-464,o),
(855,-464,qs),
(1053,-464,o),
(1365,-346,o),
(1556,-177,o),
(1555,78,q),
(1561,82,l),
(1571,39,o),
(1648,0,o),
(1737,0,qs),
(1852,0,o),
(2007,152,o),
(2010,336,q),
(2020,336,l),
(2033,133,o),
(2124,0,o),
(2273,0,qs),
(2434,0,o),
(2544,143,o)
);
}
);
width = 2925;
}
);
unicode = 57418;
},
{
glyphname = uniE04B;
layers = (
{
layerId = m000;
shapes = (
{
closed = 1;
nodes = (
(692,504,qs),
(615,504,o),
(582,545,o),
(582,590,qs),
(582,827,l),
(134,827,l),
(134,570,l),
(134,540,o),
(85,504,o),
(19,504,qs),
(0,504,l),
(-32,504,o),
(-61,390,o),
(-61,258,qs),
(-61,123,o),
(-31,0,o),
(0,0,qs),
(9,0,l),
(149,0,o),
(306,140,o),
(337,310,q),
(347,310,l),
(382,135,o),
(485,0,o),
(663,0,qs),
(947,0,o),
(958,336,q),
(968,336,l),
(997,164,o),
(1111,0,o),
(1290,0,qs),
(1509,0,o),
(1737,321,o),
(1737,608,qs),
(1737,672,o),
(1725,804,o),
(1702,892,o),
(1687,954,q),
(1276,846,l),
(1287,781,o),
(1305,652,o),
(1311,591,o),
(1311,577,qs),
(1311,504,l),
(1254,504,l),
(1218,504,o),
(1174,539,o),
(1172,568,q),
(1173,820,l),
(803,819,l),
(802,588,l),
(802,550,o),
(767,504,o)
);
}
);
width = 1788;
}
);
unicode = 57419;
},
{
glyphname = uniE04C;
layers = (
{
layerId = m000;
shapes = (
{
closed = 1;
nodes = (
(1612,324,q),
(1622,324,l),
(1636,146,o),
(1749,0,o),
(1913,0,qs),
(1914,0,l),
(1914,504,l),
(1913,504,l),
(1848,504,o),
(1769,519,o),
(1712,572,o),
(1712,625,qs),
(1713,843,l),
(1302,842,l),
(1302,782,o),
(1302,648,o),
(1302,573,o),
(1302,565,qs),
(1302,531,o),
(1279,504,o),
(1236,504,qs),
(1198,504,o),
(1174,534,o),
(1174,568,qs),
(1175,825,l),
(803,819,l),
(802,569,l),
(802,534,o),
(747,504,o),
(682,504,qs),
(615,504,o),
(573,538,o),
(574,572,q),
(574,827,l),
(134,827,l),
(134,570,l),
(134,540,o),
(85,504,o),
(19,504,qs),
(0,504,l),
(-32,504,o),
(-61,390,o),
(-61,258,qs),
(-61,123,o),
(-31,0,o),
(0,0,qs),
(9,0,l),
(149,0,o),
(306,140,o),
(337,310,q),
(347,310,l),
(383,135,o),
(494,0,o),
(653,0,qs),
(957,0,o),
(958,336,q),
(968,336,l),
(997,164,o),
(1110,0,o),
(1272,0,qs),
(1451,0,o),
(1574,149,o)
);
}
);
width = 1913;
}
);
unicode = 57420;
},
{
glyphname = uniE04D;
layers = (
{
layerId = m000;
shapes = (
{
closed = 1;
nodes = (
(2228,627,qs),
(2334,627,o),
(2414,594,o),
(2414,567,qs),
(2414,543,o),
(2247,480,o),
(2073,480,qs),
(1902,480,o),
(1809,500,q),
(1842,535,o),
(2067,627,o)
);
},
{
closed = 1;
nodes = (
(2265,1084,qs),
(2082,1084,o),
(1752,848,o),
(1621,635,q),
(1596,709,o),
(1536,866,o),
(1503,934,q),
(1059,719,l),
(1118,588,o),
(1188,409,o),
(1218,284,o),
(1218,233,qs),
(1218,136,o),
(1036,40,o),
(849,40,qs),
(673,40,o),
(510,164,o),
(510,301,qs),
(510,361,o),
(533,516,o),
(569,674,q),
(120,778,l),
(83,645,o),
(50,384,o),
(50,267,qs),
(50,-105,o),
(451,-464,o),
(863,-464,qs),
(1083,-464,o),
(1438,-326,o),
(1646,-6,o),
(1625,211,q),
(1817,0,o),
(2093,0,qs),
(2199,0,o),
(2389,129,o),
(2467,246,q),
(2479,119,o),
(2628,0,o),
(2706,0,qs),
(2757,0,l),
(2757,504,l),
(2756,504,l),
(2711,504,o),
(2692,505,o),
(2671,508,q),
(2681,524,o),
(2681,554,qs),
(2681,710,o),
(2573,950,o),
(2385,1084,o)
);
}
);
width = 2757;
}
);
unicode = 57421;
},
{
glyphname = uniE04E;
layers = (
{
layerId = m000;
shapes = (
{
closed = 1;
nodes = (
(1212,628,qs),
(1317,628,o),
(1399,596,o),
(1399,568,qs),
(1399,560,o),
(1356,526,o),
(1241,493,o),
(1120,479,o),
(1055,479,qs),
(1008,479,o),
(834,485,o),
(793,499,q),
(811,518,o),
(920,580,o),
(1081,628,o)
);
},
{
closed = 1;
nodes = (
(473,276,q),
(484,276,l),
(564,136,o),
(827,0,o),
(1037,0,qs),
(1177,0,o),
(1408,90,o),
(1575,245,o),
(1666,444,o),
(1666,554,qs),
(1666,707,o),
(1552,947,o),
(1357,1084,o),
(1236,1084,qs),
(1132,1084,o),
(933,990,o),
(734,806,o),
(629,671,q),
(632,682,o),
(632,687,o),
(632,698,o),
(632,712,qs),
(632,864,l),
(156,864,l),
(156,577,l),
(156,541,o),
(119,512,o),
(50,504,o),
(2,504,qs),
(0,504,l),
(-31,504,o),
(-61,388,o),
(-61,253,qs),
(-61,116,o),
(-31,0,o),
(0,0,qs),
(2,0,l),
(179,0,o),
(416,139,o)
);
}
);
width = 1716;
}
);
unicode = 57422;
},
{
glyphname = uniE04F;
layers = (
{
layerId = m000;
shapes = (
{
closed = 1;
nodes = (
(156,864,l),
(156,577,l),
(156,541,o),
(119,512,o),
(50,504,o),
(2,504,qs),
(0,504,l),
(-31,504,o),
(-61,388,o),
(-61,253,qs),
(-61,116,o),
(-31,0,o),
(0,0,qs),
(2,0,l),
(179,0,o),
(416,139,o),
(473,276,q),
(484,276,l),
(564,136,o),
(827,0,o),
(1037,0,qs),
(1156,0,o),
(1357,132,o),
(1437,250,q),
(1468,127,o),
(1606,0,o),
(1696,0,qs),
(1727,0,l),
(1727,504,l),
(1726,504,l),
(1693,504,o),
(1673,505,o),
(1653,508,q),
(1663,513,o),
(1666,538,o),
(1666,554,qs),
(1666,707,o),
(1552,947,o),
(1357,1084,o),
(1236,1084,qs),
(1132,1084,o),
(933,990,o),
(734,806,o),
(629,671,q),
(632,681,o),
(632,689,o),
(632,699,o),
(632,712,qs),
(632,864,l)
);
},
{
closed = 1;
nodes = (
(1212,628,qs),
(1317,628,o),
(1399,596,o),
(1399,568,qs),
(1399,560,o),
(1356,526,o),
(1241,493,o),
(1120,479,o),
(1055,479,qs),
(1008,479,o),
(834,485,o),
(793,499,q),
(811,518,o),
(920,580,o),
(1081,628,o)
);
}
);
width = 1728;
}
);
unicode = 57423;
},
{
glyphname = uniE050;
layers = (
{
layerId = m000;
shapes = (
{
closed = 1;
nodes = (
(731,472,l),
(785,520,o),
(928,590,o),
(1045,625,o),
(1142,625,qs),
(1224,625,o),
(1341,583,o),
(1341,557,qs),
(1341,543,o),
(1289,513,o),
(1209,488,o),
(1118,472,o),
(1015,472,qs)
);
},
{
closed = 1;
nodes = (
(252,504,q),
(50,504,l),
(50,0,l),
(888,0,l),
(1033,0,o),
(1284,121,o),
(1377,245,q),
(1385,122,o),
(1539,0,o),
(1618,0,qs),
(1679,0,l),
(1679,504,l),
(1648,504,l),
(1610,504,o),
(1603,504,o),
(1591,505,q),
(1599,509,o),
(1599,558,o),
(1599,583,qs),
(1599,733,o),
(1493,959,o),
(1303,1084,o),
(1178,1084,qs),
(945,1084,o),
(689,817,q),
(680,825,l),
(766,943,o),
(773,1054,o),
(773,1133,qs),
(773,1556,l),
(315,1536,l),
(335,1048,o),
(315,559,q),
(305,532,o),
(280,511,o)
);
}
);
width = 1679;
}
);
unicode = 57424;
},
{
glyphname = uniE051;
layers = (
{
layerId = m000;
shapes = (
{
closed = 1;
nodes = (
(0,0,qs),
(705,0,l),
(858,0,o),
(1117,71,o),
(1309,216,o),
(1415,436,o),
(1415,583,qs),
(1415,740,o),
(1302,965,o),
(1111,1084,o),
(993,1084,qs),
(865,1084,o),
(618,937,o),
(492,807,q),
(483,815,l),
(571,926,o),
(588,1039,o),
(588,1133,qs),
(588,1556,l),
(130,1536,l),
(150,1048,o),
(130,559,q),
(121,532,o),
(95,511,o),
(68,504,q),
(0,504,l),
(-26,504,o),
(-61,410,o),
(-61,253,qs),
(-61,98,o),
(-26,0,o)
);
},
{
closed = 1;
nodes = (
(544,472,l),
(598,522,o),
(742,589,o),
(859,624,o),
(956,624,qs),
(1038,624,o),
(1154,582,o),
(1154,557,qs),
(1154,543,o),
(1103,514,o),
(1023,488,o),
(932,472,o),
(831,472,qs)
);
}
);
width = 1464;
}
);
unicode = 57425;
},
{
glyphname = uniE052;
layers = (
{
layerId = m000;
shapes = (
{
closed = 1;
nodes = (
(0,0,qs),
(705,0,l),
(850,0,o),
(1097,121,o),
(1190,244,q),
(1209,122,o),
(1340,0,o),
(1430,0,qs),
(1491,0,l),
(1491,504,l),
(1460,504,l),
(1440,504,o),
(1425,504,o),
(1405,505,q),
(1413,510,o),
(1415,559,o),
(1415,583,qs),
(1415,733,o),
(1307,959,o),
(1117,1084,o),
(993,1084,qs),
(758,1084,o),
(502,817,q),
(493,825,l),
(579,943,o),
(588,1054,o),
(588,1133,qs),
(588,1556,l),
(130,1536,l),
(150,1048,o),
(130,559,q),
(121,532,o),
(95,511,o),
(68,504,q),
(0,504,l),
(-31,504,o),
(-61,387,o),
(-61,253,qs),
(-61,119,o),
(-31,0,o)
);
},
{
closed = 1;
nodes = (
(544,472,l),
(598,522,o),
(742,589,o),
(869,624,o),
(956,624,qs),
(1038,624,o),
(1154,582,o),
(1154,557,qs),
(1154,543,o),
(1103,514,o),
(1023,488,o),
(932,472,o),
(831,472,qs)
);
}
);
width = 1491;
}
);
unicode = 57426;
},
{
glyphname = uniE053;
layers = (
{
layerId = m000;
shapes = (
{
closed = 1;
nodes = (
(1019,732,qs),
(1019,696,o),
(797,600,q),
(517,764,l),
(517,764,l),
(715,771,o),
(779,771,qs),
(840,771,o),
(1019,753,o)
);
},
{
closed = 1;
nodes = (
(1259,766,qs),
(1259,896,o),
(1126,1098,o),
(892,1215,o),
(743,1215,qs),
(590,1215,o),
(279,1083,o),
(168,965,q),
(168,699,l),
(475,455,l),
(475,445,l),
(282,355,o),
(50,43,o),
(50,-142,qs),
(50,-320,o),
(267,-591,o),
(657,-740,o),
(917,-740,qs),
(1132,-740,o),
(1340,-666,q),
(1229,-186,l),
(1158,-206,o),
(998,-229,o),
(913,-229,qs),
(731,-229,o),
(513,-152,o),
(513,-91,qs),
(513,-31,o),
(599,81,o),
(737,170,o),
(816,199,q),
(911,132,o),
(1089,43,o),
(1260,0,o),
(1344,0,q),
(1309,0,l),
(1309,504,l),
(1269,504,l),
(1257,504,o),
(1204,506,o),
(1179,505,q),
(1179,515,l),
(1259,634,o)
);
}
);
width = 1310;
}
);
unicode = 57427;
},
{
glyphname = uniE054;
layers = (
{
layerId = m000;
shapes = (
{
closed = 1;
nodes = (
(370,635,qs),
(370,660,o),
(421,716,o),
(560,736,o),
(602,736,qs),
(652,736,o),
(750,721,o),
(817,700,q),
(1022,1026,l),
(794,1182,o),
(587,1182,qs),
(436,1182,o),
(199,1050,o),
(60,822,o),
(60,679,qs),
(60,631,o),
(75,561,o),
(106,522,q),
(106,499,l),
(108,502,o),
(10,504,o),
(9,504,qs),
(0,504,l),
(-32,504,o),
(-61,389,o),
(-61,253,qs),
(-61,118,o),
(-32,0,o),
(0,0,qs),
(32,0,l),
(59,0,o),
(161,7,o),
(329,21,o),
(451,33,qs),
(1046,100,l),
(997,586,l),
(718,553,l),
(700,550,o),
(654,550,o),
(626,550,qs),
(503,550,o),
(370,600,o)
);
}
);
width = 1096;
}
);
unicode = 57428;
},
{
glyphname = uniE055;
layers = (
{
layerId = m000;
shapes = (
{
closed = 1;
nodes = (
(671,771,qs),
(722,771,o),
(842,758,o),
(912,741,o),
(912,732,qs),
(912,717,o),
(796,653,o),
(683,599,q),
(430,764,l),
(430,765,l),
(532,766,o),
(645,771,o)
);
},
{
closed = 1;
nodes = (
(636,1215,qs),
(487,1215,o),
(177,1084,o),
(61,965,q),
(61,699,l),
(309,507,l),
(309,497,l),
(273,501,o),
(132,504,o),
(75,504,qs),
(0,504,l),
(-32,504,o),
(-61,388,o),
(-61,253,qs),
(-61,118,o),
(-32,0,o),
(0,0,qs),
(87,0,l),
(248,0,o),
(555,89,o),
(682,179,q),
(754,122,o),
(893,42,o),
(1045,0,o),
(1132,0,qs),
(1178,0,l),
(1178,504,l),
(1187,504,l),
(1153,504,o),
(1099,506,o),
(1066,498,q),
(1066,508,l),
(1116,573,o),
(1153,703,o),
(1153,766,qs),
(1153,891,o),
(1025,1094,o),
(792,1215,o)
);
}
);
width = 1180;
}
);
unicode = 57429;
},
{
glyphname = uniE056;
layers = (
{
layerId = m000;
shapes = (
{
closed = 1;
nodes = (
(1766,1056,o),
(1726,1544,q),
(1250,1524,l),
(1290,1056,o),
(1270,753,qs),
(1260,642,o),
(1194,539,o),
(1014,504,o),
(857,504,qs),
(709,504,o),
(557,530,o),
(504,592,o),
(504,648,qs),
(504,681,o),
(523,824,o),
(532,886,q),
(99,980,l),
(79,891,o),
(50,698,o),
(50,615,qs),
(50,402,o),
(226,130,o),
(573,0,o),
(833,0,qs),
(1119,0,o),
(1323.5,79,qs),
(1436.135,122.512,o),
(1517.923,192.631,q),
(1556.639,87.783,o),
(1650.5,44.5,qs),
(1747,0,o),
(1895,0,qs),
(1896,0,l),
(1896,504,l),
(1895,504,l),
(1814,504,o),
(1753,527,o),
(1746,632,o),
(1746,753,q)
);
}
);
width = 1895;
}
);
unicode = 57430;
},
{
glyphname = uniE057;
layers = (
{
layerId = m000;
shapes = (
{
closed = 1;
nodes = (
(898,1654,l),
(733,1632,o),
(263,1474,o),
(10,1343,q),
(-23,958,l),
(157,828,o),
(352,674,o),
(428,594,o),
(428,573,qs),
(428,534,o),
(310,504,o),
(167,504,qs),
(0,504,l),
(-32,504,o),
(-61,390,o),
(-61,253,qs),
(-61,117,o),
(-32,0,o),
(0,0,qs),
(178,0,l),
(523,0,o),
(905,286,o),
(905,545,qs),
(905,628,o),
(844,782,o),
(650,953,o),
(354,1081,q),
(354,1115,l),
(676,1095,o),
(886,1141,o),
(961,1155,q)
);
}
);
width = 960;
}
);
unicode = 57431;
},
{
glyphname = uniE058;
layers = (
{
layerId = m000;
shapes = (
{
closed = 1;
nodes = (
(730,309,q),
(740,309,l),
(793,197,o),
(915,58,o),
(1061,0,o),
(1145,0,qs),
(1146,0,l),
(1146,504,l),
(1145,504,l),
(1088,504,o),
(985,552,o),
(863,646,o),
(803,745,qs),
(746,838,o),
(662,925,o),
(533,1015,o),
(354,1081,q),
(354,1115,l),
(673,1094,o),
(882,1139,o),
(961,1155,q),
(898,1654,l),
(730,1631,o),
(263,1473,o),
(10,1343,q),
(-23,958,l),
(131,843,o),
(325,692,o),
(414,596,o),
(414,567,qs),
(414,532,o),
(291,504,o),
(167,504,qs),
(0,504,l),
(-32,504,o),
(-61,388,o),
(-61,251,qs),
(-61,116,o),
(-32,0,o),
(0,0,qs),
(178,0,l),
(308,0,o),
(491,47,o),
(645,184,o)
);
}
);
width = 1144;
}
);
unicode = 57432;
},
{
glyphname = uniE059;
layers = (
{
layerId = m000;
shapes = (
{
closed = 1;
nodes = (
(1695,504,l),
(1656,504,l),
(1596,504,o),
(1532,509,o),
(1507,545,o),
(1510,598,qs),
(1530,1056,o),
(1510,1556,q),
(1030,1536,l),
(1050,1056,o),
(1030,256,qs),
(1030,130,o),
(895,9,o),
(753,9,qs),
(615,9,o),
(500,110,o),
(500,229,qs),
(500,273,o),
(514,402,o),
(529,505,q),
(100,607,l),
(70,425,o),
(50,250,o),
(50,191,qs),
(50,-143,o),
(390,-495,o),
(720,-495,qs),
(945,-495,o),
(1302,-334,o),
(1510,-63,o),
(1510,184,q),
(1510,170,l),
(1521,172,l),
(1527,84,o),
(1620,0,o),
(1689,0,qs),
(1695,0,l)
);
}
);
width = 1695;
}
);
unicode = 57433;
},
{
glyphname = uniE05A;
layers = (
{
layerId = m000;
shapes = (
{
closed = 1;
nodes = (
(0,504,qs),
(-26,504,o),
(-62,409,o),
(-62,253,qs),
(-62,99,o),
(-26,0,o),
(0,0,qs),
(295,0,o),
(610,294,o),
(617,566,qs),
(637,1056,o),
(617,1556,q),
(139,1536,l),
(159,1056,o),
(139,576,qs),
(137,540,o),
(115,508,o),
(67,504,o)
);
}
);
width = 718;
}
);
unicode = 57434;
},
{
glyphname = uniE05B;
layers = (
{
layerId = m000;
shapes = (
{
closed = 1;
nodes = (
(375,270,q),
(385,270,l),
(430,166,o),
(611,0,o),
(762,0,qs),
(763,0,l),
(763,504,l),
(762,504,l),
(713,504,o),
(650,506,o),
(614,537,o),
(616,579,qs),
(637,1056,o),
(616,1556,q),
(139,1536,l),
(159,1056,o),
(139,579,qs),
(137,545,o),
(112,512,o),
(63,504,o),
(0,504,qs),
(-26,504,o),
(-61,409,o),
(-61,253,qs),
(-61,99,o),
(-26,0,o),
(0,0,qs),
(140,0,o),
(329,163,o)
);
}
);
width = 763;
}
);
unicode = 57435;
},
{
glyphname = uniE05C;
layers = (
{
layerId = m000;
shapes = (
{
closed = 1;
nodes = (
(903,605,qs),
(945,605,o),
(1033,588,o),
(1105,533,o),
(1105,499,qs),
(1105,478,o),
(1020,439,o),
(939,439,qs),
(932,439,o),
(932,440,o),
(927,440,q),
(864,447,o),
(746,471,o),
(697,490,q),
(736,527,o),
(789,573,o),
(837,596,o),
(867,605,o)
);
},
{
closed = 1;
nodes = (
(906,1064,qs),
(820,1064,o),
(662,1004,o),
(532,885,o),
(440,706,o),
(418,588,q),
(314,582,o),
(147,457,o),
(50,249,o),
(50,118,qs),
(50,-574,l),
(528,-574,l),
(528,20,l),
(528,32,o),
(554,48,o),
(562,48,qs),
(571,48,o),
(626,42,o),
(680,30,qs),
(779,9,o),
(932,-11,o),
(991,-11,qs),
(1071,-11,o),
(1179,21,o),
(1262,118,o),
(1303,241,q),
(1313,240,l),
(1357,105,o),
(1473,0,o),
(1577,0,qs),
(1578,0,l),
(1578,504,l),
(1577,504,l),
(1512,504,o),
(1419,561,o),
(1348,661,o),
(1318,724,qs),
(1280,804,o),
(1184,960,o),
(1033,1064,o)
);
}
);
width = 1579;
}
);
unicode = 57436;
},
{
glyphname = uniE05D;
layers = (
{
layerId = m000;
shapes = (
{
closed = 1;
nodes = (
(0,504,qs),
(-31,504,o),
(-61,388,o),
(-61,253,qs),
(-61,116,o),
(-31,0,o),
(0,0,qs),
(116,0,o),
(258,106,o),
(332,245,q),
(364,123,o),
(538,-10,o),
(659,-10,qs),
(868,-10,o),
(1093,263,o),
(1093,511,qs),
(1093,674,o),
(977,921,o),
(772,1060,o),
(643,1060,qs),
(556,1060,o),
(417,1000,o),
(289,851,o),
(218,715,qs),
(165,615,o),
(100,525,o),
(42,504,o)
);
},
{
closed = 1;
nodes = (
(411,479,q),
(411,483,l),
(472,529,o),
(548,580,o),
(606,600,o),
(646,600,qs),
(707,600,o),
(770,580,o),
(838,540,o),
(838,509,qs),
(838,489,o),
(756,439,o),
(680,439,qs),
(623,439,o),
(549,449,o)
);
}
);
width = 1144;
}
);
unicode = 57437;
},
{
glyphname = uniE05E;
layers = (
{
layerId = m000;
shapes = (
{
closed = 1;
nodes = (
(411,479,q),
(411,483,l),
(472,529,o),
(548,580,o),
(606,600,o),
(646,600,qs),
(707,600,o),
(770,580,o),
(838,540,o),
(838,509,qs),
(838,489,o),
(756,439,o),
(680,439,qs),
(623,439,o),
(549,449,o)
);
},
{
closed = 1;
nodes = (
(0,504,qs),
(-31,504,o),
(-61,388,o),
(-61,253,qs),
(-61,116,o),
(-31,0,o),
(0,0,qs),
(116,0,o),
(258,106,o),
(332,245,q),
(364,123,o),
(538,-10,o),
(659,-10,qs),
(772,-10,o),
(948,131,o),
(1000,263,q),
(1010,264,l),
(1040,129,o),
(1192,0,o),
(1313,0,qs),
(1314,0,l),
(1314,504,l),
(1313,504,l),
(1263,504,o),
(1176,546,o),
(1093,651,o),
(1047,743,qs),
(992,859,o),
(868,998,o),
(725,1060,o),
(643,1060,qs),
(556,1060,o),
(417,1000,o),
(289,851,o),
(218,715,qs),
(165,615,o),
(100,525,o),
(42,504,o)
);
}
);
width = 1312;
}
);
unicode = 57438;
},
{
glyphname = uniE05F;
layers = (
{
layerId = m000;
shapes = (
{
closed = 1;
nodes = (
(567,1127,l),
(310,1061,o),
(50,757,o),
(50,530,qs),
(50,415,o),
(163,242,o),
(378,145,o),
(530,145,qs),
(579,145,o),
(722,205,o),
(779,320,q),
(832,99,o),
(1065,0,o),
(1213,0,qs),
(1214,0,l),
(1214,504,l),
(1213,504,l),
(1170,504,o),
(1110,539,o),
(1077,608,o),
(1073,657,qs),
(1033,1341,l),
(556,1312,l)
);
},
{
closed = 1;
nodes = (
(729,707,q),
(734,640,l),
(736,632,o),
(735,615,o),
(741,578,q),
(725,579,o),
(610,581,o),
(571,581,qs),
(491,581,o),
(397,586,o),
(323,613,o),
(323,637,qs),
(323,669,o),
(542,711,o)
);
}
);
width = 1214;
}
);
unicode = 57439;
},
{
glyphname = uniE060;
layers = (
{
layerId = m000;
shapes = (
{
closed = 1;
nodes = (
(0,504,l),
(-32,504,o),
(-61,388,o),
(-61,253,qs),
(-61,117,o),
(-32,0,o),
(0,0,qs),
(189,0,l),
(395,0,o),
(558,146,o),
(590,278,q),
(651,129,o),
(818,-11,o),
(998,-11,qs),
(1141,-11,o),
(1359,111,o),
(1481,330,o),
(1481,476,qs),
(1481,621,o),
(1373,841,o),
(1143,1017,o),
(957,1097,qs),
(279,1388,l),
(82,955,l),
(218,893,l),
(212,883,l),
(153,842,o),
(115,716,o),
(115,655,qs),
(115,626,o),
(129,533,o),
(168,505,q),
(111,505,o),
(98,504,o),
(91,504,qs)
);
},
{
closed = 1;
nodes = (
(520,566,q),
(452,586,o),
(362,626,o),
(362,646,qs),
(362,682,o),
(426,736,o),
(487,756,o),
(532,756,qs),
(610,756,o),
(716,713,o),
(716,680,qs),
(716,625,o),
(603,580,o)
);
},
{
closed = 1;
nodes = (
(870,486,q),
(857,516,o),
(873,601,o),
(902,616,q),
(1002,616,o),
(1148,570,o),
(1202,529,o),
(1202,504,qs),
(1202,478,o),
(1037,478,qs),
(1008,478,o),
(962,478,o)
);
}
);
width = 1530;
}
);
unicode = 57440;
},
{
glyphname = uniE061;
layers = (
{
layerId = m000;
shapes = (
{
closed = 1;
nodes = (
(529,1135,qs),
(412,1135,o),
(206,1013,o),
(52,736,o),
(46,504,q),
(0,504,l),
(-32,504,o),
(-62,388,o),
(-62,253,qs),
(-62,118,o),
(-32,0,o),
(0,0,qs),
(85,0,l),
(136,-151,o),
(308,-388,o),
(428,-501,q),
(745,-501,l),
(818,-350,o),
(930,-154,o),
(1026,-44,o),
(1123,0,o),
(1182,0,q),
(1174,0,l),
(1174,504,l),
(1182,504,l),
(1099,504,o),
(949,476,o),
(833,383,o),
(784,147,o),
(576,-32,q),
(571,-32,l),
(558,-13,o),
(527,28,o),
(489,86,q),
(682,155,o),
(889,326,o),
(998,596,o),
(998,702,qs),
(998,832,o),
(870,1028,o),
(655,1135,o)
);
},
{
closed = 1;
nodes = (
(287,520,q),
(295,594,o),
(396,659,o),
(483,683,o),
(540,683,qs),
(636,683,o),
(748,645,o),
(748,616,qs),
(748,588,o),
(589,554,o),
(467,537,o)
);
}
);
width = 1175;
}
);
unicode = 57441;
},
{
glyphname = uniE062;
layers = (
{
layerId = m000;
shapes = (
{
closed = 1;
nodes = (
(660,467,q),
(566,459,o),
(498,455,o),
(447,455,qs),
(390,455,o),
(308,488,o),
(308,510,qs),
(308,536,o),
(353,567,o),
(431,583,o),
(474,583,qs),
(516,583,o),
(588,575,o),
(645,554,o),
(661,508,o)
);
},
{
closed = 1;
nodes = (
(600,-33,l),
(525,-53,o),
(319,-84,o),
(123,-112,o),
(53,-121,q),
(275,-569,l),
(559,-464,o),
(888,-187,o),
(955,0,q),
(996,0,l),
(996,504,l),
(975,504,l),
(956,637,o),
(879,843,o),
(758,988,o),
(595,1061,o),
(493,1061,qs),
(344,1061,o),
(148,886,o),
(50,599,o),
(50,433,qs),
(50,233,o),
(243,0,o),
(432,0,qs),
(447,0,o),
(492,8,o),
(590,17,q)
);
}
);
width = 997;
}
);
unicode = 57442;
},
{
glyphname = uniE063;
layers = (
{
layerId = m000;
shapes = (
{
closed = 1;
nodes = (
(737,594,l),
(820,563,o),
(1039,495,o),
(1039,489,qs),
(1039,478,o),
(856,458,o),
(712,458,qs),
(655,458,o),
(531,467,o),
(445,477,q),
(445,478,l)
);
},
{
closed = 1;
nodes = (
(748,1113,q),
(497.887,1305.996,o),
(357,1542,q),
(156.967,1430.302,o),
(20,1203,q),
(207.74,987.5,o),
(472,807,q),
(112,552,l),
(112,111,l),
(275,42,o),
(503,-11,o),
(615,-11,qs),
(817,-11,o),
(1108,100,o),
(1262,305,o),
(1262,445,qs),
(1262,540,o),
(1163,704,o),
(1054,791,q),
(1163,902,o),
(1282,1156,o),
(1262,1556,q),
(783,1536,l),
(793,1263,o),
(761,1131,o)
);
}
);
width = 1357;
}
);
unicode = 57443;
},
{
glyphname = uniE064;
layers = (
{
layerId = m000;
shapes = (
{
closed = 1;
nodes = (
(70,1438,l),
(191,1047,o),
(234,588,q),
(705,653,l),
(645,1129,o),
(522,1556,q)
);
},
{
closed = 1;
nodes = (
(833,1536,l),
(893,1056,o),
(843,672,qs),
(832,595,o),
(579,532,o),
(291,504,o),
(73,504,q),
(73,0,l),
(321,0,o),
(661,35,o),
(888,174,o),
(966,308,q),
(969,298,l),
(1040,149,o),
(1271,0,o),
(1437,0,qs),
(1438,0,l),
(1438,504,l),
(1437,504,l),
(1382,504,o),
(1309,540,o),
(1311,594,q),
(1361,1056,o),
(1311,1556,q)
);
}
);
width = 1438;
}
);
unicode = 57444;
},
{
glyphname = uniE065;
layers = (
{
layerId = m000;
shapes = (
{
closed = 1;
nodes = (
(1941,884,q),
(1508,958,l),
(1475,830,o),
(1371,657,o),
(1225,551,o),
(1032,504,o),
(908,504,qs),
(677,504,o),
(490,591,o),
(490,713,qs),
(490,743,o),
(508,888,o),
(524,962,q),
(111,1069,l),
(80,942,o),
(50,723,o),
(50,639,qs),
(50,315,o),
(455,0,o),
(839,0,qs),
(1069,0,o),
(1414,167,o),
(1538,373,q),
(1548,373,l),
(1632,165,o),
(1892,0,o),
(2029,0,qs),
(2030,0,l),
(2030,504,l),
(2029,504,l),
(2000,504,o),
(1942,528,o),
(1905,578,o),
(1905,619,qs),
(1905,642,o),
(1924,780,o)
);
}
);
width = 2030;
}
);
unicode = 57445;
},
{
glyphname = uniE066;
layers = (
{
layerId = m000;
shapes = (
{
closed = 1;
nodes = (
(690,916,q),
(655,914,o),
(489,914,o),
(462,914,qs),
(257,914,o),
(257,961,qs),
(257,997,o),
(318,1042,o),
(407,1064,o),
(467,1064,qs),
(533,1064,o),
(673,995,o)
);
},
{
closed = 1;
nodes = (
(0,504,l),
(-32,504,o),
(-61,388,o),
(-61,253,qs),
(-61,119,o),
(-32,0,o),
(0,0,qs),
(387,0,l),
(712,0,o),
(1017,321,o),
(1017,663,qs),
(1017,920,o),
(888,1273,o),
(651,1485,o),
(490,1485,qs),
(351,1485,o),
(153,1335,o),
(47,1091,o),
(47,894,qs),
(47,738,o),
(231,577,o),
(428,577,qs),
(499,577,o),
(606,582,q),
(606,528,o),
(573,508,o),
(473,504,o),
(373,504,qs)
);
}
);
width = 1067;
}
);
unicode = 57446;
},
{
glyphname = uniE067;
layers = (
{
layerId = m000;
shapes = (
{
closed = 1;
nodes = (
(1489,239,q),
(1568,128,o),
(1789,0,o),
(1954,0,qs),
(2058,0,l),
(2058,504,l),
(1975,504,l),
(1969,504,o),
(1959,505,o),
(1949,507,q),
(1950,515,l),
(1986,545,o),
(2010,664,o),
(2010,719,qs),
(2010,861,o),
(1870,1089,o),
(1637,1223,o),
(1499,1223,qs),
(1360,1223,o),
(1127,1089,o),
(987,858,o),
(987,711,qs),
(987,655,o),
(1014,542,o),
(1053,495,q),
(1046,486,l),
(1004,495,o),
(936,504,o),
(898,504,q),
(745,511,o),
(575,548,o),
(508,614,o),
(508,666,qs),
(508,688,o),
(527,786,o),
(557,906,o),
(572,958,q),
(156,1089,l),
(106,939,o),
(50,663,o),
(50,569,qs),
(50,427,o),
(145,214,o),
(346,72,o),
(670,0,o),
(898,0,qs),
(1088,0,o),
(1383,128,o)
);
},
{
closed = 1;
nodes = (
(1495,615,q),
(1420,637,o),
(1296,678,o),
(1296,698,qs),
(1296,711,o),
(1399,772,o),
(1499,772,qs),
(1598,772,o),
(1702,711,o),
(1702,698,qs),
(1702,680,o),
(1579,634,o)
);
}
);
width = 2058;
}
);
unicode = 57447;
},
{
glyphname = uniE068;
layers = (
{
layerId = m000;
shapes = (
{
closed = 1;
nodes = (
(59,711,qs),
(59,655,o),
(83,544,o),
(121,516,q),
(124,507,l),
(103,504,o),
(71,504,o),
(55,504,qs),
(0,504,l),
(-31,504,o),
(-62,387,o),
(-62,253,qs),
(-62,119,o),
(-31,0,o),
(0,0,qs),
(116,0,l),
(272,0,o),
(487,128,o),
(562,239,q),
(641,128,o),
(863,0,o),
(1029,0,qs),
(1144,0,l),
(1144,504,l),
(1050,504,l),
(1044,504,o),
(1032,505,o),
(1021,507,q),
(1021,515,l),
(1058,545,o),
(1083,664,o),
(1083,719,qs),
(1083,861,o),
(942,1089,o),
(709,1223,o),
(571,1223,qs),
(431,1223,o),
(199,1089,o),
(59,858,o)
);
},
{
closed = 1;
nodes = (
(567,616,q),
(493,638,o),
(368,680,o),
(367,699,q),
(368,712,o),
(470,773,o),
(570,773,qs),
(670,773,o),
(775,712,o),
(775,699,qs),
(775,681,o),
(652,633,o)
);
}
);
width = 1144;
}
);
unicode = 57448;
},
{
glyphname = uniE069;
layers = (
{
layerId = m000;
shapes = (
{
closed = 1;
nodes = (
(1130,583,qs),
(1173,583,o),
(1253,575,o),
(1342,554,o),
(1356,508,o),
(1354,467,q),
(1326,459,o),
(1140,455,o),
(1102,455,qs),
(1034,455,o),
(924,488,o),
(924,511,qs),
(924,537,o),
(1007,567,o),
(1088,583,o)
);
},
{
closed = 1;
nodes = (
(1147,1061,qs),
(1018,1061,o),
(818,907,o),
(704,625,o),
(704,433,qs),
(704,230,o),
(901,20,o),
(1087,20,qs),
(1106,20,o),
(1251,30,o),
(1284,37,q),
(1295,-23,l),
(1211,-35,o),
(997,-50,o),
(840,-50,qs),
(686,-50,o),
(527,86,o),
(527,190,qs),
(527,270,o),
(552,467,o),
(579,613,q),
(115,702,l),
(81,494,o),
(50,233,o),
(50,140,qs),
(50,-191,o),
(446,-535,o),
(826,-535,qs),
(1123,-535,o),
(1540,-253,o),
(1615,0,q),
(1652,0,l),
(1652,504,l),
(1631,504,l),
(1612,649,o),
(1526,858,o),
(1401,995,o),
(1242,1061,o)
);
}
);
width = 1651;
}
);
unicode = 57449;
},
{
glyphname = uniE06E;
layers = (
{
layerId = m000;
shapes = (
{
closed = 1;
nodes = (
(-56,1260,l),
(-15,1285,o),
(60,1314,o),
(87,1314,qs),
(104,1314,o),
(124,1299,o),
(124,1290,qs),
(124,1271,o),
(57,1260,o),
(-11,1260,qs)
);
},
{
closed = 1;
nodes = (
(-226,1260,l),
(-309,1260,l),
(-309,1061,l),
(-11,1061,l),
(124,1061,o),
(286,1198,o),
(286,1338,qs),
(286,1396,o),
(206,1505,o),
(144,1505,qs),
(103,1505,o),
(29,1480,o),
(-31,1434,q),
(-41,1434,l),
(-41,1626,l),
(-226,1626,l)
);
}
);
}
);
unicode = 57454;
},
{
glyphname = uniE06F;
layers = (
{
layerId = m000;
shapes = (
{
closed = 1;
nodes = (
(124,1475,q),
(144,1508,o),
(193,1528,o),
(209,1528,qs),
(225,1528,o),
(235,1519,o),
(235,1511,qs),
(235,1495,o),
(190,1474,o),
(157,1474,qs),
(146,1474,o),
(131,1476,o)
);
},
{
closed = 1;
nodes = (
(-36,1531,q),
(-34,1526,o),
(-37,1523,o),
(-42,1523,qs),
(-132,1523,o),
(-304,1392,o),
(-356,1281,q),
(-185,1149,l),
(-143,1207,o),
(-105,1235,o),
(-74,1235,qs),
(-52,1235,o),
(-2,1215,qs),
(36,1199,o),
(110,1181,o),
(147,1181,qs),
(220,1181,o),
(352,1271,o),
(436,1415,o),
(436,1495,qs),
(436,1629,o),
(329,1760,o),
(220,1760,qs),
(160,1760,o),
(38,1670,o)
);
}
);
}
);
unicode = 57455;
},
{
glyphname = uniE070;
layers = (
{
layerId = m000;
shapes = (
{
closed = 1;
nodes = (
(230,1347,q),
(30,1347,l),
(30,1296,o),
(8,1285,o),
(0,1285,qs),
(-9,1285,o),
(-30,1293,o),
(-30,1347,q),
(-230,1347,l),
(-230,1200,o),
(-102,1082,o),
(0,1082,qs),
(99,1082,o),
(230,1201,o)
);
}
);
}
);
unicode = 57456;
},
{
glyphname = uniE071;
layers = (
{
layerId = m000;
shapes = (
{
closed = 1;
nodes = (
(230,1080,l),
(230,1281,l),
(-230,1281,l),
(-230,1080,l)
);
}
);
}
);
unicode = 57457;
},
{
glyphname = uniE072;
layers = (
{
layerId = m000;
shapes = (
{
closed = 1;
nodes = (
(-55,1460,qs),
(-43,1460,o),
(-8,1441,o),
(-8,1439,q),
(-8,1441,o),
(-6,1429,o),
(-21,1407,o),
(-45,1394,q),
(-79,1408,o),
(-79,1451,qs),
(-79,1456,o),
(-62,1460,o)
);
},
{
closed = 1;
nodes = (
(-90,1660,qs),
(-168,1660,o),
(-265,1558,o),
(-265,1465,qs),
(-265,1387,o),
(-146,1216,o),
(67,1075,o),
(206,1040,q),
(258,1240,l),
(243,1242,o),
(172,1263,o),
(120,1282,q),
(146,1300,o),
(165,1354,o),
(168,1413,o),
(168,1438,qs),
(168,1501,o),
(94,1601,o),
(-24,1660,o)
);
}
);
}
);
unicode = 57458;
},
{
glyphname = uniE073;
layers = (
{
layerId = m000;
shapes = (
{
closed = 1;
nodes = (
(-164,1061,l),
(246,1255,l),
(164,1439,l),
(-248,1244,l)
);
},
{
closed = 1;
nodes = (
(-211,1420,l),
(-111,1321,l),
(-11,1420,l),
(-111,1520,l)
);
},
{
closed = 1;
nodes = (
(-15,1063,l),
(85,964,l),
(185,1063,l),
(85,1163,l)
);
}
);
}
);
unicode = 57459;
},
{
glyphname = uniE074;
layers = (
{
layerId = m000;
shapes = (
{
closed = 1;
nodes = (
(570,1354,qs),
(383,1354,o),
(148,1111,o),
(75,843,qs),
(67,811,l),
(409,711,l),
(418,740,l),
(440,810,o),
(508,905,o),
(568,905,qs),
(610,905,o),
(689,871,o),
(752,853,qs),
(805,839,o),
(953,805,o),
(1050,800,q),
(1050,750,l),
(699,731,o),
(439,641,o),
(246,492,o),
(116,309,o),
(50,56,o),
(50,-51,qs),
(50,-246,o),
(258,-588,o),
(643,-799,o),
(908,-799,qs),
(1090,-799,o),
(1461,-697,o),
(1647,-598,q),
(1434,-167,l),
(1327,-224,o),
(1053,-288,o),
(904,-288,qs),
(778,-288,o),
(603,-193,o),
(512,-58,o),
(512,1,qs),
(512,79,o),
(627,269,o),
(822,386,o),
(1070,473,o),
(1337,524,o),
(1464,528,q),
(1528,1021,l),
(1475,1031,o),
(1334,1077,o),
(1126,1163,o),
(972,1233,qs),
(830,1296,o),
(643,1354,o)
);
}
);
width = 1611;
}
);
unicode = 57460;
},
{
glyphname = uniE075;
layers = (
{
layerId = m000;
shapes = (
{
closed = 1;
nodes = (
(929,1679,l),
(178,1033,l),
(522,616,l),
(1891,616,l),
(1930,616,o),
(1954,593,o),
(1967,563,o),
(1967,538,qs),
(1967,511,o),
(1949,505,o),
(1913,504,o),
(1884,504,qs),
(7,504,l),
(7,0,l),
(1634,0,l),
(1869,0,o),
(2148,156,o),
(2271,392,o),
(2271,578,qs),
(2271,736,o),
(2128,934,o),
(1836,1031,o),
(1610,1031,qs),
(735,1031,l),
(1219,1316,l)
);
}
);
width = 2320;
}
);
unicode = 57461;
},
{
glyphname = uniE077;
layers = (
{
layerId = m000;
shapes = (
{
closed = 1;
nodes = (
(600.492,686.725,o),
(432,583.5,qs),
(250,472,o),
(50,102,o),
(50,-91,qs),
(50,-290,o),
(264,-632,o),
(650,-839,o),
(908,-839,qs),
(1273,-839,o),
(1647,-638,q),
(1434,-207,l),
(1326,-264,o),
(1052,-328,o),
(904,-328,qs),
(786,-328,o),
(609,-237,o),
(512,-102,o),
(512,-39,qs),
(512,36,o),
(620,228,o),
(805,318,o),
(1041,374,o),
(1144,375,q),
(1169,203,o),
(1291,101.5,qs),
(1410.617,1.982,o),
(1629,0.034,q),
(1629,504,l),
(1557,504,l),
(1518,504,o),
(1452,509,o),
(1395,518,q),
(1395,565,l),
(1419,565,o),
(1448,565,o),
(1464,563,q),
(1528,981.5,l),
(1475,991.5,o),
(1334,1037.5,o),
(1126,1123.5,o),
(972,1193.5,qs),
(830,1256.5,o),
(643,1314.5,o),
(570,1314.5,qs),
(383,1314.5,o),
(148,1071.5,o),
(75,803.5,qs),
(67,771.5,l),
(409,671.5,l),
(418,700.5,l),
(440,770.5,o),
(508,865.5,o),
(568,865.5,qs),
(610,865.5,o),
(689,831.5,o),
(752,813.5,qs),
(805,799.5,o),
(953,765.5,o),
(1050,760.5,q),
(1050,707.393,l)
);
}
);
width = 1630;
}
);
unicode = 57463;
},
{
glyphname = uniE087;
layers = (
{
layerId = m000;
shapes = (
{
closed = 1;
nodes = (
(-30,1388,l),
(0,1419,l),
(30,1390,l),
(0,1358,l)
);
},
{
closed = 1;
nodes = (
(-258,1388,l),
(0,1131,l),
(258,1390,l),
(0,1646,l)
);
}
);
}
);
unicode = 57479;
},
{
glyphname = uniE088;
layers = (
{
layerId = m000;
shapes = (
{
closed = 1;
nodes = (
(115,378,l),
(115,0,l),
(374,0,l),
(374,378,l)
);
},
{
closed = 1;
nodes = (
(390,378,l),
(390,0,l),
(648,0,l),
(648,378,l)
);
}
);
width = 763;
}
);
unicode = 57480;
},
{
glyphname = uniE089;
layers = (
{
layerId = m000;
shapes = (
{
closed = 1;
nodes = (
(849,185,l),
(-12,185,l),
(-12,0,l),
(849,0,l)
);
}
);
width = 834;
}
);
unicode = 57481;
},
{
glyphname = uniE08A;
layers = (
{
layerId = m000;
shapes = (
{
closed = 1;
nodes = (
(237,532,l),
(45,436,l),
(96,317,o),
(141,117,o),
(141,0,q),
(354,0,l),
(354,31,o),
(353,106,o),
(346,181,q),
(354,189,l),
(357,194,o),
(354,194,q),
(408,194,o),
(482,247,o),
(528,381,o),
(540,505,q),
(344,524,l),
(334,399,l),
(332,389,o),
(317,386,o),
(312,386,qs),
(311,386,o),
(300,385,o),
(300,380,q)
);
}
);
width = 589;
}
);
unicode = 57482;
},
{
glyphname = uniE08B;
layers = (
{
layerId = m000;
shapes = (
{
closed = 1;
nodes = (
(244,532,l),
(49,439,l),
(96,335,o),
(141,119,o),
(141,0,q),
(355,0,l),
(355,87,o),
(351,153,o),
(346,171,q),
(349,181,l),
(344,186,o),
(340,186,q),
(366,186,o),
(380,213,q),
(390,213,l),
(410,195,o),
(475,173,o),
(504,173,qs),
(583,173,o),
(688,283,o),
(688,371,qs),
(688,395,o),
(681,481,o),
(673,518,q),
(495,484,l),
(500,449,o),
(508,376,o),
(508,363,q),
(508,364,o),
(489,367,o),
(481,367,qs),
(473,367,o),
(459,373,o),
(459,372,q),
(459,377,o),
(463,435,o),
(467,480,q),
(319,491,l),
(312,354,l),
(312,354,o),
(302,367,o),
(304,367,qs),
(304,367,o),
(301,364,o),
(304,355,q)
);
}
);
width = 701;
}
);
unicode = 57483;
},
{
glyphname = uniE08C;
layers = (
{
layerId = m000;
shapes = (
{
closed = 1;
nodes = (
(262,531,qs),
(181,531,o),
(63,413,o),
(63,331,qs),
(63,304,o),
(82,248,o),
(96,222,q),
(204,43,l),
(208,37,o),
(212,17,o),
(212,0,q),
(404,0,l),
(404,41,o),
(392,116,o),
(375,142,qs),
(264,309,l),
(264,309,o),
(264,315,qs),
(264,323,o),
(277,331,o),
(284,331,qs),
(299,331,o),
(308,316,qs),
(365,217,l),
(420,218,l),
(580,356,l),
(450,529,l),
(389,480,l),
(398,468,l),
(374,500,o),
(299,531,o)
);
}
);
width = 602;
}
);
unicode = 57484;
},
{
glyphname = "waw_hamza_hamza-arab.liga";
layers = (
{
layerId = m000;
shapes = (
{
closed = 1;
nodes = (
(600,-38,l),
(564,-97,o),
(487,-166,o),
(381,-271,o),
(273,-351,q),
(675,-569,l),
(848,-432,o),
(989,-30,o),
(989,267,qs),
(989,440,o),
(929,731,o),
(807,943,o),
(620,1061,o),
(493,1061,qs),
(344,1061,o),
(148,887,o),
(50,602,o),
(50,438,qs),
(50,237,o),
(246,3,o),
(439,3,qs),
(450,3,o),
(493,6,o),
(590,13,q)
);
},
{
closed = 1;
nodes = (
(660,455,q),
(542,454,o),
(474,455,o),
(447,455,qs),
(380,455,o),
(308,491,o),
(308,514,qs),
(308,540,o),
(363,569,o),
(431,584,o),
(474,584,qs),
(519,584,o),
(590,575,o),
(648,549,o),
(662,499,o)
);
}
);
width = 1039;
}
);
unicode = 57487;
},
{
glyphname = "heh_hamza_hamza-arab.fina";
layers = (
{
layerId = m000;
shapes = (
{
closed = 1;
nodes = (
(1213,504,l),
(1212,504,l),
(1182,504,o),
(1012,702,o),
(780,1007,o),
(599,1007,qs),
(452,1007,o),
(230,789,o),
(150,561,q),
(131,500,o),
(84,338,o),
(60,117,o),
(50,50,q),
(520,-25,l),
(535,35,o),
(542,174,o),
(555,258,qs),
(563,309,o),
(578,393,o),
(610,472,o),
(671,472,qs),
(752,473,o),
(904,223,o),
(1119,0,o),
(1212,0,qs),
(1213,0,l)
);
}
);
width = 1213;
}
);
unicode = 57488;
},
{
glyphname = "heh_yehhamzaabove_yehhamzaabove_yehhamzaabove-arab.medi";
layers = (
{
layerId = m000;
shapes = (
{
closed = 1;
nodes = (
(0,504,qs),
(-32,504,o),
(-61,389,o),
(-61,251,qs),
(-61,113,o),
(-32,0,o),
(0,0,qs),
(90,0,o),
(279,93,o),
(329,237,q),
(336,231,l),
(300,5,o),
(386,-309,o),
(503,-491,o),
(586,-572,q),
(878,-437,l),
(908,-244,o),
(994,-43,o),
(1055,-5,q),
(1076,-4,o),
(1126,0,o),
(1140,0,q),
(1139,0,l),
(1139,504,l),
(1140,504,l),
(1088,504,o),
(958,460,o),
(899,415,qs),
(820,351,o),
(702,145,o),
(675,-113,q),
(653,25,o),
(653,230,o),
(653,267,qs),
(653,366,o),
(711,633,o),
(767,791,q),
(355,916,l),
(301,749,o),
(194,570,o),
(74,504,o)
);
}
);
width = 1139;
}
);
unicode = 57489;
},
{
glyphname = "heh_yehhamzaabove_yehhamzaabove-arab.medi";
layers = (
{
layerId = m000;
shapes = (
{
closed = 1;
nodes = (
(643,-126,qs),
(530,-126,o),
(338,-45,o),
(337,38,q),
(389,38,l),
(520,38,o),
(677,-3,o),
(779,-62,o),
(779,-91,qs),
(779,-117,o),
(672,-126,o)
);
},
{
closed = 1;
nodes = (
(626,1154,qs),
(477,1154,o),
(270,1015,o),
(126,728,o),
(108,504,q),
(0,504,l),
(-34,504,o),
(-62,387,o),
(-62,250,qs),
(-62,114,o),
(-34,0,o),
(0,0,qs),
(119,0,l),
(162,-290,o),
(433,-577,o),
(643,-577,qs),
(821,-577,o),
(1023,-392,o),
(1023,-226,qs),
(1023,-190,o),
(1008,-85,o),
(950,-10,q),
(950,0,l),
(1162,0,l),
(1162,504,l),
(900,504,l),
(900,514,l),
(965,587,o),
(993,742,o),
(993,811,qs),
(993,901,o),
(919,1057,o),
(758,1154,o)
);
},
{
closed = 1;
nodes = (
(339,518,l),
(361,601,o),
(534,700,o),
(634,700,qs),
(684,700,o),
(780,679,o),
(780,654,qs),
(780,617,o),
(735,572,o),
(609,534,o),
(490,518,o),
(396,518,qs)
);
}
);
width = 1162;
}
);
unicode = 57490;
},
{
glyphname = "farsiyeh_hamza_hamza-arab.liga";
layers = (
{
layerId = m000;
shapes = (
{
closed = 1;
nodes = (
(569,0,qs),
(1364,0,l),
(1364,504,l),
(463,504,l),
(439,504,o),
(432,512,o),
(432,516,qs),
(432,549,o),
(583,600,o),
(786,673,o),
(941,715,qs),
(1123,765,l),
(976,1231,l),
(831,1191,l),
(684,1149,o),
(281,951,o),
(50,653,o),
(50,443,qs),
(50,285,o),
(190,90,o),
(425,0,o)
);
}
);
width = 1414;
}
);
unicode = 57491;
},
{
glyphname = "farsiyeh_hamza_hamza-arab.fina";
layers = (
{
layerId = m000;
shapes = (
{
closed = 1;
nodes = (
(569,-605,qs),
(1192,-605,l),
(1192,-101,l),
(463,-101,l),
(439,-101,o),
(432,-81,o),
(432,-89,q),
(432,-56,o),
(568,-18,o),
(797,0,o),
(941,0,qs),
(1360,0,l),
(1360,504,l),
(942,504,l),
(684,504,o),
(281,346,o),
(50,48,o),
(50,-162,qs),
(50,-320,o),
(190,-515,o),
(425,-605,o)
);
}
);
width = 1358;
}
);
unicode = 57492;
},
{
glyphname = uniE095;
layers = (
{
layerId = m000;
shapes = (
{
closed = 1;
nodes = (
(77,1023,l),
(45,889,o),
(7,645,o),
(7,541,qs),
(7,379,o),
(135,135,o),
(411,0,o),
(635,0,qs),
(636,0,l),
(636,504,l),
(635,504,l),
(590,504,o),
(519,522,o),
(477,569,o),
(477,616,qs),
(477,659,o),
(501,811,o),
(524,906,q)
);
}
);
width = 635;
}
);
unicode = 57493;
},
{
glyphname = uniE096;
layers = (
{
layerId = m000;
shapes = (
{
closed = 1;
nodes = (
(326,1026,q),
(407,792,l),
(477,813,o),
(536,830,o),
(577,834,o),
(618,841,q),
(576,1084,l),
(522,1076,o),
(471,1068,o),
(404,1050,o)
);
}
);
width = 762;
}
);
unicode = 57494;
},
{
glyphname = uniE097;
layers = (
{
layerId = m000;
shapes = (
{
closed = 1;
nodes = (
(704,-78,q),
(682,-79,o),
(642,-69,o),
(605,-53,o),
(568,-40,o),
(547,-40,qs),
(477,-40,o),
(390,-2,o),
(390,19,qs),
(390,25,o),
(412,50,o),
(451,69,o),
(479,69,qs),
(526,69,o),
(646,-9,o)
);
},
{
closed = 1;
nodes = (
(858,284,q),
(752,361,o),
(584,430,o),
(507,430,qs),
(372,430,o),
(166,291,o),
(50,59,o),
(50,-78,qs),
(50,-217,o),
(172,-427,o),
(397,-547,o),
(550,-547,qs),
(605,-547,o),
(720,-537,o),
(836,-509,o),
(960,-454,o),
(1026,-409,q),
(1064,-457,o),
(1150,-566,o),
(1208,-638,q),
(1500,-354,l),
(1440,-290,o),
(1309,-157,o),
(1252,-111,q),
(1283,-47,o),
(1313,39,o),
(1323,89,q),
(1332,93,l),
(1364,48,o),
(1443,0,o),
(1484,0,qs),
(1485,0,l),
(1485,504,l),
(1484,504,l),
(1417,504,o),
(1344,530,o),
(1297,611,o),
(1270,696,qs),
(1189,943,l),
(742,790,l),
(796,618,o),
(850,362,o)
);
}
);
width = 1486;
}
);
unicode = 57495;
},
{
glyphname = "waw_hamza_hamza-arab.fina";
layers = (
{
layerId = m000;
shapes = (
{
closed = 1;
nodes = (
(660,455,q),
(542,454,o),
(474,455,o),
(447,455,qs),
(380,455,o),
(308,491,o),
(308,514,qs),
(308,540,o),
(363,569,o),
(431,584,o),
(474,584,qs),
(519,584,o),
(590,575,o),
(648,549,o),
(662,499,o)
);
},
{
closed = 1;
nodes = (
(1074.5,0,l),
(1074.5,504,l),
(973.145,504,l),
(967.086,546.283,o),
(959,585.5,qs),
(929,731,o),
(807,943,o),
(620,1061,o),
(493,1061,qs),
(344,1061,o),
(148,887,o),
(50,602,o),
(50,438,qs),
(50,237,o),
(246,3,o),
(439,3,qs),
(450,3,o),
(493,6,o),
(590,13,q),
(600,-38,l),
(564,-97,o),
(487,-166,o),
(381,-271,o),
(273,-351,q),
(675,-569,l),
(848,-432,o),
(918.5,-231,qs),
(954.576,-128.145,o),
(972.211,0,q)
);
}
);
width = 1076;
}
);
unicode = 57496;
},
{
glyphname = uniE099;
layers = (
{
layerId = m000;
shapes = (
{
closed = 1;
nodes = (
(82,1536,l),
(82,582,l),
(82,295,o),
(415,0,o),
(702,0,qs),
(1139,0,l),
(1139,504,l),
(702,504,l),
(622,504,o),
(561,537,o),
(561,594,qs),
(561,1536,l)
);
}
);
width = 1138;
}
);
unicode = 57497;
},
{
glyphname = uniE09A;
layers = (
{
layerId = m000;
shapes = (
{
closed = 1;
nodes = (
(910,1679,l),
(181,1033,l),
(516,616,l),
(1942,616,l),
(1988,616,o),
(2010,572,o),
(2010,538,qs),
(2010,507,o),
(1998,503,o),
(1948,504,o),
(1926,504,qs),
(50,504,l),
(50,0,l),
(1663,0,l),
(1814,0,o),
(2013,121,o),
(2069,264,q),
(2079,264,l),
(2142,122,o),
(2346,0,o),
(2462,0,qs),
(2463,0,l),
(2463,504,l),
(2462,504,l),
(2394,504,o),
(2329,512,o),
(2310,550,o),
(2310,578,qs),
(2310,779,o),
(2177,931,o),
(1887,1031,o),
(1651,1031,qs),
(749,1031,l),
(1201,1316,l)
);
}
);
width = 2462;
}
);
unicode = 57498;
},
{
glyphname = uniE09B;
layers = (
{
layerId = m000;
shapes = (
{
closed = 1;
nodes = (
(820,1679,l),
(103,1033,l),
(434,616,l),
(1583,616,l),
(1628,616,o),
(1652,572,o),
(1652,538,qs),
(1652,507,o),
(1639,503,o),
(1588,504,o),
(1566,504,qs),
(0,504,l),
(-31,504,o),
(-61,388,o),
(-61,253,qs),
(-61,118,o),
(-31,0,o),
(0,0,qs),
(1317,0,l),
(1544,0,o),
(1789,153,o),
(1952,386,o),
(1952,578,qs),
(1952,733,o),
(1807,921,o),
(1527,1031,o),
(1292,1031,qs),
(659,1031,l),
(1111,1316,l)
);
}
);
width = 2002;
}
);
unicode = 57499;
},
{
glyphname = uniE09C;
layers = (
{
layerId = m000;
shapes = (
{
closed = 1;
nodes = (
(820,1679,l),
(103,1033,l),
(434,616,l),
(1583,616,l),
(1629,616,o),
(1652,572,o),
(1652,538,qs),
(1652,507,o),
(1639,503,o),
(1588,504,o),
(1566,504,qs),
(0,504,l),
(-31,504,o),
(-61,388,o),
(-61,253,qs),
(-61,118,o),
(-31,0,o),
(0,0,qs),
(1303,0,l),
(1453,0,o),
(1655,109,o),
(1710,264,q),
(1720,264,l),
(1785,122,o),
(1986,0,o),
(2102,0,qs),
(2103,0,l),
(2103,504,l),
(2102,504,l),
(2033,504,o),
(1969,512,o),
(1952,550,o),
(1952,578,qs),
(1952,779,o),
(1817,931,o),
(1526,1031,o),
(1292,1031,qs),
(659,1031,l),
(1111,1316,l)
);
}
);
width = 2102;
}
);
unicode = 57500;
},
{
glyphname = uniE09D;
layers = (
{
layerId = m000;
shapes = (
{
closed = 1;
nodes = (
(917,592,l),
(807,660,o),
(621,721,o),
(528,721,qs),
(412,721,o),
(107,651,o),
(-114,567,q),
(24,196,l),
(85,221,o),
(264,284,o),
(453,343,o),
(527,364,q)
);
},
{
closed = 1;
nodes = (
(1958,-10,q),
(1958,0,l),
(2021,0,l),
(2021,504,l),
(1217,504,l),
(1143,-1,l),
(1294,-14,o),
(1466,-38,o),
(1537,-63,o),
(1537,-80,qs),
(1537,-100,o),
(1459,-132,o),
(1326,-150,o),
(1241,-150,qs),
(1044,-150,o),
(868,-35,o),
(868,91,qs),
(868,324,o),
(917,592,q),
(482,677,l),
(454,525,o),
(427,202,o),
(427,48,qs),
(427,-307,o),
(830,-657,o),
(1233,-657,qs),
(1370,-657,o),
(1621,-584,o),
(1820,-458,o),
(1935,-299,o),
(1935,-212,qs),
(1935,-174,o),
(1949,-73,o)
);
}
);
width = 2020;
}
);
unicode = 57501;
},
{
glyphname = uniE0AA;
layers = (
{
anchors = (
{
name = "top-arab";
pos = (0,1166);
},
{
name = "_top-arab";
pos = (0,879);
}
);
layerId = m000;
shapes = (
{
closed = 1;
nodes = (
(107,1366,l),
(-166,1279,l),
(-107,1110,l),
(166,1195,l)
);
}
);
}
);
unicode = 57514;
},
{
glyphname = uniE0AB;
layers = (
{
anchors = (
{
name = "top-arab";
pos = (0,1159);
},
{
name = "_top-arab";
pos = (0,872);
}
);
layerId = m000;
shapes = (
{
closed = 1;
nodes = (
(17,1417,qs),
(26,1417,o),
(39,1415,o),
(39,1410,qs),
(39,1400,o),
(20,1375,o),
(5,1371,q),
(-9,1384,o),
(-1,1399,o),
(-1,1401,qs),
(-1,1408,o),
(5,1417,o)
);
},
{
closed = 1;
nodes = (
(56,1581,qs),
(-23,1581,o),
(-156,1485,o),
(-156,1407,qs),
(-156,1388,o),
(-159,1332,o),
(-145,1307,q),
(-181,1293,o),
(-203,1290,o),
(-220,1287,q),
(-171,1109,l),
(7,1156,o),
(206,1331,o),
(206,1424,qs),
(206,1500,o),
(121,1581,o)
);
}
);
}
);
unicode = 57515;
},
{
glyphname = uniE0AC;
layers = (
{
anchors = (
{
name = "bottom-arab";
pos = (0,-26);
},
{
name = "_bottom-arab";
pos = (0,221);
}
);
layerId = m000;
shapes = (
{
closed = 1;
nodes = (
(107,-75,l),
(-166,-163,l),
(-107,-333,l),
(166,-244,l)
);
}
);
}
);
unicode = 57516;
},
{
glyphname = uniE0AE;
layers = (
{
layerId = m000;
shapes = (
{
closed = 1;
nodes = (
(50,1438,l),
(75,1319,o),
(149,943,o),
(216,589,q),
(687,654,l),
(633,930,o),
(588,1173,o),
(553,1347,o),
(521,1487,o),
(502,1556,q)
);
},
{
closed = 1;
nodes = (
(813,1536,l),
(813,918,l),
(813,766,o),
(795,597,o),
(719,522,o),
(542,504,o),
(385,504,qs),
(53,504,l),
(53,0,l),
(341,0,l),
(628,0,o),
(998,84,o),
(1207,295,o),
(1291,668,o),
(1291,955,qs),
(1291,1536,l)
);
}
);
width = 1341;
}
);
unicode = 57518;
},
{
glyphname = uniE0AF;
layers = (
{
layerId = m000;
shapes = (
{
closed = 1;
nodes = (
(566,1241,q),
(90,1221,l),
(110,586,o),
(90,0,q),
(546,0,l),
(586,586,o)
);
}
);
width = 663;
}
);
unicode = 57519;
},
{
glyphname = uniE0B0;
layers = (
{
layerId = m000;
shapes = (
{
closed = 1;
nodes = (
(69,1221,l),
(69,582,l),
(69,295,o),
(415,0,o),
(702,0,qs),
(703,0,l),
(703,504,l),
(702,504,l),
(622,504,o),
(546,537,o),
(546,594,qs),
(546,1241,l)
);
}
);
width = 701;
}
);
unicode = 57520;
},
{
glyphname = uniE0B1;
layers = (
{
layerId = m000;
shapes = (
{
closed = 1;
nodes = (
(569,-605,qs),
(892,-605,l),
(892,-101,l),
(463,-101,l),
(439,-101,o),
(432,-81,o),
(432,-89,q),
(432,-56,o),
(568,-18,o),
(797,0,o),
(941,0,qs),
(1360,0,l),
(1360,504,l),
(942,504,l),
(684,504,o),
(281,346,o),
(50,48,o),
(50,-162,qs),
(50,-320,o),
(190,-515,o),
(425,-605,o)
);
}
);
width = 1358;
}
);
unicode = 57521;
},
{
glyphname = uniE0B4;
layers = (
{
layerId = m000;
shapes = (
{
closed = 1;
nodes = (
(712,-89,qs),
(656,-89,o),
(575,-45,o),
(575,0,q),
(549,0,l),
(632,0,o),
(717,-23,o),
(747,-57,o),
(747,-72,qs),
(747,-86,o),
(727,-89,o)
);
},
{
closed = 1;
nodes = (
(724,1154,qs),
(576,1154,o),
(368,1015,o),
(224,728,o),
(206,504,q),
(98,504,l),
(64,504,o),
(38,387,o),
(38,250,qs),
(38,114,o),
(64,0,o),
(98,0,qs),
(218,0,l),
(260,-290,o),
(532,-577,o),
(743,-577,qs),
(920,-577,o),
(1122,-392,o),
(1122,-226,qs),
(1122,-190,o),
(1106,-85,o),
(1048,-10,q),
(1048,0,l),
(1260,0,l),
(1260,504,l),
(998,504,l),
(998,514,l),
(1064,587,o),
(1091,742,o),
(1091,811,qs),
(1091,901,o),
(1018,1057,o),
(857,1154,o)
);
},
{
closed = 1;
nodes = (
(574,504,l),
(575,589,o),
(658,664,o),
(707,664,qs),
(716,664,o),
(742,654,o),
(742,628,qs),
(742,605,o),
(728,561,o),
(687,526,o),
(612,504,o),
(550,504,q)
);
}
);
width = 1261;
}
);
unicode = 57524;
},
{
glyphname = uighurkazakhkirghizalefmaksuraarab.Extended_1.init;
layers = (
{
layerId = m000;
shapes = (
{
closed = 1;
nodes = (
(-61,504,o),
(-61,253,qs),
(-61,0,o),
(0,0,qs),
(277,0,o),
(580,102,o),
(766,374,o),
(766,598,qs),
(766,679,o),
(737,898,o),
(714,1003,q),
(267,901,l),
(356,535,l),
(314,524,o),
(236,511,o),
(129,504,o),
(0,504,qs)
);
}
);
width = 819;
}
);
},
{
glyphname = uighurkazakhkirghizalefmaksuraarab.Extended_2.init;
layers = (
{
layerId = m000;
shapes = (
{
closed = 1;
nodes = (
(-61,504,o),
(-61,253,qs),
(-61,0,o),
(0,0,qs),
(497,0,o),
(800,102,o),
(986,374,o),
(986,598,qs),
(986,679,o),
(957,898,o),
(934,1003,q),
(487,901,l),
(576,535,l),
(534,524,o),
(446,511,o),
(329,504,o),
(0,504,qs)
);
}
);
width = 1034;
}
);
},
{
glyphname = uighurkazakhkirghizalefmaksuraarab.Extended_3.init;
layers = (
{
layerId = m000;
shapes = (
{
closed = 1;
nodes = (
(-61,504,o),
(-61,253,qs),
(-61,0,o),
(0,0,qs),
(307,0,o),
(610,102,o),
(796,374,o),
(796,598,qs),
(796,679,o),
(767,898,o),
(744,1003,q),
(297,901,l),
(386,535,l),
(344,524,o),
(266,511,o),
(159,504,o),
(0,504,qs)
);
}
);
width = 847;
}
);
},
{
glyphname = uighurkazakhkirghizalefmaksuraarab.Extended_1.medi;
layers = (
{
layerId = m000;
shapes = (
{
closed = 1;
nodes = (
(921,854,l),
(443,854,l),
(443,633,l),
(443,560,o),
(427,508,o),
(365,504,o),
(299,504,qs),
(0,504,l),
(-31,504,o),
(-61,388,o),
(-61,253,qs),
(-61,118,o),
(-31,0,o),
(0,0,qs),
(299,0,l),
(418,0,o),
(623,129,o),
(677,269,q),
(687,269,l),
(741,127,o),
(957,0,o),
(1084,0,q),
(1081,0,l),
(1081,504,l),
(1083,504,l),
(1008,504,o),
(939,507,o),
(921,558,o),
(921,633,qs)
);
}
);
width = 1083;
}
);
},
{
glyphname = uighurkazakhkirghizalefmaksuraarab.Extended_2.medi;
layers = (
{
layerId = m000;
shapes = (
{
closed = 1;
nodes = (
(1148,854,l),
(674,854,l),
(674,633,l),
(674,560,o),
(655,508,o),
(591,504,o),
(526,504,qs),
(0,504,l),
(-31,504,o),
(-61,388,o),
(-61,253,qs),
(-61,118,o),
(-31,0,o),
(0,0,qs),
(526,0,l),
(644,0,o),
(850,129,o),
(904,269,q),
(914,269,l),
(969,127,o),
(1181,0,o),
(1308,0,qs),
(1308,0,l),
(1308,504,l),
(1310,504,l),
(1234,504,o),
(1165,507,o),
(1148,558,o),
(1148,633,qs)
);
}
);
width = 1308;
}
);
},
{
glyphname = uighurkazakhkirghizalefmaksuraarab.Extended_3.medi;
layers = (
{
layerId = m000;
shapes = (
{
closed = 1;
nodes = (
(814,854,l),
(338,854,l),
(338,633,l),
(338,560,o),
(321,508,o),
(259,504,o),
(193,504,qs),
(0,504,l),
(-31,504,o),
(-61,388,o),
(-61,253,qs),
(-61,118,o),
(-31,0,o),
(0,0,qs),
(193,0,l),
(311,0,o),
(516,129,o),
(570,269,q),
(580,269,l),
(635,127,o),
(849,0,o),
(976,0,q),
(974,0,l),
(974,504,l),
(977,504,l),
(902,504,o),
(832,507,o),
(814,558,o),
(814,633,qs)
);
}
);
width = 974;
}
);
},
{
glyphname = ornateparenleft;
layers = (
{
layerId = m000;
shapes = (
{
closed = 1;
nodes = (
(254,768,qs),
(254,834,o),
(327,921,o),
(396,921,qs),
(463,921,o),
(534,836,o),
(534,768,qs),
(534,701,o),
(464,614,o),
(396,614,qs),
(327,614,o),
(254,701,o)
);
},
{
closed = 1;
nodes = (
(830,61,l),
(749,186,o),
(660,377,o),
(637,459,q),
(704,517,o),
(770,683,o),
(770,768,qs),
(770,856,o),
(702,1017,o),
(636,1075,q),
(657,1166,o),
(747,1373,o),
(830,1501,q),
(544,1689,l),
(431,1529,o),
(274,1261,o),
(231,1118,q),
(127,1067,o),
(21,877,o),
(21,768,qs),
(21,660,o),
(130,463,o),
(235,413,q),
(278,279,o),
(431,34,o),
(544,-126,q)
);
}
);
width = 810;
}
);
unicode = 64830;
},
{
glyphname = ornateparenright;
layers = (
{
layerId = m000;
shapes = (
{
closed = 1;
nodes = (
(593,768,qs),
(593,701,o),
(523,614,o),
(454,614,qs),
(386,614,o),
(315,701,o),
(315,768,qs),
(315,836,o),
(386,921,o),
(454,921,qs),
(522,921,o),
(593,834,o)
);
},
{
closed = 1;
nodes = (
(20,61,q),
(303,-126,l),
(416,34,o),
(573,279,o),
(615,413,q),
(720,463,o),
(829,660,o),
(829,768,qs),
(829,841,o),
(782,976,o),
(685,1085,o),
(617,1118,q),
(574,1261,o),
(418,1529,o),
(303,1689,q),
(20,1501,l),
(102,1373,o),
(192,1166,o),
(214,1075,q),
(147,1017,o),
(78,856,o),
(78,768,qs),
(78,683,o),
(145,517,o),
(213,459,q),
(189,377,o),
(101,186,o)
);
}
);
width = 810;
}
);
unicode = 64831;
},
{
glyphname = lamarab.alt.medi;
layers = (
{
layerId = m000;
shapes = (
{
closed = 1;
nodes = (
(375,160,q),
(385,160,l),
(430,111,o),
(611,0,o),
(762,0,qs),
(763,0,l),
(763,504,l),
(762,504,l),
(713,504,o),
(650,506,o),
(616,537,o),
(616,579,qs),
(616,1378,l),
(139,1378,l),
(139,559,l),
(139,511,o),
(122,492,o),
(63,504,o),
(0,504,qs),
(-26,504,o),
(-61,409,o),
(-61,253,qs),
(-61,99,o),
(-26,0,o),
(0,0,qs),
(140,0,o),
(329,108,o)
);
}
);
width = 763;
}
);
unicode = 57506;
},
{
glyphname = v;
layers = (
{
anchors = (
{
name = top;
pos = (511,1044);
},
{
name = bottom;
pos = (511,0);
}
);
layerId = m000;
shapes = (
{
closed = 1;
nodes = (
(673,546,l),
(663,546,l),
(522,1184,l),
(-21,1184,l),
(388,0,l),
(950,0,l),
(1353,1184,l),
(813,1184,l)
);
}
);
width = 1331;
}
);
unicode = 118;
},
{
glyphname = w;
layers = (
{
anchors = (
{
name = top;
pos = (782,1031);
},
{
name = bottom;
pos = (782,0);
}
);
layerId = m000;
shapes = (
{
closed = 1;
nodes = (
(1171,624,l),
(1161,624,l),
(1058,1193,l),
(702,1193,l),
(602,624,l),
(592,624,l),
(465,1184,l),
(-2,1184,l),
(292,0,l),
(783,0,l),
(876,447,l),
(886,447,l),
(978,0,l),
(1471,0,l),
(1766,1184,l),
(1297,1184,l)
);
}
);
width = 1756;
}
);
unicode = 119;
},
{
glyphname = x;
layers = (
{
anchors = (
{
name = top;
pos = (528,1044);
},
{
name = bottom;
pos = (528,0);
}
);
layerId = m000;
shapes = (
{
closed = 1;
nodes = (
(696,1184,l),
(631,811,l),
(566,1184,l),
(5,1184,l),
(299,561,l),
(5,0,l),
(566,0,l),
(631,305,l),
(697,0,l),
(1256,0,l),
(963,561,l),
(1256,1184,l)
);
}
);
width = 1258;
}
);
unicode = 120;
},
{
glyphname = y;
layers = (
{
anchors = (
{
name = top;
pos = (511,1044);
},
{
name = bottom;
pos = (508,-471);
}
);
layerId = m000;
shapes = (
{
closed = 1;
nodes = (
(-21,1184,l),
(421,15,l),
(422,11,l),
(411,-23,o),
(322,-65,o),
(252,-65,qs),
(42,-65,l),
(42,-466,l),
(432,-466,l),
(621,-466,o),
(866,-243,o),
(951,0,qs),
(1353,1184,l),
(813,1184,l),
(673,484,l),
(663,484,l),
(522,1184,l)
);
}
);
width = 1331;
}
);
unicode = 121;
},
{
glyphname = z;
layers = (
{
anchors = (
{
name = top;
pos = (487,1044);
},
{
name = bottom;
pos = (487,0);
}
);
layerId = m000;
shapes = (
{
closed = 1;
nodes = (
(96,770,l),
(492,770,l),
(96,318,l),
(96,0,l),
(1086,0,l),
(1086,414,l),
(692,414,l),
(1086,867,l),
(1086,1184,l),
(96,1184,l)
);
}
);
width = 1193;
}
);
unicode = 122;
},
{
glyphname = two;
layers = (
{
layerId = m000;
shapes = (
{
closed = 1;
nodes = (
(696,1174,qs),
(667,1174,o),
(622,1204,o),
(578,1295,o),
(546,1389,qs),
(479,1583,l),
(30,1425,l),
(100,1211,o),
(198,854,o),
(258,526,o),
(290,191,o),
(291,0,q),
(766,0,l),
(765,177,o),
(748,502,o),
(689,764,q),
(694,774,l),
(754,679,o),
(819,679,qs),
(886,679,o),
(1036,759,o),
(1165,949,o),
(1262,1269,o),
(1294,1508,q),
(828,1583,l),
(797,1385,l),
(781,1287,o),
(754,1198,o),
(722,1174,o)
);
}
);
width = 1324;
}
);
unicode = 50;
},
{
glyphname = three;
layers = (
{
layerId = m000;
shapes = (
{
closed = 1;
nodes = (
(946,910,q),
(956,910,l),
(993,786,o),
(1132,682,o),
(1209,682,qs),
(1420,682,o),
(1673,993,o),
(1673,1265,qs),
(1673,1333,o),
(1654,1495,o),
(1636,1585,q),
(1210,1504,l),
(1237,1354,o),
(1237,1259,qs),
(1237,1207,o),
(1206,1186,o),
(1170,1186,qs),
(1136,1186,o),
(1100,1218,o),
(1100,1262,qs),
(1100,1319,o),
(1099,1379,o),
(1099,1437,o),
(1100,1491,q),
(768,1488,l),
(771,1452,o),
(777,1378,o),
(780,1306,qs),
(784,1237,o),
(744,1165,o),
(690,1156,qs),
(635,1147,o),
(595,1198,o),
(576,1252,o),
(572,1266,qs),
(490,1583,l),
(40,1431,l),
(120,1181,o),
(227,721,o),
(282,257,o),
(284,0,q),
(761,0,l),
(759,176,o),
(746,480,o),
(696,719,q),
(703,726,l),
(708,706,o),
(785,671,o),
(855,682,qs),
(888,688,o),
(948,782,o)
);
}
);
width = 1713;
}
);
unicode = 51;
},
{
glyphname = m;
layers = (
{
layerId = m000;
shapes = (
{
closed = 1;
nodes = (
(112,1184,l),
(112,0,l),
(617,0,l),
(617,956,l),
(589,1184,l)
);
},
{
closed = 1;
nodes = (
(1332,592,l),
(1339,914,o),
(1088,1194,o),
(939,1194,qs),
(787,1193,o),
(586,1151,o),
(465,1076,q),
(581,789,l),
(659,805,o),
(718,808,o),
(744,808,qs),
(775,808,o),
(832,702,o),
(832,592,qs),
(831,0,l),
(1333,0,l)
);
},
{
closed = 1;
nodes = (
(2050,592,l),
(2056,914,o),
(1805,1194,o),
(1656,1194,qs),
(1504,1193,o),
(1304,1151,o),
(1183,1076,q),
(1298,789,l),
(1376,805,o),
(1435,808,o),
(1462,808,qs),
(1492,808,o),
(1549,702,o),
(1549,592,qs),
(1548,0,l),
(2050,0,l)
);
}
);
width = 2132;
}
);
unicode = 109;
},
{
glyphname = t;
layers = (
{
layerId = m000;
shapes = (
{
closed = 1;
nodes = (
(856,365,l),
(826,358,o),
(763,349,o),
(741,349,qs),
(709,349,o),
(669,374,o),
(669,402,qs),
(669,1475,l),
(163,1475,l),
(163,342,l),
(163,214,o),
(279,59,o),
(469,-11,o),
(579,-11,qs),
(666,-11,o),
(844,27,o),
(921,54,q)
);
},
{
closed = 1;
nodes = (
(30,810,l),
(868,810,l),
(868,1092,l),
(30,1092,l)
);
}
);
width = 950;
}
);
unicode = 116;
},
{
glyphname = D;
layers = (
{
layerId = m000;
shapes = (
{
closed = 1;
nodes = (
(1419,782,qs),
(1419,925,o),
(1343,1202,o),
(1170,1428,o),
(882,1564,o),
(669,1564,qs),
(80,1564,l),
(80,0,l),
(669,0,l),
(882,0,o),
(1170,135,o),
(1343,363,o),
(1419,641,o)
);
},
{
closed = 1;
nodes = (
(916,782,qs),
(916,629,o),
(874,470,o),
(767,415,o),
(669,415,qs),
(581,415,l),
(581,1148,l),
(669,1148,l),
(767,1148,o),
(874,1093,o),
(916,937,o)
);
}
);
width = 1464;
}
);
unicode = 68;
},
{
glyphname = underscore;
layers = (
{
layerId = m000;
shapes = (
{
closed = 1;
nodes = (
(1237,0,l),
(100,0,l),
(100,-476,l),
(1237,-476,l)
);
}
);
width = 1334;
}
);
unicode = 95;
},
{
glyphname = less;
layers = (
{
layerId = m000;
shapes = (
{
closed = 1;
nodes = (
(597,1344,l),
(21,799,l),
(597,253,l),
(786,449,l),
(400,799,l),
(786,1149,l)
);
}
);
width = 798;
}
);
unicode = 60;
},
{
glyphname = ampersand;
layers = (
{
layerId = m000;
shapes = (
{
closed = 1;
nodes = (
(168,1132,qs),
(168,1042,o),
(240,868,o),
(317,791,q),
(296,811,l),
(214,751,o),
(128,633,o),
(97,512,o),
(97,444,qs),
(97,310,o),
(231,103,o),
(482,-12,o),
(657,-12,qs),
(776,-12,o),
(987,60,o),
(1075,135,q),
(1233,-11,l),
(1517,308,l),
(1326,451,l),
(1377,536,o),
(1457,738,o),
(1480,860,q),
(1164,921,l),
(1090,787,o),
(1023,709,q),
(952,752,l),
(1017,805,o),
(1083,916,o),
(1109,1037,o),
(1109,1102,qs),
(1109,1241,o),
(987,1447,o),
(775,1561,o),
(635,1561,qs),
(500,1561,o),
(289,1456,o),
(168,1263,o)
);
},
{
closed = 1;
nodes = (
(639,1024,q),
(555.467,1049.888,o),
(497,1105,o),
(497,1129,qs),
(497,1146,o),
(539,1164,o),
(579,1169,o),
(638,1169,qs),
(707,1169,o),
(781,1147,o),
(781,1128,qs),
(781,1100,o),
(771,1093,o),
(724,1052,o)
);
},
{
closed = 1;
nodes = (
(777,395,l),
(737,392,o),
(675,393,o),
(648,393,qs),
(618,393,o),
(534,397,o),
(454,403,o),
(454,429,qs),
(454,450,o),
(515,493,o),
(564,523,o),
(598,536,q)
);
}
);
width = 1614;
}
);
unicode = 38;
},
{
glyphname = aoonek;
layers = (
{
layerId = m000;
shapes = (
{
closed = 1;
nodes = (
(707,1798,l),
(188,1343,l),
(364,1122,l),
(885,1573,l)
);
}
);
width = 1229;
}
);
},
{
glyphname = Iota;
layers = (
{
anchors = (
{
name = "bottom-arab";
pos = (739,-615);
},
{
name = "top-arab";
pos = (571,181);
}
);
layerId = m000;
shapes = (
{
closed = 1;
nodes = (
(569,-605,qs),
(1403,-605,l),
(1403,-101,l),
(462,-101,l),
(440,-101,o),
(432,-81,o),
(432,-89,q),
(432,-56,o),
(568,-18,o),
(798,0,o),
(941,0,q),
(942,504,l),
(684,504,o),
(282,346,o),
(50,48,o),
(50,-162,qs),
(50,-320,o),
(190,-515,o),
(425,-605,o)
);
}
);
width = 942;
}
);
unicode = 406;
},
{
glyphname = Eslash;
layers = (
{
anchors = (
{
name = "bottom-arab";
pos = (836,-571);
},
{
name = "top-arab";
pos = (686,403);
}
);
layerId = m000;
shapes = (
{
closed = 1;
nodes = (
(1484,-20,q),
(1484,0,l),
(1473,0,l),
(1473,504,l),
(839,504,l),
(765,-1,l),
(917,-24,o),
(1110,-48,o),
(1239,-73,o),
(1239,-90,qs),
(1239,-110,o),
(1103,-122,o),
(949,-130,o),
(864,-130,qs),
(666,-130,o),
(491,-35,o),
(491,91,qs),
(491,324,o),
(540,592,q),
(105,677,l),
(76,525,o),
(50,202,o),
(50,48,qs),
(50,-297,o),
(453,-607,o),
(857,-607,qs),
(992,-607,o),
(1244,-564,o),
(1443,-448,o),
(1559,-289,o),
(1559,-172,qs),
(1559,-64,o),
(1502,-23,o)
);
}
);
width = 1473;
}
);
unicode = 582;
},
{
glyphname = Arabic_Triple_Dot_Down.alt.001;
layers = (
{
layerId = m000;
shapes = (
{
closed = 1;
nodes = (
(594,509,l),
(40,447,l),
(41,176,l),
(386.026,228.657,l),
(200,32,l),
(376,-67,l),
(661,251,l)
);
}
);
width = 622;
}
);
},
{
glyphname = uE23F;
layers = (
{
layerId = m000;
shapes = (
{
closed = 1;
nodes = (
(159,384,l),
(161,35,l),
(791,91,l),
(913,444,l),
(912,444,l),
(562,773,l),
(333,578,l),
(547.523,420.911,l)
);
}
